<?xml version="1.0" encoding="UTF-8" standalone="no"?>
<!DOCTYPE svg PUBLIC "-//W3C//DTD SVG 1.1//EN" "http://www.w3.org/Graphics/SVG/1.1/DTD/svg11.dtd">
<svg width="100%" height="100%" viewBox="0 0 356 356" version="1.1" xmlns="http://www.w3.org/2000/svg" xmlns:xlink="http://www.w3.org/1999/xlink" xml:space="preserve" xmlns:serif="http://www.serif.com/" style="fill-rule:evenodd;clip-rule:evenodd;stroke-linejoin:round;stroke-miterlimit:2;">
    <g transform="matrix(5.55556,0,0,5.55556,-3200,-2400)">
        <g id="Page-87" serif:id="Page 87" transform="matrix(1,0,0,1,576,432)">
            <rect x="0" y="0" width="64" height="64" style="fill:none;"/>
            <g id="Layer-1" serif:id="Layer 1">
                <g transform="matrix(0,-1,-1,0,32,0)">
                    <path d="M-32,-32C-49.673,-32 -64,-17.673 -64,0C-64,17.673 -49.673,32 -32,32C-14.327,32 0,17.673 0,0C0,-17.673 -14.327,-32 -32,-32" style="fill:rgb(119,179,212);fill-rule:nonzero;"/>
                </g>
                <g opacity="0.2">
                    <g transform="matrix(1,0,0,1,44,14)">
                        <path d="M0,40C0,41.657 -1.343,43 -3,43L-21,43C-22.657,43 -24,41.657 -24,40L-24,0C-24,-1.657 -22.657,-3 -21,-3L-3,-3C-1.343,-3 0,-1.657 0,0L0,40Z" style="fill:rgb(35,31,32);fill-rule:nonzero;"/>
                    </g>
                </g>
                <g transform="matrix(1,0,0,1,44,12)">
                    <path d="M0,40C0,41.657 -1.343,43 -3,43L-21,43C-22.657,43 -24,41.657 -24,40L-24,0C-24,-1.657 -22.657,-3 -21,-3L-3,-3C-1.343,-3 0,-1.657 0,0L0,40Z" style="fill:rgb(79,93,115);fill-rule:nonzero;"/>
                </g>
                <g opacity="0.2">
                    <g transform="matrix(0,-1,-1,0,32,29)">
                        <path d="M-5,-5C-7.761,-5 -10,-2.761 -10,0C-10,2.761 -7.761,5 -5,5C-2.239,5 0,2.761 0,0C0,-2.761 -2.239,-5 -5,-5" style="fill:rgb(35,31,32);fill-rule:nonzero;"/>
                    </g>
                </g>
                <g opacity="0.2">
                    <g transform="matrix(0,-1,-1,0,32,16)">
                        <path d="M-5,-5C-7.761,-5 -10,-2.761 -10,0C-10,2.761 -7.761,5 -5,5C-2.239,5 0,2.761 0,0C0,-2.761 -2.239,-5 -5,-5" style="fill:rgb(35,31,32);fill-rule:nonzero;"/>
                    </g>
                </g>
                <g opacity="0.2">
                    <g transform="matrix(0,-1,-1,0,32,42)">
                        <path d="M-5,-5C-7.761,-5 -10,-2.761 -10,0C-10,2.761 -7.761,5 -5,5C-2.239,5 0,2.761 0,0C0,-2.761 -2.239,-5 -5,-5" style="fill:rgb(35,31,32);fill-rule:nonzero;"/>
                    </g>
                </g>
                <g transform="matrix(0,-1,-1,0,32,27)">
                    <path d="M-5,-5C-7.761,-5 -10,-2.761 -10,0C-10,2.761 -7.761,5 -5,5C-2.239,5 0,2.761 0,0C0,-2.761 -2.239,-5 -5,-5" style="fill:rgb(245,207,135);fill-rule:nonzero;"/>
                </g>
                <g transform="matrix(0,-1,-1,0,32,14)">
                    <path d="M-5,-5C-7.761,-5 -10,-2.761 -10,0C-10,2.761 -7.761,5 -5,5C-2.239,5 0,2.761 0,0C0,-2.761 -2.239,-5 -5,-5" style="fill:rgb(199,92,92);fill-rule:nonzero;"/>
                </g>
                <g transform="matrix(0,-1,-1,0,32,40)">
                    <path d="M-5,-5C-7.761,-5 -10,-2.761 -10,0C-10,2.761 -7.761,5 -5,5C-2.239,5 0,2.761 0,0C0,-2.761 -2.239,-5 -5,-5" style="fill:rgb(118,194,175);fill-rule:nonzero;"/>
                </g>
            </g>
        </g>
    </g>
</svg>
