<?xml version="1.0" encoding="UTF-8" standalone="no"?>
<!DOCTYPE svg PUBLIC "-//W3C//DTD SVG 1.1//EN" "http://www.w3.org/Graphics/SVG/1.1/DTD/svg11.dtd">
<svg width="100%" height="100%" viewBox="0 0 356 356" version="1.1" xmlns="http://www.w3.org/2000/svg" xmlns:xlink="http://www.w3.org/1999/xlink" xml:space="preserve" xmlns:serif="http://www.serif.com/" style="fill-rule:evenodd;clip-rule:evenodd;stroke-linejoin:round;stroke-miterlimit:2;">
    <g transform="matrix(5.55556,0,0,5.55556,-2400,-1600)">
        <g id="Page-59" serif:id="Page 59" transform="matrix(1,0,0,1,432,288)">
            <rect x="0" y="0" width="64" height="64" style="fill:none;"/>
            <g id="Layer-1" serif:id="Layer 1">
                <g transform="matrix(0,-1,-1,0,32,0)">
                    <path d="M-32,-32C-49.673,-32 -64,-17.673 -64,0C-64,17.673 -49.673,32 -32,32C-14.327,32 0,17.673 0,0C0,-17.673 -14.327,-32 -32,-32" style="fill:rgb(199,92,92);fill-rule:nonzero;"/>
                </g>
                <g opacity="0.2">
                    <g transform="matrix(1,0,0,1,44,18)">
                        <path d="M0,32C-2.206,32 -4,30.206 -4,28C-4,25.794 -2.206,24 0,24C2.206,24 4,25.794 4,28C4,30.206 2.206,32 0,32M0,20C-6.187,20 -8.187,17.132 -8.187,17.132L-28,-4C-28,15.063 -8.475,20.06 -8.475,26.259C-8.475,28.155 -7.999,29.725 -7.44,30.926C-6.271,33.895 -3.384,36 0,36C4.418,36 8,32.418 8,28C8,23.582 4.418,20 0,20" style="fill:rgb(35,31,32);fill-rule:nonzero;"/>
                    </g>
                </g>
                <g transform="matrix(1,0,0,1,44,16)">
                    <path d="M0,32C-2.206,32 -4,30.206 -4,28C-4,25.794 -2.206,24 0,24C2.206,24 4,25.794 4,28C4,30.206 2.206,32 0,32M0,20C-6.187,20 -8.187,17.132 -8.187,17.132L-28,-4C-28,15.063 -8.475,20.06 -8.475,26.259C-8.475,28.155 -7.999,29.725 -7.44,30.926C-6.271,33.895 -3.384,36 0,36C4.418,36 8,32.418 8,28C8,23.582 4.418,20 0,20" style="fill:rgb(224,224,209);fill-rule:nonzero;"/>
                </g>
                <g opacity="0.2">
                    <g transform="matrix(1,0,0,1,20,18)">
                        <path d="M0,32C-2.206,32 -4,30.206 -4,28C-4,25.794 -2.206,24 0,24C2.206,24 4,25.794 4,28C4,30.206 2.206,32 0,32M8.187,17.132C8.187,17.132 6.187,20 0,20C-4.418,20 -8,23.582 -8,28C-8,32.418 -4.418,36 0,36C3.384,36 6.271,33.895 7.44,30.926C7.999,29.725 8.475,28.155 8.475,26.259C8.475,20.06 28,15.063 28,-4L8.187,17.132Z" style="fill:rgb(35,31,32);fill-rule:nonzero;"/>
                    </g>
                </g>
                <g transform="matrix(1,0,0,1,20,16)">
                    <path d="M0,32C-2.206,32 -4,30.206 -4,28C-4,25.794 -2.206,24 0,24C2.206,24 4,25.794 4,28C4,30.206 2.206,32 0,32M8.187,17.132C8.187,17.132 6.187,20 0,20C-4.418,20 -8,23.582 -8,28C-8,32.418 -4.418,36 0,36C3.384,36 6.271,33.895 7.44,30.926C7.999,29.725 8.475,28.155 8.475,26.259C8.475,20.06 28,15.063 28,-4L8.187,17.132Z" style="fill:rgb(224,224,209);fill-rule:nonzero;"/>
                </g>
                <g transform="matrix(0,-1,-1,0,32,31.5)">
                    <path d="M-1.5,-1.5C-2.328,-1.5 -3,-0.828 -3,0C-3,0.828 -2.328,1.5 -1.5,1.5C-0.672,1.5 0,0.828 0,0C0,-0.828 -0.672,-1.5 -1.5,-1.5" style="fill:rgb(79,93,115);fill-rule:nonzero;"/>
                </g>
            </g>
        </g>
    </g>
</svg>
