<?xml version="1.0" encoding="UTF-8" standalone="no"?>
<!DOCTYPE svg PUBLIC "-//W3C//DTD SVG 1.1//EN" "http://www.w3.org/Graphics/SVG/1.1/DTD/svg11.dtd">
<svg width="100%" height="100%" viewBox="0 0 356 356" version="1.1" xmlns="http://www.w3.org/2000/svg" xmlns:xlink="http://www.w3.org/1999/xlink" xml:space="preserve" xmlns:serif="http://www.serif.com/" style="fill-rule:evenodd;clip-rule:evenodd;stroke-linejoin:round;stroke-miterlimit:2;">
    <g transform="matrix(5.55556,0,0,5.55556,-400,-800)">
        <g id="Page-28" serif:id="Page 28" transform="matrix(1,0,0,1,72,144)">
            <rect x="0" y="0" width="64" height="64" style="fill:none;"/>
            <g id="Layer-1" serif:id="Layer 1">
                <g transform="matrix(0,-1,-1,0,32,0)">
                    <path d="M-32,-32C-49.673,-32 -64,-17.673 -64,0C-64,17.673 -49.673,32 -32,32C-14.327,32 0,17.673 0,0C0,-17.673 -14.327,-32 -32,-32" style="fill:rgb(119,179,212);fill-rule:nonzero;"/>
                </g>
                <g opacity="0.2">
                    <g transform="matrix(1,0,0,1,32,11.5)">
                        <path d="M0,30C3.315,30 6,27.315 6,24L6,6C6,2.685 3.315,0 0,0C-3.315,0 -6,2.685 -6,6L-6,24C-6,27.315 -3.315,30 0,30" style="fill:rgb(35,31,32);fill-rule:nonzero;"/>
                    </g>
                </g>
                <g opacity="0.2">
                    <g transform="matrix(1,0,0,1,32,30)">
                        <path d="M0,18.25C-7.168,18.25 -13,12.418 -13,5.25L-13,1.5C-13,0.672 -12.328,0 -11.5,0C-10.672,0 -10,0.672 -10,1.5L-10,5.25C-10,10.764 -5.514,15.25 0,15.25C5.514,15.25 10,10.764 10,5.25L10,1.5C10,0.672 10.672,0 11.5,0C12.328,0 13,0.672 13,1.5L13,5.25C13,12.418 7.168,18.25 0,18.25" style="fill:rgb(35,31,32);fill-rule:nonzero;"/>
                    </g>
                </g>
                <g opacity="0.2">
                    <g transform="matrix(1,0,0,1,32,46)">
                        <path d="M0,9C-0.828,9 -1.5,8.328 -1.5,7.5L-1.5,1.5C-1.5,0.672 -0.828,0 0,0C0.828,0 1.5,0.672 1.5,1.5L1.5,7.5C1.5,8.328 0.828,9 0,9" style="fill:rgb(35,31,32);fill-rule:nonzero;"/>
                    </g>
                </g>
                <g opacity="0.2">
                    <g transform="matrix(1,0,0,1,37,53)">
                        <path d="M0,3L-10,3C-10.828,3 -11.5,2.328 -11.5,1.5C-11.5,0.672 -10.828,0 -10,0L0,0C0.828,0 1.5,0.672 1.5,1.5C1.5,2.328 0.828,3 0,3" style="fill:rgb(35,31,32);fill-rule:nonzero;"/>
                    </g>
                </g>
                <g transform="matrix(1,0,0,1,32,9.5)">
                    <path d="M0,30C3.315,30 6,27.315 6,24L6,6C6,2.685 3.315,0 0,0C-3.315,0 -6,2.685 -6,6L-6,24C-6,27.315 -3.315,30 0,30" style="fill:rgb(79,93,115);fill-rule:nonzero;"/>
                </g>
                <g transform="matrix(1,0,0,1,32,28)">
                    <path d="M0,18.25C-7.168,18.25 -13,12.418 -13,5.25L-13,1.5C-13,0.672 -12.328,0 -11.5,0C-10.672,0 -10,0.672 -10,1.5L-10,5.25C-10,10.764 -5.514,15.25 0,15.25C5.514,15.25 10,10.764 10,5.25L10,1.5C10,0.672 10.672,0 11.5,0C12.328,0 13,0.672 13,1.5L13,5.25C13,12.418 7.168,18.25 0,18.25" style="fill:white;fill-rule:nonzero;"/>
                </g>
                <g transform="matrix(1,0,0,1,32,44)">
                    <path d="M0,9C-0.828,9 -1.5,8.328 -1.5,7.5L-1.5,1.5C-1.5,0.672 -0.828,0 0,0C0.828,0 1.5,0.672 1.5,1.5L1.5,7.5C1.5,8.328 0.828,9 0,9" style="fill:white;fill-rule:nonzero;"/>
                </g>
                <g transform="matrix(1,0,0,1,37,51)">
                    <path d="M0,3L-10,3C-10.828,3 -11.5,2.328 -11.5,1.5C-11.5,0.672 -10.828,0 -10,0L0,0C0.828,0 1.5,0.672 1.5,1.5C1.5,2.328 0.828,3 0,3" style="fill:white;fill-rule:nonzero;"/>
                </g>
            </g>
        </g>
    </g>
</svg>
