<?xml version="1.0" encoding="UTF-8" standalone="no"?>
<!DOCTYPE svg PUBLIC "-//W3C//DTD SVG 1.1//EN" "http://www.w3.org/Graphics/SVG/1.1/DTD/svg11.dtd">
<svg width="100%" height="100%" viewBox="0 0 356 356" version="1.1" xmlns="http://www.w3.org/2000/svg" xmlns:xlink="http://www.w3.org/1999/xlink" xml:space="preserve" xmlns:serif="http://www.serif.com/" style="fill-rule:evenodd;clip-rule:evenodd;stroke-linejoin:round;stroke-miterlimit:2;">
    <g transform="matrix(5.55556,0,0,5.55556,-400,0)">
        <g id="Page-2" serif:id="Page 2" transform="matrix(1,0,0,1,72,0)">
            <rect x="0" y="0" width="64" height="64" style="fill:none;"/>
            <g id="Layer-1" serif:id="Layer 1">
                <g transform="matrix(0,-1,-1,0,32,0)">
                    <path d="M-32,-32C-49.673,-32 -64,-17.673 -64,0C-64,17.673 -49.673,32 -32,32C-14.327,32 0,17.673 0,0C0,-17.673 -14.327,-32 -32,-32" style="fill:rgb(224,153,94);fill-rule:nonzero;"/>
                </g>
                <g opacity="0.2">
                    <g transform="matrix(1,0,0,1,36,45)">
                        <path d="M0,-22L0,-31L-17,-31C-18.657,-31 -20,-29.657 -20,-28L-20,6C-20,7.657 -18.657,9 -17,9L9,9C10.657,9 12,7.657 12,6L12,-19L3,-19C1.343,-19 0,-20.343 0,-22" style="fill:rgb(35,31,32);fill-rule:nonzero;"/>
                    </g>
                </g>
                <g transform="matrix(1,0,0,1,36,43)">
                    <path d="M0,-22L0,-31L-17,-31C-18.657,-31 -20,-29.657 -20,-28L-20,6C-20,7.657 -18.657,9 -17,9L9,9C10.657,9 12,7.657 12,6L12,-19L3,-19C1.343,-19 0,-20.343 0,-22" style="fill:rgb(224,224,209);fill-rule:nonzero;"/>
                </g>
                <g opacity="0.2">
                    <g transform="matrix(1,0,0,1,37.016,32.9996)">
                        <path d="M0,-9.706L10.984,0L10.984,-9L0,-9.706Z" style="fill:rgb(35,31,32);fill-rule:nonzero;"/>
                    </g>
                </g>
                <g transform="matrix(0,1,1,0,48,12)">
                    <path d="M0,-12L9,-12C10.657,-12 12,-10.657 12,-9L12,0L0,-12Z" style="fill:white;fill-rule:nonzero;"/>
                </g>
                <g opacity="0.2">
                    <g transform="matrix(1,0,0,-1,0,64)">
                        <rect x="22" y="40" width="9.625" height="2" style="fill:rgb(35,31,32);"/>
                    </g>
                </g>
                <g opacity="0.2">
                    <g transform="matrix(1,0,0,-1,0,64)">
                        <rect x="22" y="30" width="20" height="2" style="fill:rgb(35,31,32);"/>
                    </g>
                </g>
                <g opacity="0.2">
                    <g transform="matrix(1,0,0,-1,0,64)">
                        <rect x="22" y="35" width="20" height="2" style="fill:rgb(35,31,32);"/>
                    </g>
                </g>
                <g opacity="0.2">
                    <g transform="matrix(1,0,0,-1,0,64)">
                        <rect x="22" y="25" width="20" height="2" style="fill:rgb(35,31,32);"/>
                    </g>
                </g>
                <g opacity="0.2">
                    <g transform="matrix(1,0,0,-1,0,64)">
                        <rect x="22" y="20" width="20" height="2" style="fill:rgb(35,31,32);"/>
                    </g>
                </g>
            </g>
        </g>
    </g>
</svg>
