<?xml version="1.0" encoding="UTF-8" standalone="no"?>
<!DOCTYPE svg PUBLIC "-//W3C//DTD SVG 1.1//EN" "http://www.w3.org/Graphics/SVG/1.1/DTD/svg11.dtd">
<svg width="100%" height="100%" viewBox="0 0 356 356" version="1.1" xmlns="http://www.w3.org/2000/svg" xmlns:xlink="http://www.w3.org/1999/xlink" xml:space="preserve" xmlns:serif="http://www.serif.com/" style="fill-rule:evenodd;clip-rule:evenodd;stroke-linejoin:round;stroke-miterlimit:2;">
    <g transform="matrix(5.55556,0,0,5.55556,-1600,-1200)">
        <g id="Page-44" serif:id="Page 44" transform="matrix(1,0,0,1,288,216)">
            <rect x="0" y="0" width="64" height="64" style="fill:none;"/>
            <g id="Layer-1" serif:id="Layer 1">
                <g transform="matrix(0,1,1,0,32,0)">
                    <path d="M32,-32C49.673,-32 64,-17.673 64,0C64,17.673 49.673,32 32,32C14.327,32 0,17.673 0,0C0,-17.673 14.327,-32 32,-32" style="fill:rgb(118,194,175);fill-rule:nonzero;"/>
                </g>
                <g transform="matrix(1,0,0,1,29.125,19.592)">
                    <path d="M0,24.908C-0.485,24.908 -0.943,24.673 -1.225,24.273L-11.508,9.716L-19.293,14.906C-19.983,15.366 -20.914,15.179 -21.373,14.49C-21.833,13.801 -21.646,12.87 -20.957,12.41L-11.957,6.41C-11.282,5.96 -10.369,6.129 -9.9,6.793L-0.167,20.572L10.557,0.817C10.799,0.372 11.25,0.078 11.756,0.038C12.262,0 12.753,0.215 13.063,0.618L26.063,17.493C26.569,18.149 26.447,19.091 25.791,19.596C25.134,20.101 24.193,19.98 23.687,19.323L12.094,4.274L1.318,24.124C1.071,24.579 0.606,24.875 0.088,24.905C0.059,24.907 0.029,24.908 0,24.908" style="fill:white;fill-rule:nonzero;"/>
                </g>
                <g transform="matrix(0,1,1,0,41,18.75)">
                    <path d="M4.375,-4.375C6.791,-4.375 8.75,-2.416 8.75,0C8.75,2.416 6.791,4.375 4.375,4.375C1.959,4.375 0,2.416 0,0C0,-2.416 1.959,-4.375 4.375,-4.375" style="fill:rgb(199,92,92);fill-rule:nonzero;"/>
                </g>
                <g opacity="0.2">
                    <g transform="matrix(1,0,0,1,29.125,21.587)">
                        <path d="M0,24.913C-0.485,24.913 -0.943,24.678 -1.225,24.278L-11.508,9.721L-19.293,14.911C-19.983,15.37 -20.914,15.184 -21.373,14.495C-21.833,13.806 -21.646,12.874 -20.957,12.415L-11.957,6.415C-11.281,5.962 -10.369,6.134 -9.9,6.798L-0.167,20.577L10.557,0.822C10.799,0.376 11.25,0.083 11.756,0.043C12.261,0 12.753,0.221 13.063,0.622L26.063,17.497C26.569,18.154 26.447,19.096 25.791,19.601C25.135,20.107 24.194,19.986 23.687,19.329L12.094,4.28L1.318,24.129C1.071,24.584 0.606,24.88 0.088,24.911C0.059,24.912 0.029,24.913 0,24.913" style="fill:rgb(35,31,32);fill-rule:nonzero;"/>
                    </g>
                </g>
                <g transform="matrix(1,0,0,1,29.125,19.592)">
                    <path d="M0,24.908C-0.485,24.908 -0.943,24.673 -1.225,24.273L-11.508,9.716L-19.293,14.906C-19.983,15.366 -20.914,15.179 -21.373,14.49C-21.833,13.801 -21.646,12.87 -20.957,12.41L-11.957,6.41C-11.282,5.96 -10.369,6.129 -9.9,6.793L-0.167,20.572L10.557,0.817C10.799,0.372 11.25,0.078 11.756,0.038C12.262,0 12.753,0.215 13.063,0.618L26.063,17.493C26.569,18.149 26.447,19.091 25.791,19.596C25.134,20.101 24.193,19.98 23.687,19.323L12.094,4.274L1.318,24.124C1.071,24.579 0.606,24.875 0.088,24.905C0.059,24.907 0.029,24.908 0,24.908" style="fill:white;fill-rule:nonzero;"/>
                </g>
                <g opacity="0.2">
                    <g transform="matrix(0,1,1,0,41,20.75)">
                        <path d="M4.375,-4.375C6.791,-4.375 8.75,-2.416 8.75,0C8.75,2.416 6.791,4.375 4.375,4.375C1.959,4.375 0,2.416 0,0C0,-2.416 1.959,-4.375 4.375,-4.375" style="fill:rgb(35,31,32);fill-rule:nonzero;"/>
                    </g>
                </g>
                <g transform="matrix(0,1,1,0,41,18.75)">
                    <path d="M4.375,-4.375C6.791,-4.375 8.75,-2.416 8.75,0C8.75,2.416 6.791,4.375 4.375,4.375C1.959,4.375 0,2.416 0,0C0,-2.416 1.959,-4.375 4.375,-4.375" style="fill:rgb(79,93,115);fill-rule:nonzero;"/>
                </g>
            </g>
        </g>
    </g>
</svg>
