<?xml version="1.0" encoding="UTF-8" standalone="no"?>
<!DOCTYPE svg PUBLIC "-//W3C//DTD SVG 1.1//EN" "http://www.w3.org/Graphics/SVG/1.1/DTD/svg11.dtd">
<svg width="100%" height="100%" viewBox="0 0 356 356" version="1.1" xmlns="http://www.w3.org/2000/svg" xmlns:xlink="http://www.w3.org/1999/xlink" xml:space="preserve" xmlns:serif="http://www.serif.com/" style="fill-rule:evenodd;clip-rule:evenodd;stroke-linejoin:round;stroke-miterlimit:2;">
    <g transform="matrix(5.55556,0,0,5.55556,-2800,-400)">
        <g id="Page-21" serif:id="Page 21" transform="matrix(1,0,0,1,504,72)">
            <rect x="0" y="0" width="64" height="64" style="fill:none;"/>
            <g id="Layer-1" serif:id="Layer 1">
                <g transform="matrix(0,-1,-1,0,32,0)">
                    <path d="M-32,-32C-49.673,-32 -64,-17.673 -64,0C-64,17.673 -49.673,32 -32,32C-14.327,32 0,17.673 0,0C0,-17.673 -14.327,-32 -32,-32" style="fill:rgb(199,92,92);fill-rule:nonzero;"/>
                </g>
                <g opacity="0.2">
                    <g transform="matrix(1,0,0,1,39.9836,10.9553)">
                        <path d="M0,0.219C0.002,0.202 0.016,0.176 0.016,0.161C0.016,0 0.011,0.049 0,0.219" style="fill:rgb(35,31,32);fill-rule:nonzero;"/>
                    </g>
                    <g transform="matrix(1,0,0,1,24,11.0156)">
                        <path d="M0,0.101C0,0.117 0.015,0.145 0.018,0.163C0.006,-0.011 0,-0.062 0,0.101" style="fill:rgb(35,31,32);fill-rule:nonzero;"/>
                    </g>
                </g>
                <g opacity="0.2">
                    <g transform="matrix(1,0,0,1,48,32.727)">
                        <path d="M0,-0.727C0,-7.196 -3.847,-12.754 -9.37,-15.276C-11.096,-16 -12,-14.681 -12,-13.61L-12,-5.11C-12,-4.282 -11.328,-3.727 -10.5,-3.727L-7.439,-3.727C-5.967,-3.727 -5.556,-2.6 -6.525,-1.365L-14.238,8.464C-15.207,9.698 -16.793,9.698 -17.762,8.464L-25.475,-1.365C-26.444,-2.6 -26.033,-3.727 -24.561,-3.727L-21.5,-3.727C-20.672,-3.727 -20,-4.282 -20,-5.11L-20,-13.61C-20,-14.715 -21.504,-15.753 -22.753,-15.22C-22.755,-15.219 -22.758,-15.222 -22.76,-15.221C-27.071,-13.201 -30.333,-9.316 -31.508,-4.601C-36.313,-3.873 -40,0.264 -40,5.273C-40,10.796 -35.523,15.273 -30,15.273L0,15.273C4.418,15.273 8,11.691 8,7.273C8,2.855 4.418,-0.727 0,-0.727" style="fill:rgb(35,31,32);fill-rule:nonzero;"/>
                    </g>
                </g>
                <g transform="matrix(1,0,0,1,48,30.727)">
                    <path d="M0,-0.727C0,-7.196 -3.847,-12.754 -9.37,-15.276C-11.096,-16 -12,-14.681 -12,-13.61L-12,-5.11C-12,-4.282 -11.328,-3.727 -10.5,-3.727L-7.439,-3.727C-5.967,-3.727 -5.556,-2.6 -6.525,-1.365L-14.238,8.464C-15.207,9.698 -16.793,9.698 -17.762,8.464L-25.475,-1.365C-26.444,-2.6 -26.033,-3.727 -24.561,-3.727L-21.5,-3.727C-20.672,-3.727 -20,-4.282 -20,-5.11L-20,-13.61C-20,-14.715 -21.504,-15.753 -22.753,-15.22C-22.755,-15.219 -22.758,-15.222 -22.76,-15.221C-27.071,-13.201 -30.333,-9.316 -31.508,-4.601C-36.313,-3.873 -40,0.264 -40,5.273C-40,10.796 -35.523,15.273 -30,15.273L0,15.273C4.418,15.273 8,11.691 8,7.273C8,2.855 4.418,-0.727 0,-0.727" style="fill:white;fill-rule:nonzero;"/>
                </g>
                <g transform="matrix(1,0,0,1,39.9836,8.9553)">
                    <path d="M0,0.219C0.002,0.202 0.016,0.176 0.016,0.161C0.016,0 0.011,0.049 0,0.219" style="fill:rgb(140,129,212);fill-rule:nonzero;"/>
                </g>
                <g transform="matrix(1,0,0,1,24,9.0156)">
                    <path d="M0,0.101C0,0.117 0.015,0.145 0.018,0.163C0.006,-0.011 0,-0.062 0,0.101" style="fill:rgb(140,129,212);fill-rule:nonzero;"/>
                </g>
            </g>
        </g>
    </g>
</svg>
