<?xml version="1.0" encoding="UTF-8" standalone="no"?>
<!DOCTYPE svg PUBLIC "-//W3C//DTD SVG 1.1//EN" "http://www.w3.org/Graphics/SVG/1.1/DTD/svg11.dtd">
<svg width="100%" height="100%" viewBox="0 0 356 356" version="1.1" xmlns="http://www.w3.org/2000/svg" xmlns:xlink="http://www.w3.org/1999/xlink" xml:space="preserve" xmlns:serif="http://www.serif.com/" style="fill-rule:evenodd;clip-rule:evenodd;stroke-linejoin:round;stroke-miterlimit:2;">
    <g transform="matrix(5.55556,0,0,5.55556,0,-2000)">
        <g id="Page-66" serif:id="Page 66" transform="matrix(1,0,0,1,0,360)">
            <rect x="0" y="0" width="64" height="64" style="fill:none;"/>
            <g id="Layer-1" serif:id="Layer 1">
                <g transform="matrix(0,-1,-1,0,32,0)">
                    <path d="M-32,-32C-49.673,-32 -64,-17.673 -64,0C-64,17.673 -49.673,32 -32,32C-14.327,32 0,17.673 0,0C0,-17.673 -14.327,-32 -32,-32" style="fill:rgb(118,194,175);fill-rule:nonzero;"/>
                </g>
                <g transform="matrix(1,0,0,1,26.0945,27.3729)">
                    <path d="M0,9.364C0.562,7.739 1.625,5.052 0.125,-0.136C-1.375,-5.324 -3.563,-7.351 -6.562,-7.351C-6.562,-7.351 -11.715,-7.635 -12.063,0.551C-12.446,9.601 -9.271,11.822 -8.275,16.999L-0.751,14.849C-1.018,12.612 -0.392,10.496 0,9.364" style="fill:rgb(79,93,115);fill-rule:nonzero;"/>
                </g>
                <g transform="matrix(-0.961533,0.27469,0.27469,0.961533,23.8153,57.34)">
                    <path d="M-5.722,-11.117L2.724,-11.117C3.782,-5.883 2.465,-1.061 -2.135,-0.996C-6.925,-0.927 -6.62,-7.55 -5.735,-11.053C-5.729,-11.074 -5.727,-11.095 -5.722,-11.117" style="fill:rgb(79,93,115);fill-rule:nonzero;"/>
                </g>
                <g transform="matrix(1,0,0,1,37.9055,19.3626)">
                    <path d="M0,9.364C-0.562,7.739 -1.625,5.052 -0.125,-0.136C1.375,-5.324 3.563,-7.351 6.562,-7.351C6.562,-7.351 11.715,-7.635 12.063,0.551C12.446,9.601 9.271,11.822 8.275,16.999L0.751,14.849C1.018,12.612 0.392,10.496 0,9.364" style="fill:rgb(79,93,115);fill-rule:nonzero;"/>
                </g>
                <g transform="matrix(0.961533,0.27469,0.27469,-0.961533,39.4537,36.7261)">
                    <path d="M-1.557,-0.801L6.889,-0.801C7.947,-6.035 6.63,-10.857 2.03,-10.922C-2.76,-10.991 -2.455,-4.368 -1.57,-0.865C-1.564,-0.844 -1.562,-0.823 -1.557,-0.801" style="fill:rgb(79,93,115);fill-rule:nonzero;"/>
                </g>
            </g>
        </g>
    </g>
</svg>
