<?xml version="1.0" encoding="UTF-8" standalone="no"?>
<!DOCTYPE svg PUBLIC "-//W3C//DTD SVG 1.1//EN" "http://www.w3.org/Graphics/SVG/1.1/DTD/svg11.dtd">
<svg width="100%" height="100%" viewBox="0 0 356 356" version="1.1" xmlns="http://www.w3.org/2000/svg" xmlns:xlink="http://www.w3.org/1999/xlink" xml:space="preserve" xmlns:serif="http://www.serif.com/" style="fill-rule:evenodd;clip-rule:evenodd;stroke-linejoin:round;stroke-miterlimit:2;">
    <g transform="matrix(5.55556,0,0,5.55556,-3200,0)">
        <g id="Page-9" serif:id="Page 9" transform="matrix(1,0,0,1,576,0)">
            <rect x="0" y="0" width="64" height="64" style="fill:none;"/>
            <g id="Layer-1" serif:id="Layer 1">
                <g transform="matrix(0,-1,-1,0,32,0)">
                    <path d="M-32,-32C-49.673,-32 -64,-17.673 -64,0C-64,17.673 -49.673,32 -32,32C-14.327,32 0,17.673 0,0C0,-17.673 -14.327,-32 -32,-32" style="fill:rgb(199,92,92);fill-rule:nonzero;"/>
                </g>
                <g transform="matrix(1,0,0,1,24,48.407)">
                    <path d="M0,-8.407C0,-8.957 0.644,-8.901 1.12,-9.176L7.134,-12.648C7.61,-12.923 8.39,-12.923 8.866,-12.648L14.88,-9.176C15.356,-8.901 16,-8.957 16,-8.407L16,-1.001C16,-0.451 15.356,0.493 14.88,0.768L8.866,4.241C8.39,4.516 7.61,4.516 7.134,4.241L1.12,0.768C0.644,0.493 0,-0.451 0,-1.001L0,-8.407Z" style="fill:rgb(224,224,209);fill-rule:nonzero;"/>
                </g>
                <g transform="matrix(1,0,0,1,32,11)">
                    <path d="M0,34C-9.374,34 -17,26.374 -17,17C-17,7.626 -9.374,0 0,0C9.374,0 17,7.626 17,17C17,26.374 9.374,34 0,34" style="fill:rgb(245,207,135);fill-rule:nonzero;"/>
                </g>
                <g transform="matrix(1,0,0,1,32,46)">
                    <path d="M0,-36C-9.925,-36 -18,-27.925 -18,-18C-18,-8.075 -9.925,0 0,0C9.925,0 18,-8.075 18,-18C18,-27.925 9.925,-36 0,-36M0,-34C8.837,-34 16,-26.837 16,-18C16,-9.163 8.837,-2 0,-2C-8.837,-2 -16,-9.163 -16,-18C-16,-26.837 -8.837,-34 0,-34" style="fill:rgb(199,92,92);fill-rule:nonzero;"/>
                </g>
                <g opacity="0.2">
                    <g transform="matrix(1,0,0,1,24,54.9226)">
                        <path d="M0,-8.822L0,-5.517C0,-4.967 0.644,-4.022 1.12,-3.747L7.134,-0.275C7.61,0 8.39,0 8.866,-0.275L14.88,-3.747C15.356,-4.022 16,-4.967 16,-5.517L16,-8.822C13.586,-7.618 10.876,-6.923 8,-6.923C5.124,-6.923 2.414,-7.618 0,-8.822" style="fill:rgb(35,31,32);fill-rule:nonzero;"/>
                    </g>
                </g>
                <g transform="matrix(1,0,0,1,24,52.9223)">
                    <path d="M0,-12.872L0,-5.517C0,-4.967 0.644,-4.022 1.12,-3.747L7.134,-0.275C7.61,0 8.39,0 8.866,-0.275L14.88,-3.747C15.356,-4.022 16,-4.967 16,-5.517L16,-12.872C13.586,-11.668 10.876,-10.973 8,-10.973C5.124,-10.973 2.414,-11.668 0,-12.872" style="fill:rgb(224,224,209);fill-rule:nonzero;"/>
                </g>
                <g opacity="0.2">
                    <g transform="matrix(-1,0,0,1,32,46)">
                        <path d="M0,-32C8.837,-32 16,-24.837 16,-16C16,-7.163 8.837,0 0,0C-8.837,0 -16,-7.163 -16,-16C-16,-24.837 -8.837,-32 0,-32" style="fill:rgb(35,31,32);fill-rule:nonzero;"/>
                    </g>
                </g>
                <g transform="matrix(-1,0,0,1,32,44)">
                    <path d="M0,-32C8.837,-32 16,-24.837 16,-16C16,-7.163 8.837,0 0,0C-8.837,0 -16,-7.163 -16,-16C-16,-24.837 -8.837,-32 0,-32" style="fill:rgb(245,207,135);fill-rule:nonzero;"/>
                </g>
                <g transform="matrix(1,0,0,1,27.1875,38.55)">
                    <path d="M0,-16.05C-1.605,-16.05 -2.598,-14.639 -2.598,-13.332C-2.598,-12.686 -2.367,-11.743 -1.269,-10.926C-0.517,-10.367 0.867,-9.715 3.313,-9.559L3.313,-10.55C3.356,-11.492 3.204,-14.014 2.009,-15.267C1.5,-15.801 0.862,-16.05 0,-16.05M4.812,3C3.984,3 3.313,2.329 3.313,1.5L3.313,-6.554C0.646,-6.696 -1.494,-7.355 -3.059,-8.519C-4.696,-9.737 -5.598,-11.446 -5.598,-13.332C-5.598,-16.485 -3.087,-19.05 0,-19.05C1.673,-19.05 3.123,-18.454 4.191,-17.326C6.479,-14.913 6.334,-10.917 6.311,-10.47L6.312,1.5C6.312,2.329 5.641,3 4.812,3" style="fill:white;fill-rule:nonzero;"/>
                </g>
                <g transform="matrix(1,0,0,1,36.8184,38.55)">
                    <path d="M0,-16.05C-0.865,-16.05 -1.505,-15.8 -2.014,-15.262C-3.21,-14 -3.357,-11.431 -3.314,-10.63L-3.314,-9.559C-0.868,-9.715 0.517,-10.367 1.269,-10.926C2.367,-11.743 2.598,-12.686 2.598,-13.332C2.598,-14.639 1.605,-16.05 0,-16.05M-4.812,3C-5.641,3 -6.312,2.329 -6.312,1.5L-6.312,-10.55C-6.334,-10.917 -6.479,-14.913 -4.191,-17.326C-3.123,-18.454 -1.673,-19.05 0,-19.05C3.087,-19.05 5.598,-16.485 5.598,-13.332C5.598,-11.446 4.696,-9.737 3.059,-8.519C1.493,-7.355 -0.647,-6.696 -3.314,-6.554L-3.313,1.5C-3.313,2.329 -3.984,3 -4.812,3" style="fill:white;fill-rule:nonzero;"/>
                </g>
            </g>
        </g>
    </g>
</svg>
