<?xml version="1.0" encoding="UTF-8" standalone="no"?>
<!DOCTYPE svg PUBLIC "-//W3C//DTD SVG 1.1//EN" "http://www.w3.org/Graphics/SVG/1.1/DTD/svg11.dtd">
<svg width="100%" height="100%" viewBox="0 0 356 356" version="1.1" xmlns="http://www.w3.org/2000/svg" xmlns:xlink="http://www.w3.org/1999/xlink" xml:space="preserve" xmlns:serif="http://www.serif.com/" style="fill-rule:evenodd;clip-rule:evenodd;stroke-linejoin:round;stroke-miterlimit:2;">
    <g transform="matrix(5.55556,0,0,5.55556,-3200,-400)">
        <g id="Page-22" serif:id="Page 22" transform="matrix(1,0,0,1,576,72)">
            <rect x="0" y="0" width="64" height="64" style="fill:none;"/>
            <g id="Layer-1" serif:id="Layer 1">
                <g transform="matrix(0,-1,-1,0,32,0)">
                    <path d="M-32,-32C-49.673,-32 -64,-17.673 -64,0C-64,17.673 -49.673,32 -32,32C-14.327,32 0,17.673 0,0C0,-17.673 -14.327,-32 -32,-32" style="fill:rgb(79,93,115);fill-rule:nonzero;"/>
                </g>
                <g transform="matrix(0,-1,-1,0,32,10)">
                    <path d="M-22,-22C-34.15,-22 -44,-12.15 -44,0C-44,12.15 -34.15,22 -22,22C-9.85,22 0,12.15 0,0C0,-12.15 -9.85,-22 -22,-22" style="fill:rgb(119,179,212);fill-rule:nonzero;"/>
                </g>
                <g opacity="0.2">
                    <g transform="matrix(1,0,0,1,32,56)">
                        <path d="M0,-44C-12.15,-44 -22,-34.15 -22,-22C-22,-9.85 -12.15,0 0,0C12.15,0 22,-9.85 22,-22C22,-34.15 12.15,-44 0,-44M0,-40C9.925,-40 18,-31.925 18,-22C18,-12.075 9.925,-4 0,-4C-9.925,-4 -18,-12.075 -18,-22C-18,-31.925 -9.925,-40 0,-40" style="fill:rgb(35,31,32);fill-rule:nonzero;"/>
                    </g>
                </g>
                <g transform="matrix(1,0,0,1,32,54)">
                    <path d="M0,-44C-12.15,-44 -22,-34.15 -22,-22C-22,-9.85 -12.15,0 0,0C12.15,0 22,-9.85 22,-22C22,-34.15 12.15,-44 0,-44M0,-40C9.925,-40 18,-31.925 18,-22C18,-12.075 9.925,-4 0,-4C-9.925,-4 -18,-12.075 -18,-22C-18,-31.925 -9.925,-40 0,-40" style="fill:white;fill-rule:nonzero;"/>
                </g>
                <g opacity="0.2">
                    <g transform="matrix(1,0,0,1,29.5,33.882)">
                        <path d="M0,0.118C0,1.499 1.119,2.618 2.5,2.618C3.881,2.618 5,1.499 5,0.118C5,-1.263 3.881,-2.382 2.5,-2.382C1.119,-2.382 0,-1.263 0,0.118M12.31,-7.97L9.405,-3.314L7.467,-0.209C7.475,-0.099 2.283,5.093 2.173,5.085L-0.935,7.023L-5.587,9.928C-5.79,10.056 -6.02,10.118 -6.25,10.118C-6.572,10.118 -6.893,9.993 -7.135,9.753C-7.548,9.341 -7.62,8.701 -7.31,8.208L-4.405,3.553L-2.467,0.448C-2.475,0.335 2.717,-4.857 2.827,-4.849L5.935,-6.787L10.587,-9.692C11.072,-10 11.72,-9.927 12.133,-9.515C12.548,-9.105 12.62,-8.465 12.31,-7.97" style="fill:rgb(35,31,32);fill-rule:nonzero;"/>
                    </g>
                </g>
                <g transform="matrix(1,0,0,1,29.5,31.882)">
                    <path d="M0,0.118C0,1.499 1.119,2.618 2.5,2.618C3.881,2.618 5,1.499 5,0.118C5,-1.263 3.881,-2.382 2.5,-2.382C1.119,-2.382 0,-1.263 0,0.118M12.31,-7.97L9.405,-3.314L7.467,-0.209C7.475,-0.099 2.283,5.093 2.173,5.085L-0.935,7.023L-5.587,9.928C-5.79,10.056 -6.02,10.118 -6.25,10.118C-6.572,10.118 -6.893,9.993 -7.135,9.753C-7.548,9.341 -7.62,8.701 -7.31,8.208L-4.405,3.553L-2.467,0.448C-2.475,0.335 2.717,-4.857 2.827,-4.849L5.935,-6.787L10.587,-9.692C11.072,-10 11.72,-9.927 12.133,-9.515C12.548,-9.105 12.62,-8.465 12.31,-7.97" style="fill:rgb(199,92,92);fill-rule:nonzero;"/>
                </g>
                <g opacity="0.2">
                    <g transform="matrix(0,-1,-1,0,32,29)">
                        <path d="M-5,-5C-7.761,-5 -10,-2.761 -10,0C-10,2.761 -7.761,5 -5,5C-2.239,5 0,2.761 0,0C0,-2.761 -2.239,-5 -5,-5" style="fill:rgb(35,31,32);fill-rule:nonzero;"/>
                    </g>
                </g>
                <g transform="matrix(0,-1,-1,0,32,27)">
                    <path d="M-5,-5C-7.761,-5 -10,-2.761 -10,0C-10,2.761 -7.761,5 -5,5C-2.239,5 0,2.761 0,0C0,-2.761 -2.239,-5 -5,-5" style="fill:white;fill-rule:nonzero;"/>
                </g>
            </g>
        </g>
    </g>
</svg>
