<?xml version="1.0" encoding="UTF-8" standalone="no"?>
<!DOCTYPE svg PUBLIC "-//W3C//DTD SVG 1.1//EN" "http://www.w3.org/Graphics/SVG/1.1/DTD/svg11.dtd">
<svg width="100%" height="100%" viewBox="0 0 356 356" version="1.1" xmlns="http://www.w3.org/2000/svg" xmlns:xlink="http://www.w3.org/1999/xlink" xml:space="preserve" xmlns:serif="http://www.serif.com/" style="fill-rule:evenodd;clip-rule:evenodd;stroke-linejoin:round;stroke-miterlimit:2;">
    <g transform="matrix(5.55556,0,0,5.55556,0,-1600)">
        <g id="Page-53" serif:id="Page 53" transform="matrix(1,0,0,1,0,288)">
            <rect x="0" y="0" width="64" height="64" style="fill:none;"/>
            <g id="Layer-1" serif:id="Layer 1">
                <g transform="matrix(0,-1,-1,0,32,0)">
                    <path d="M-32,-32C-49.673,-32 -64,-17.673 -64,0C-64,17.673 -49.673,32 -32,32C-14.327,32 0,17.673 0,0C0,-17.673 -14.327,-32 -32,-32" style="fill:rgb(118,194,175);fill-rule:nonzero;"/>
                </g>
                <g opacity="0.2">
                    <g transform="matrix(1,0,0,1,32,32)">
                        <path d="M0,6C-4.418,6 -8,2.418 -8,-2C-8,-6.418 -4.418,-10 0,-10C4.418,-10 8,-6.418 8,-2C8,2.418 4.418,6 0,6M0,-18C-9.389,-18 -17,-10.478 -17,-1.2C-17,13.5 0,24 0,24C0,24 17,13.763 17,-1.2C17,-10.478 9.389,-18 0,-18" style="fill:rgb(35,31,32);fill-rule:nonzero;"/>
                    </g>
                </g>
                <g transform="matrix(1,0,0,1,32,30)">
                    <path d="M0,6C-4.418,6 -8,2.418 -8,-2C-8,-6.418 -4.418,-10 0,-10C4.418,-10 8,-6.418 8,-2C8,2.418 4.418,6 0,6M0,-18C-9.389,-18 -17,-10.478 -17,-1.2C-17,13.5 0,24 0,24C0,24 17,13.763 17,-1.2C17,-10.478 9.389,-18 0,-18" style="fill:white;fill-rule:nonzero;"/>
                </g>
            </g>
        </g>
    </g>
</svg>
