<?xml version="1.0" encoding="UTF-8" standalone="no"?>
<!DOCTYPE svg PUBLIC "-//W3C//DTD SVG 1.1//EN" "http://www.w3.org/Graphics/SVG/1.1/DTD/svg11.dtd">
<svg width="100%" height="100%" viewBox="0 0 356 356" version="1.1" xmlns="http://www.w3.org/2000/svg" xmlns:xlink="http://www.w3.org/1999/xlink" xml:space="preserve" xmlns:serif="http://www.serif.com/" style="fill-rule:evenodd;clip-rule:evenodd;stroke-linejoin:round;stroke-miterlimit:2;">
    <g transform="matrix(5.55556,0,0,5.55556,-4400,-1200)">
        <g id="Page-51" serif:id="Page 51" transform="matrix(1,0,0,1,792,216)">
            <rect x="0" y="0" width="64" height="64" style="fill:none;"/>
            <g id="Layer-1" serif:id="Layer 1">
                <g transform="matrix(0,-1,-1,0,32,0)">
                    <path d="M-32,-32C-49.673,-32 -64,-17.673 -64,0C-64,17.673 -49.673,32 -32,32C-14.327,32 0,17.673 0,0C0,-17.673 -14.327,-32 -32,-32" style="fill:rgb(118,194,175);fill-rule:nonzero;"/>
                </g>
                <g opacity="0.2">
                    <g transform="matrix(1,0,0,1,42.4614,23.7175)">
                        <path d="M0,20.283C-0.671,20.283 -1.326,19.945 -1.705,19.332C-2.284,18.392 -1.992,17.16 -1.052,16.58L9.072,10.338C9.077,10.321 9.079,10.302 9.079,10.283C9.079,10.263 9.077,10.244 9.072,10.227L-1.052,3.985C-1.992,3.405 -2.284,2.173 -1.705,1.233C-1.125,0.293 0.107,0 1.048,0.58L11.678,7.134L11.843,7.299C12.64,8.096 13.079,9.155 13.079,10.283C13.079,11.409 12.64,12.469 11.843,13.265L11.678,13.431L1.048,19.985C0.721,20.187 0.358,20.283 0,20.283" style="fill:rgb(35,31,32);fill-rule:nonzero;"/>
                    </g>
                    <g transform="matrix(1,0,0,1,21.5386,23.7175)">
                        <path d="M0,20.283C-0.358,20.283 -0.721,20.187 -1.048,19.985L-11.678,13.431L-11.843,13.265C-12.64,12.469 -13.079,11.409 -13.079,10.283C-13.079,9.155 -12.64,8.096 -11.843,7.299L-11.678,7.134L-1.048,0.58C-0.107,0 1.124,0.293 1.705,1.233C2.284,2.173 1.992,3.405 1.052,3.985L-9.072,10.227C-9.077,10.244 -9.079,10.263 -9.079,10.283C-9.079,10.302 -9.077,10.321 -9.072,10.338L1.052,16.58C1.992,17.16 2.284,18.392 1.705,19.332C1.327,19.945 0.671,20.283 0,20.283" style="fill:rgb(35,31,32);fill-rule:nonzero;"/>
                    </g>
                </g>
                <g opacity="0.2">
                    <g transform="matrix(1,0,0,1,25.4995,14.7365)">
                        <path d="M0,38.264C-0.237,38.264 -0.479,38.222 -0.714,38.132C-1.746,37.737 -2.262,36.581 -1.868,35.549L11.132,1.549C11.527,0.517 12.683,0 13.715,0.395C14.747,0.79 15.263,1.946 14.869,2.978L1.869,36.978C1.564,37.775 0.805,38.264 0,38.264" style="fill:rgb(35,31,32);fill-rule:nonzero;"/>
                    </g>
                </g>
                <g transform="matrix(1,0,0,1,42.4614,21.717)">
                    <path d="M0,20.283C-0.671,20.283 -1.327,19.946 -1.705,19.333C-2.284,18.392 -1.992,17.16 -1.051,16.581L9.071,10.34C9.082,10.303 9.082,10.263 9.071,10.226L-1.051,3.985C-1.992,3.406 -2.284,2.174 -1.705,1.233C-1.125,0.293 0.106,0 1.047,0.581L11.678,7.135L11.844,7.3C13.488,8.945 13.488,11.621 11.844,13.266L11.678,13.431L1.047,19.985C0.721,20.187 0.358,20.283 0,20.283" style="fill:white;fill-rule:nonzero;"/>
                </g>
                <g transform="matrix(1,0,0,1,21.5386,21.717)">
                    <path d="M0,20.283C-0.358,20.283 -0.72,20.187 -1.047,19.985L-11.678,13.431L-11.844,13.266C-13.488,11.621 -13.488,8.945 -11.844,7.3L-11.678,7.135L-1.047,0.581C-0.108,0 1.125,0.293 1.705,1.233C2.284,2.174 1.992,3.406 1.051,3.985L-9.071,10.226C-9.082,10.263 -9.082,10.303 -9.071,10.34L1.051,16.581C1.992,17.16 2.284,18.392 1.705,19.333C1.327,19.946 0.671,20.283 0,20.283" style="fill:white;fill-rule:nonzero;"/>
                </g>
                <g transform="matrix(1,0,0,1,25.4995,12.736)">
                    <path d="M0,38.265C-0.237,38.265 -0.479,38.222 -0.714,38.132C-1.746,37.738 -2.262,36.581 -1.868,35.55L11.132,1.55C11.527,0.519 12.683,0 13.715,0.396C14.747,0.79 15.263,1.947 14.869,2.978L1.869,36.978C1.564,37.775 0.805,38.265 0,38.265" style="fill:white;fill-rule:nonzero;"/>
                </g>
            </g>
        </g>
    </g>
</svg>
