<?xml version="1.0" encoding="UTF-8" standalone="no"?>
<!DOCTYPE svg PUBLIC "-//W3C//DTD SVG 1.1//EN" "http://www.w3.org/Graphics/SVG/1.1/DTD/svg11.dtd">
<svg width="100%" height="100%" viewBox="0 0 356 356" version="1.1" xmlns="http://www.w3.org/2000/svg" xmlns:xlink="http://www.w3.org/1999/xlink" xml:space="preserve" xmlns:serif="http://www.serif.com/" style="fill-rule:evenodd;clip-rule:evenodd;stroke-linejoin:round;stroke-miterlimit:2;">
    <g transform="matrix(5.55556,0,0,5.55556,-4800,-1600)">
        <g id="Page-65" serif:id="Page 65" transform="matrix(1,0,0,1,864,288)">
            <rect x="0" y="0" width="64" height="64" style="fill:none;"/>
            <g id="Layer-1" serif:id="Layer 1">
                <g transform="matrix(0,-1,-1,0,32,0)">
                    <path d="M-32,-32C-49.673,-32 -64,-17.673 -64,0C-64,17.673 -49.673,32 -32,32C-14.327,32 0,17.673 0,0C0,-17.673 -14.327,-32 -32,-32" style="fill:rgb(79,93,115);fill-rule:nonzero;"/>
                </g>
                <g opacity="0.2">
                    <g transform="matrix(1,0,0,1,49.4493,22.3343)">
                        <path d="M0,23.332C-1.532,22.493 -3.238,21.784 -5.058,21.196C-4.452,18.709 -4.077,16.004 -3.978,13.166L3.475,13.166C3.208,16.907 1.977,20.385 0,23.332M-9.537,31.106C-8.073,29.219 -6.828,26.827 -5.89,24.067C-4.46,24.535 -3.122,25.089 -1.897,25.727C-3.997,28.047 -6.595,29.904 -9.537,31.106M-33.009,25.719C-31.782,25.082 -30.442,24.528 -29.011,24.061C-28.072,26.823 -26.827,29.218 -25.362,31.106C-28.307,29.903 -30.908,28.043 -33.009,25.719M-30.92,13.166C-30.822,16.002 -30.447,18.704 -29.842,21.189C-31.663,21.777 -33.37,22.484 -34.904,23.323C-36.878,20.377 -38.107,16.903 -38.373,13.166L-30.92,13.166ZM-34.968,0.114C-33.427,0.963 -31.712,1.683 -29.877,2.278C-30.462,4.725 -30.824,7.382 -30.92,10.166L-38.373,10.166C-38.11,6.471 -36.902,3.037 -34.968,0.114M-25.362,-7.774C-26.85,-5.856 -28.11,-3.414 -29.054,-0.597C-30.504,-1.072 -31.861,-1.637 -33.1,-2.288C-30.983,-4.659 -28.349,-6.554 -25.362,-7.774M-1.799,-2.287C-3.038,-1.637 -4.395,-1.072 -5.845,-0.597C-6.789,-3.414 -8.048,-5.856 -9.537,-7.774C-6.549,-6.554 -3.915,-4.659 -1.799,-2.287M-15.949,10.166L-15.949,4.119C-13.16,4.024 -10.454,3.669 -7.913,3.075C-7.389,5.298 -7.081,7.689 -6.99,10.166L-15.949,10.166ZM-15.949,19.362L-15.949,13.166L-6.99,13.166C-7.083,15.697 -7.406,18.135 -7.951,20.4C-10.481,19.81 -13.174,19.457 -15.949,19.362M-15.949,32.398L-15.949,22.361C-13.461,22.452 -11.055,22.763 -8.798,23.276C-9.285,24.671 -9.853,25.983 -10.518,27.165C-12.083,29.947 -14.002,31.764 -15.949,32.398M-18.949,22.361L-18.949,32.398C-20.897,31.764 -22.816,29.947 -24.381,27.165C-25.047,25.982 -25.615,24.668 -26.102,23.272C-23.844,22.76 -21.437,22.45 -18.949,22.361M-18.949,13.166L-18.949,19.362C-21.725,19.455 -24.418,19.807 -26.949,20.395C-27.493,18.132 -27.816,15.695 -27.909,13.166L-18.949,13.166ZM-18.949,4.119L-18.949,10.166L-27.909,10.166C-27.818,7.689 -27.51,5.298 -26.985,3.075C-24.445,3.669 -21.739,4.024 -18.949,4.119M-18.949,-9.067L-18.949,1.12C-21.455,1.029 -23.877,0.715 -26.148,0.196C-25.651,-1.251 -25.068,-2.612 -24.381,-3.834C-22.816,-6.615 -20.897,-8.432 -18.949,-9.067M-10.518,-3.834C-9.831,-2.612 -9.248,-1.251 -8.751,0.196C-11.022,0.715 -13.444,1.029 -15.949,1.12L-15.949,-9.067C-14.002,-8.432 -12.083,-6.615 -10.518,-3.834M-3.978,10.166C-4.075,7.382 -4.436,4.725 -5.022,2.278C-3.187,1.683 -1.472,0.963 0.069,0.113C2.004,3.037 3.212,6.471 3.475,10.166L-3.978,10.166ZM6.499,10.166C5.755,-1.893 -3.89,-11.539 -15.949,-12.283L-15.949,-12.334L-18.949,-12.334L-18.949,-12.283C-31.008,-11.539 -40.654,-1.893 -41.398,10.166L-41.449,10.166L-41.449,13.166L-41.398,13.166C-40.654,25.225 -31.008,34.87 -18.949,35.614L-18.949,35.666L-15.949,35.666L-15.949,35.614C-3.89,34.87 5.755,25.225 6.499,13.166L6.551,13.166L6.551,10.166L6.499,10.166Z" style="fill:rgb(35,31,32);fill-rule:nonzero;"/>
                    </g>
                </g>
                <g transform="matrix(1,0,0,1,32,56)">
                    <path d="M0,-48C-13.255,-48 -24,-37.255 -24,-24C-24,-10.745 -13.255,0 0,0C13.255,0 24,-10.745 24,-24C24,-37.255 13.255,-48 0,-48M0,-45C11.579,-45 21,-35.579 21,-24C21,-12.421 11.579,-3 0,-3C-11.579,-3 -21,-12.421 -21,-24C-21,-35.579 -11.579,-45 0,-45" style="fill:white;fill-rule:nonzero;"/>
                </g>
                <g transform="matrix(1,0,0,1,32,56)">
                    <path d="M0,-48C-7.456,-48 -13.5,-37.255 -13.5,-24C-13.5,-10.745 -7.456,0 0,0C7.456,0 13.5,-10.745 13.5,-24C13.5,-37.255 7.456,-48 0,-48M0,-45C2.439,-45 4.965,-42.995 6.931,-39.5C9.233,-35.408 10.5,-29.904 10.5,-24C10.5,-18.096 9.233,-12.592 6.931,-8.5C4.965,-5.005 2.439,-3 0,-3C-2.439,-3 -4.965,-5.005 -6.931,-8.5C-9.233,-12.592 -10.5,-18.096 -10.5,-24C-10.5,-29.904 -9.233,-35.408 -6.931,-39.5C-4.965,-42.995 -2.439,-45 0,-45" style="fill:white;fill-rule:nonzero;"/>
                </g>
                <g transform="matrix(-1,0,0,1,64,0)">
                    <rect x="30.5" y="8" width="3" height="48" style="fill:white;"/>
                </g>
                <g transform="matrix(1,0,0,1,32,16.905)">
                    <path d="M0,7.595C-7.425,7.595 -14.447,5.734 -19.266,2.489L-17.59,0C-13.254,2.92 -6.843,4.595 0,4.595C6.836,4.595 13.244,2.923 17.58,0.007L19.254,2.497C14.436,5.737 7.418,7.595 0,7.595" style="fill:white;fill-rule:nonzero;"/>
                </g>
                <g transform="matrix(1,0,0,1,49.5791,39.6491)">
                    <path d="M0,7.595C-4.336,4.675 -10.747,3 -17.59,3C-24.427,3 -30.834,4.673 -35.17,7.589L-36.844,5.099C-32.026,1.859 -25.008,0 -17.59,0C-10.165,0 -3.143,1.862 1.676,5.107L0,7.595Z" style="fill:white;fill-rule:nonzero;"/>
                </g>
                <g transform="matrix(-1,0,0,1,64,0)">
                    <rect x="8" y="30.5" width="48" height="3" style="fill:white;"/>
                </g>
            </g>
        </g>
    </g>
</svg>
