<?xml version="1.0" encoding="UTF-8" standalone="no"?>
<!DOCTYPE svg PUBLIC "-//W3C//DTD SVG 1.1//EN" "http://www.w3.org/Graphics/SVG/1.1/DTD/svg11.dtd">
<svg width="100%" height="100%" viewBox="0 0 356 356" version="1.1" xmlns="http://www.w3.org/2000/svg" xmlns:xlink="http://www.w3.org/1999/xlink" xml:space="preserve" xmlns:serif="http://www.serif.com/" style="fill-rule:evenodd;clip-rule:evenodd;stroke-linejoin:round;stroke-miterlimit:2;">
    <g transform="matrix(5.55556,0,0,5.55556,-4000,-2400)">
        <g id="Page-89" serif:id="Page 89" transform="matrix(1,0,0,1,720,432)">
            <rect x="0" y="0" width="64" height="64" style="fill:none;"/>
            <clipPath id="_clip1">
                <rect x="0" y="0" width="64" height="64"/>
            </clipPath>
            <g clip-path="url(#_clip1)">
                <g id="Layer-1" serif:id="Layer 1">
                    <g transform="matrix(0,-1,-1,0,32,-0.366)">
                        <path d="M-32,-32C-49.673,-32 -64,-17.673 -64,0C-64,17.673 -49.673,32 -32,32C-14.327,32 0,17.673 0,0C0,-17.673 -14.327,-32 -32,-32" style="fill:rgb(224,224,209);fill-rule:nonzero;"/>
                    </g>
                    <g opacity="0.2">
                        <g transform="matrix(1,0,0,1,24.3492,41.719)">
                            <path d="M2.155,-0.719L-2.304,-0.719L-0.074,-4.58C0.753,-6.013 0.263,-7.845 -1.168,-8.675L-1.178,-8.681L-7.218,-12.166L-7.253,-12.187C-8.685,-13 -10.507,-12.509 -11.332,-11.08L-11.333,-11.08L-14.759,-5.146C-15.584,-3.717 -15.584,-1.378 -14.759,0.051L-9.198,9.683C-8.78,10.406 -8.055,11.061 -7.226,11.533C-7.195,11.551 -7.161,11.564 -7.13,11.582C-6.346,12.012 -5.481,12.281 -4.698,12.281L2.152,12.281L6.153,5.448L2.155,-0.719Z" style="fill:rgb(35,31,32);fill-rule:nonzero;"/>
                        </g>
                    </g>
                    <g opacity="0.2">
                        <g transform="matrix(1,0,0,1,54.4095,48.0185)">
                            <path d="M0,-11.445L-3.425,-17.426L-11.343,-17.426L-14.685,-10.88L-13.607,-9.014L-12.455,-7.018L-16.914,-7.018C-18.569,-7.018 -19.91,-5.679 -19.913,-4.025L-19.913,-4.012L-19.912,2.961L-19.912,3.002C-19.9,4.649 -18.564,5.981 -16.914,5.981L-10.061,5.981C-8.411,5.981 -6.386,4.812 -5.561,3.383L0,-6.249C0.418,-6.972 0.622,-7.928 0.617,-8.882C0.612,-9.812 0.407,-10.739 0,-11.445" style="fill:rgb(35,31,32);fill-rule:nonzero;"/>
                        </g>
                    </g>
                    <g opacity="0.2">
                        <g transform="matrix(1,0,0,1,38.3174,13.4095)">
                            <path d="M0,15.309L0.011,15.303L6.049,11.815L6.084,11.795C7.505,10.961 7.991,9.138 7.166,7.709L7.166,7.708L3.74,1.774C2.914,0.345 0.89,-0.824 -0.76,-0.824L-11.883,-0.824C-12.718,-0.824 -13.648,-0.523 -14.471,-0.042C-14.503,-0.024 -14.531,-0.001 -14.561,0.017C-15.325,0.481 -15.991,1.096 -16.383,1.774L-19.85,7.731L-15.891,14.588L-8.551,14.588L-6.322,10.348L-6.322,10.347L-4.092,14.209C-3.265,15.642 -1.434,16.133 0,15.309" style="fill:rgb(35,31,32);fill-rule:nonzero;"/>
                        </g>
                    </g>
                    <g transform="matrix(1,0,0,1,22.0455,52)">
                        <path d="M0,-13L-4.999,-4.342C-4.999,-4.342 -5.764,-3.052 -5.691,-1.964C-5.658,-1.47 -5.452,-1.018 -4.923,-0.748C-4.115,-0.287 -3.209,0 -2.394,0L4.456,0L8.457,-6.833L4.458,-13L0,-13Z" style="fill:rgb(79,93,115);fill-rule:nonzero;"/>
                    </g>
                    <g transform="matrix(1,0,0,1,16.3542,27.9357)">
                        <path d="M0,22.1C-0.073,21.013 0.693,19.722 0.693,19.722L5.691,11.064L7.921,7.203C8.748,5.77 8.258,3.939 6.827,3.109L6.817,3.103L0.777,-0.383L0.742,-0.403C-0.69,-1.217 -2.512,-0.726 -3.337,0.703L-3.338,0.704L-6.764,6.638C-7.589,8.067 -7.589,10.405 -6.764,11.834L-1.203,21.466C-0.785,22.189 -0.06,22.845 0.769,23.317C0.239,23.047 0.033,22.594 0,22.1" style="fill:rgb(118,194,175);fill-rule:nonzero;"/>
                    </g>
                    <g opacity="0.2">
                        <g transform="matrix(1,0,0,1,22.0455,51.301)">
                            <path d="M0,-12.301L-4.999,-3.643C-4.999,-3.643 -5.764,-2.353 -5.691,-1.265C-5.658,-0.771 -5.452,-0.319 -4.923,-0.049C-4.891,-0.031 -4.858,-0.018 -4.826,0L2.304,-12.301L0,-12.301Z" style="fill:rgb(35,31,32);fill-rule:nonzero;"/>
                        </g>
                    </g>
                    <g transform="matrix(1,0,0,1,41.9541,28.611)">
                        <path d="M0,10.389L9.997,10.389C9.997,10.389 11.497,10.407 12.403,9.8C12.814,9.524 13.103,9.12 13.072,8.526C13.067,7.596 12.863,6.668 12.455,5.962L9.03,-0.018L1.112,-0.018L-2.229,6.528L0,10.389Z" style="fill:rgb(79,93,115);fill-rule:nonzero;"/>
                    </g>
                    <g transform="matrix(1,0,0,1,54.3569,50.726)">
                        <path d="M0,-12.315C-0.906,-11.708 -2.406,-11.726 -2.406,-11.726L-16.861,-11.726C-18.516,-11.726 -19.857,-10.386 -19.861,-8.732L-19.861,-8.72L-19.859,-1.746L-19.859,-1.706C-19.848,-0.059 -18.511,1.274 -16.862,1.274L-10.009,1.274C-8.359,1.274 -6.334,0.105 -5.509,-1.324L0.053,-10.956C0.47,-11.68 0.675,-12.636 0.669,-13.589C0.7,-12.995 0.412,-12.591 0,-12.315" style="fill:rgb(118,194,175);fill-rule:nonzero;"/>
                    </g>
                    <g opacity="0.2">
                        <g transform="matrix(1,0,0,1,41.9541,37.023)">
                            <path d="M0,1.977L9.997,1.977C9.997,1.977 11.497,1.995 12.403,1.388C12.814,1.112 13.103,0.708 13.072,0.114C13.072,0.078 13.067,0.042 13.066,0.006L-1.152,-0.018L0,1.977Z" style="fill:rgb(35,31,32);fill-rule:nonzero;"/>
                        </g>
                    </g>
                    <g transform="matrix(1,0,0,1,31.9957,15.285)">
                        <path d="M0,6.472L-4.999,-2.186C-4.999,-2.186 -5.733,-3.494 -6.711,-3.975C-7.156,-4.193 -7.651,-4.241 -8.15,-3.917C-8.953,-3.448 -9.654,-2.807 -10.061,-2.101L-13.528,3.855L-9.569,10.713L-2.229,10.713L0,6.472Z" style="fill:rgb(79,93,115);fill-rule:nonzero;"/>
                    </g>
                    <g transform="matrix(1,0,0,1,25.2842,26.8173)">
                        <path d="M0,-15.507C0.978,-15.026 1.713,-13.718 1.713,-13.718L6.711,-5.06L8.941,-1.199C9.768,0.234 11.599,0.725 13.033,-0.099L13.044,-0.105L19.082,-3.593L19.118,-3.613C20.538,-4.446 21.024,-6.27 20.199,-7.699L20.199,-7.7L16.773,-13.634C15.948,-15.063 13.923,-16.232 12.273,-16.232L1.15,-16.232C0.315,-16.232 -0.615,-15.931 -1.438,-15.45C-0.939,-15.773 -0.445,-15.726 0,-15.507" style="fill:rgb(118,194,175);fill-rule:nonzero;"/>
                    </g>
                    <g opacity="0.2">
                        <g transform="matrix(1,0,0,1,31.9957,13.039)">
                            <path d="M0,8.718L-4.999,0.06C-4.999,0.06 -5.733,-1.248 -6.711,-1.729C-7.156,-1.947 -7.651,-1.995 -8.15,-1.671C-8.181,-1.653 -8.209,-1.631 -8.24,-1.612L-1.152,10.713L0,8.718Z" style="fill:rgb(35,31,32);fill-rule:nonzero;"/>
                        </g>
                    </g>
                </g>
            </g>
        </g>
    </g>
</svg>
