<?xml version="1.0" encoding="UTF-8" standalone="no"?>
<!DOCTYPE svg PUBLIC "-//W3C//DTD SVG 1.1//EN" "http://www.w3.org/Graphics/SVG/1.1/DTD/svg11.dtd">
<svg width="100%" height="100%" viewBox="0 0 356 356" version="1.1" xmlns="http://www.w3.org/2000/svg" xmlns:xlink="http://www.w3.org/1999/xlink" xml:space="preserve" xmlns:serif="http://www.serif.com/" style="fill-rule:evenodd;clip-rule:evenodd;stroke-linejoin:round;stroke-miterlimit:2;">
    <g transform="matrix(5.55556,0,0,5.55556,-400,-2400)">
        <g id="Page-80" serif:id="Page 80" transform="matrix(1,0,0,1,72,432)">
            <rect x="0" y="0" width="64" height="64" style="fill:none;"/>
            <g id="Layer-1" serif:id="Layer 1">
                <g transform="matrix(0,-1,-1,0,32,0)">
                    <path d="M-32,-32C-49.673,-32 -64,-17.673 -64,0C-64,17.673 -49.673,32 -32,32C-14.327,32 0,17.673 0,0C0,-17.673 -14.327,-32 -32,-32" style="fill:rgb(199,92,92);fill-rule:nonzero;"/>
                </g>
                <g opacity="0.2">
                    <g transform="matrix(1,0,0,1,52,22)">
                        <path d="M0,28C0,30.209 -1.791,32 -4,32L-36,32C-38.209,32 -40,30.209 -40,28L-40,0C-40,-2.209 -38.209,-4 -36,-4L-4,-4C-1.791,-4 0,-2.209 0,0L0,28Z" style="fill:rgb(35,31,32);fill-rule:nonzero;"/>
                    </g>
                </g>
                <g transform="matrix(1,0,0,1,52,20)">
                    <path d="M0,28C0,30.209 -1.791,32 -4,32L-36,32C-38.209,32 -40,30.209 -40,28L-40,0C-40,-2.209 -38.209,-4 -36,-4L-4,-4C-1.791,-4 0,-2.209 0,0L0,28Z" style="fill:rgb(224,224,209);fill-rule:nonzero;"/>
                </g>
                <g opacity="0.2">
                    <g transform="matrix(1,0,0,1,52,18)">
                        <path d="M0,28C0,30.209 -1.791,32 -4,32L-36,32C-38.209,32 -40,30.209 -40,28L-40,0C-40,-2.209 -38.209,-4 -36,-4L-4,-4C-1.791,-4 0,-2.209 0,0L0,28Z" style="fill:rgb(35,31,32);fill-rule:nonzero;"/>
                    </g>
                </g>
                <g transform="matrix(1,0,0,1,52,16)">
                    <path d="M0,28C0,30.209 -1.791,32 -4,32L-36,32C-38.209,32 -40,30.209 -40,28L-40,0C-40,-2.209 -38.209,-4 -36,-4L-4,-4C-1.791,-4 0,-2.209 0,0L0,28Z" style="fill:rgb(224,224,209);fill-rule:nonzero;"/>
                </g>
                <g transform="matrix(-1,0,0,1,44,-4)">
                    <rect x="16" y="28" width="12" height="12" style="fill:rgb(79,93,115);"/>
                </g>
                <g transform="matrix(-1,0,0,1,84,-9)">
                    <rect x="36" y="36" width="12" height="1" style="fill:rgb(79,93,115);"/>
                </g>
                <g transform="matrix(-1,0,0,1,84,-13)">
                    <rect x="36" y="38" width="12" height="1" style="fill:rgb(79,93,115);"/>
                </g>
                <g transform="matrix(-1,0,0,1,67,-12)">
                    <rect x="32" y="36" width="3" height="4" style="fill:rgb(79,93,115);"/>
                </g>
                <g transform="matrix(-1,0,0,1,80,-3)">
                    <rect x="32" y="33" width="16" height="1" style="fill:rgb(79,93,115);"/>
                </g>
                <g transform="matrix(-1,0,0,1,80,1)">
                    <rect x="32" y="31" width="16" height="1" style="fill:rgb(79,93,115);"/>
                </g>
                <g transform="matrix(-1,0,0,1,80,5)">
                    <rect x="32" y="29" width="16" height="1" style="fill:rgb(79,93,115);"/>
                </g>
                <g transform="matrix(-1,0,0,1,80,9)">
                    <rect x="32" y="27" width="16" height="1" style="fill:rgb(79,93,115);"/>
                </g>
                <g transform="matrix(-1,0,0,1,83.875,15)">
                    <rect x="35.875" y="24" width="12.125" height="1" style="fill:rgb(79,93,115);"/>
                </g>
                <g transform="matrix(-1,0,0,1,44,15)">
                    <rect x="16" y="24" width="12" height="1" style="fill:rgb(79,93,115);"/>
                </g>
                <g transform="matrix(-1,0,0,1,44,19)">
                    <rect x="16" y="22" width="12" height="1" style="fill:rgb(79,93,115);"/>
                </g>
                <g transform="matrix(-1,0,0,1,44,23)">
                    <rect x="16" y="20" width="12" height="1" style="fill:rgb(79,93,115);"/>
                </g>
                <g transform="matrix(-1,0,0,1,44,27)">
                    <rect x="16" y="18" width="12" height="1" style="fill:rgb(79,93,115);"/>
                </g>
                <g transform="matrix(-1,0,0,1,80,19)">
                    <rect x="32" y="22" width="16" height="1" style="fill:rgb(79,93,115);"/>
                </g>
                <g transform="matrix(-1,0,0,1,80,23)">
                    <rect x="32" y="20" width="16" height="1" style="fill:rgb(79,93,115);"/>
                </g>
                <g transform="matrix(-1,0,0,1,80,27)">
                    <rect x="32" y="18" width="16" height="1" style="fill:rgb(79,93,115);"/>
                </g>
                <g transform="matrix(0,-1,-1,0,24,26)">
                    <path d="M-2,-2C-3.105,-2 -4,-1.105 -4,0C-4,1.105 -3.105,2 -2,2C-0.895,2 0,1.105 0,0C0,-1.105 -0.895,-2 -2,-2" style="fill:rgb(224,224,209);fill-rule:nonzero;"/>
                </g>
                <g transform="matrix(-1,0,0,1,64,-28)">
                    <rect x="16" y="44" width="32" height="4" style="fill:rgb(79,93,115);"/>
                </g>
                <g transform="matrix(1,0,0,1,27,29.757)">
                    <path d="M0,5.243L0,2.829L-0.785,2.048C-1.272,1.565 -2.061,1.565 -2.548,2.048L-3.392,2.887L-5.32,0.971C-6.296,0 -7.879,0 -8.855,0.971L-10,2.108L-10,5.243L0,5.243Z" style="fill:rgb(224,224,209);fill-rule:nonzero;"/>
                </g>
            </g>
        </g>
    </g>
</svg>
