<?xml version="1.0" encoding="UTF-8" standalone="no"?>
<!DOCTYPE svg PUBLIC "-//W3C//DTD SVG 1.1//EN" "http://www.w3.org/Graphics/SVG/1.1/DTD/svg11.dtd">
<svg width="100%" height="100%" viewBox="0 0 356 356" version="1.1" xmlns="http://www.w3.org/2000/svg" xmlns:xlink="http://www.w3.org/1999/xlink" xml:space="preserve" xmlns:serif="http://www.serif.com/" style="fill-rule:evenodd;clip-rule:evenodd;stroke-linejoin:round;stroke-miterlimit:2;">
    <g transform="matrix(5.55556,0,0,5.55556,-4400,-800)">
        <g id="Page-38" serif:id="Page 38" transform="matrix(1,0,0,1,792,144)">
            <rect x="0" y="0" width="64" height="64" style="fill:none;"/>
            <g id="Layer-1" serif:id="Layer 1">
                <g transform="matrix(0,-1,-1,0,32,0)">
                    <path d="M-32,-32C-49.673,-32 -64,-17.673 -64,0C-64,17.673 -49.673,32 -32,32C-14.327,32 0,17.673 0,0C0,-17.673 -14.327,-32 -32,-32" style="fill:rgb(224,224,209);fill-rule:nonzero;"/>
                </g>
                <g opacity="0.2">
                    <g transform="matrix(1,0,0,1,46,25)">
                        <path d="M0,20C0,22.209 -1.791,24 -4,24L-24,24C-26.209,24 -28,22.209 -28,20L-28,0C-28,-2.209 -26.209,-4 -24,-4L-4,-4C-1.791,-4 0,-2.209 0,0L0,20Z" style="fill:rgb(35,31,32);fill-rule:nonzero;"/>
                    </g>
                </g>
                <g transform="matrix(1,0,0,1,22,21)">
                    <path d="M0,24C-1.103,24 -2,23.103 -2,22L-2,2C-2,0.897 -1.103,0 0,0L20,0C21.103,0 22,0.897 22,2L22,22C22,23.103 21.103,24 20,24L0,24Z" style="fill:white;fill-rule:nonzero;"/>
                </g>
                <g transform="matrix(1,0,0,1,42,47)">
                    <path d="M0,-28L-20,-28C-22.209,-28 -24,-26.209 -24,-24L-24,-4C-24,-1.791 -22.209,0 -20,0L0,0C2.209,0 4,-1.791 4,-4L4,-24C4,-26.209 2.209,-28 0,-28M0,-4L-20,-4L-20,-24L0,-24L0,-4Z" style="fill:rgb(79,93,115);fill-rule:nonzero;"/>
                </g>
                <g opacity="0.2">
                    <g transform="matrix(1,0,0,1,46.998,18.3388)">
                        <path d="M0,33.043C-0.661,33.043 -1.308,32.716 -1.688,32.118C-13.521,13.552 -32.658,4.174 -32.851,4.081C-33.845,3.602 -34.263,2.406 -33.784,1.412C-33.306,0.417 -32.111,0 -31.116,0.477C-30.291,0.873 -10.779,10.41 1.685,29.968C2.278,30.899 2.005,32.136 1.073,32.73C0.74,32.941 0.367,33.043 0,33.043" style="fill:rgb(35,31,32);fill-rule:nonzero;"/>
                    </g>
                </g>
                <g transform="matrix(1,0,0,1,46.998,16.3378)">
                    <path d="M0,33.044C-0.661,33.044 -1.307,32.717 -1.688,32.119C-13.52,13.553 -32.658,4.175 -32.85,4.082C-33.845,3.603 -34.263,2.407 -33.784,1.413C-33.305,0.419 -32.113,0 -31.116,0.478C-30.292,0.874 -10.779,10.411 1.685,29.969C2.278,30.9 2.004,32.137 1.073,32.731C0.74,32.942 0.368,33.044 0,33.044" style="fill:rgb(199,92,92);fill-rule:nonzero;"/>
                </g>
                <g opacity="0.2">
                    <g transform="matrix(1,0,0,1,17.6172,15.8589)">
                        <path d="M0,36.188C-0.46,36.188 -0.922,36.031 -1.299,35.709C-2.139,34.99 -2.237,33.728 -1.52,32.888C-1.361,32.704 14.412,14.277 27.321,0.824C28.086,0.027 29.354,0 30.149,0.765C30.946,1.53 30.973,2.796 30.208,3.593C17.378,16.962 1.678,35.304 1.521,35.488C1.125,35.951 0.564,36.188 0,36.188" style="fill:rgb(35,31,32);fill-rule:nonzero;"/>
                    </g>
                </g>
                <g transform="matrix(1,0,0,1,17.6172,13.8589)">
                    <path d="M0,36.188C-0.46,36.188 -0.922,36.031 -1.299,35.709C-2.138,34.99 -2.237,33.728 -1.519,32.888C-1.361,32.704 14.412,14.277 27.322,0.824C28.085,0.027 29.352,0 30.149,0.765C30.946,1.53 30.973,2.796 30.208,3.593C17.378,16.962 1.678,35.304 1.521,35.488C1.125,35.951 0.564,36.188 0,36.188" style="fill:rgb(199,92,92);fill-rule:nonzero;"/>
                </g>
            </g>
        </g>
    </g>
</svg>
