<?xml version="1.0" encoding="UTF-8" standalone="no"?>
<!DOCTYPE svg PUBLIC "-//W3C//DTD SVG 1.1//EN" "http://www.w3.org/Graphics/SVG/1.1/DTD/svg11.dtd">
<svg width="100%" height="100%" viewBox="0 0 356 356" version="1.1" xmlns="http://www.w3.org/2000/svg" xmlns:xlink="http://www.w3.org/1999/xlink" xml:space="preserve" xmlns:serif="http://www.serif.com/" style="fill-rule:evenodd;clip-rule:evenodd;stroke-linejoin:round;stroke-miterlimit:2;">
    <g transform="matrix(5.55556,0,0,5.55556,-3600,-1600)">
        <g id="Page-62" serif:id="Page 62" transform="matrix(1,0,0,1,648,288)">
            <rect x="0" y="0" width="64" height="64" style="fill:none;"/>
            <g id="Layer-1" serif:id="Layer 1">
                <g transform="matrix(0,-1,-1,0,32,0)">
                    <path d="M-32,-32C-49.673,-32 -64,-17.673 -64,0C-64,17.673 -49.673,32 -32,32C-14.327,32 0,17.673 0,0C0,-17.673 -14.327,-32 -32,-32" style="fill:rgb(119,179,212);fill-rule:nonzero;"/>
                </g>
                <g opacity="0.2">
                    <g transform="matrix(0,-1,-1,0,32,14)">
                        <path d="M-20,-20C-31.046,-20 -40,-11.046 -40,0C-40,11.046 -31.046,20 -20,20C-8.954,20 0,11.046 0,0C0,-11.046 -8.954,-20 -20,-20" style="fill:rgb(35,31,32);fill-rule:nonzero;"/>
                    </g>
                </g>
                <g transform="matrix(0,-1,-1,0,32,12)">
                    <path d="M-20,-20C-31.046,-20 -40,-11.046 -40,0C-40,11.046 -31.046,20 -20,20C-8.954,20 0,11.046 0,0C0,-11.046 -8.954,-20 -20,-20" style="fill:white;fill-rule:nonzero;"/>
                </g>
                <g transform="matrix(0,-1,-1,0,32,20)">
                    <path d="M-12,-12C-18.627,-12 -24,-6.627 -24,0C-24,6.627 -18.627,12 -12,12C-5.373,12 0,6.627 0,0C0,-6.627 -5.373,-12 -12,-12" style="fill:rgb(118,194,175);fill-rule:nonzero;"/>
                </g>
                <g transform="matrix(0,-1,-1,0,32,28)">
                    <path d="M-4,-4C-6.209,-4 -8,-2.209 -8,0C-8,2.209 -6.209,4 -4,4C-1.791,4 0,2.209 0,0C0,-2.209 -1.791,-4 -4,-4" style="fill:rgb(79,93,115);fill-rule:nonzero;"/>
                </g>
                <g transform="matrix(0,-1,-1,0,34,28)">
                    <path d="M-2,-2C-3.105,-2 -4,-1.105 -4,0C-4,1.105 -3.105,2 -2,2C-0.895,2 0,1.105 0,0C0,-1.105 -0.895,-2 -2,-2" style="fill:white;fill-rule:nonzero;"/>
                </g>
                <g transform="matrix(0,-1,-1,0,40,20)">
                    <path d="M-4,-4C-6.209,-4 -8,-2.209 -8,0C-8,2.209 -6.209,4 -4,4C-1.791,4 0,2.209 0,0C0,-2.209 -1.791,-4 -4,-4" style="fill:white;fill-rule:nonzero;"/>
                </g>
            </g>
        </g>
    </g>
</svg>
