<?xml version="1.0" encoding="UTF-8" standalone="no"?>
<!DOCTYPE svg PUBLIC "-//W3C//DTD SVG 1.1//EN" "http://www.w3.org/Graphics/SVG/1.1/DTD/svg11.dtd">
<svg width="100%" height="100%" viewBox="0 0 356 356" version="1.1" xmlns="http://www.w3.org/2000/svg" xmlns:xlink="http://www.w3.org/1999/xlink" xml:space="preserve" xmlns:serif="http://www.serif.com/" style="fill-rule:evenodd;clip-rule:evenodd;stroke-linejoin:round;stroke-miterlimit:2;">
    <g transform="matrix(5.55556,0,0,5.55556,-3600,-1200)">
        <g id="Page-49" serif:id="Page 49" transform="matrix(1,0,0,1,648,216)">
            <rect x="0" y="0" width="64" height="64" style="fill:none;"/>
            <g id="Layer-1" serif:id="Layer 1">
                <g transform="matrix(0,-1,-1,0,32,0)">
                    <path d="M-32,-32C-49.673,-32 -64,-17.673 -64,0C-64,17.673 -49.673,32 -32,32C-14.327,32 0,17.673 0,0C0,-17.673 -14.327,-32 -32,-32" style="fill:rgb(79,93,115);fill-rule:nonzero;"/>
                </g>
                <g opacity="0.2">
                    <g transform="matrix(1,0,0,1,43.9048,20.457)">
                        <path d="M0,27.086C-3.821,25.426 -5.217,22.844 -5.643,20.617C-2.891,18.403 -0.699,14.861 0.505,11.045C1.744,9.465 2.466,7.819 2.466,6.424C2.466,5.469 2.119,4.779 1.511,4.266C1.308,-3.839 -4.43,-10.347 -11.527,-10.447C-11.583,-10.448 -11.637,-10.457 -11.692,-10.457C-11.714,-10.457 -11.735,-10.453 -11.757,-10.453C-18.809,-10.414 -24.539,-4.043 -24.882,3.955C-25.766,4.484 -26.276,5.26 -26.276,6.424C-26.276,8.065 -25.283,10.054 -23.613,11.872C-22.425,15.199 -20.495,18.252 -18.112,20.31C-18.467,22.602 -19.812,25.349 -23.81,27.086C-25.968,28.024 -29.915,28.867 -31.617,29.735C-27.255,34.504 -18.993,37.505 -12.029,37.54L-11.93,37.542C-11.921,37.542 -11.913,37.543 -11.905,37.543C-4.891,37.543 3.42,34.533 7.808,29.735C6.105,28.867 2.159,28.024 0,27.086" style="fill:rgb(35,31,32);fill-rule:nonzero;"/>
                    </g>
                </g>
                <g transform="matrix(1,0,0,1,43.9048,18.457)">
                    <path d="M0,27.086C-3.821,25.426 -5.217,22.844 -5.643,20.617C-2.891,18.403 -0.699,14.861 0.505,11.045C1.744,9.465 2.466,7.819 2.466,6.424C2.466,5.469 2.119,4.779 1.511,4.266C1.308,-3.839 -4.43,-10.347 -11.527,-10.447C-11.583,-10.448 -11.637,-10.457 -11.692,-10.457C-11.714,-10.457 -11.735,-10.453 -11.757,-10.453C-18.809,-10.414 -24.539,-4.043 -24.882,3.955C-25.766,4.484 -26.276,5.26 -26.276,6.424C-26.276,8.065 -25.283,10.054 -23.613,11.872C-22.425,15.199 -20.495,18.252 -18.112,20.31C-18.467,22.602 -19.812,25.349 -23.81,27.086C-25.968,28.024 -29.915,28.867 -31.617,29.735C-27.255,34.504 -18.993,37.505 -12.029,37.54L-11.93,37.542C-11.921,37.542 -11.913,37.543 -11.905,37.543C-4.891,37.543 3.42,34.533 7.808,29.735C6.105,28.867 2.159,28.024 0,27.086" style="fill:white;fill-rule:nonzero;"/>
                </g>
            </g>
        </g>
    </g>
</svg>
