<?xml version="1.0" encoding="UTF-8" standalone="no"?>
<!DOCTYPE svg PUBLIC "-//W3C//DTD SVG 1.1//EN" "http://www.w3.org/Graphics/SVG/1.1/DTD/svg11.dtd">
<svg width="100%" height="100%" viewBox="0 0 356 356" version="1.1" xmlns="http://www.w3.org/2000/svg" xmlns:xlink="http://www.w3.org/1999/xlink" xml:space="preserve" xmlns:serif="http://www.serif.com/" style="fill-rule:evenodd;clip-rule:evenodd;stroke-linejoin:round;stroke-miterlimit:2;">
    <g transform="matrix(5.55556,0,0,5.55556,-1600,0)">
        <g id="Page-5" serif:id="Page 5" transform="matrix(1,0,0,1,288,0)">
            <rect x="0" y="0" width="64" height="64" style="fill:none;"/>
            <g id="Layer-1" serif:id="Layer 1">
                <g transform="matrix(0,-1,-1,0,32,0)">
                    <path d="M-32,-32C-49.673,-32 -64,-17.673 -64,0C-64,17.673 -49.673,32 -32,32C-14.327,32 0,17.673 0,0C0,-17.673 -14.327,-32 -32,-32" style="fill:rgb(118,194,175);fill-rule:nonzero;"/>
                </g>
                <g opacity="0.2">
                    <g transform="matrix(1,0,0,1,49.8995,21.3476)">
                        <path d="M0,24.895L-14.142,10.753C-15.173,9.722 -16.623,9.386 -17.941,9.716L-26.034,1.723L-29.071,-4.176L-34.982,-7.219L-37.849,-4.352L-34.806,1.559L-28.895,4.602L-28.887,4.594L-20.821,12.561C-21.173,13.892 -20.843,15.366 -19.799,16.41L-5.657,30.552C-4.095,32.114 -1.562,32.114 0,30.552C1.562,28.99 1.562,26.457 0,24.895" style="fill:rgb(35,31,32);fill-rule:nonzero;"/>
                    </g>
                </g>
                <g transform="matrix(-0.711468,-0.702719,-0.702719,0.711468,29.8,16.6376)">
                    <path d="M-17.837,11.372L4.795,11.372L4.669,7.324L-17.963,7.324L-17.837,11.372Z" style="fill:rgb(79,93,115);fill-rule:nonzero;"/>
                </g>
                <g transform="matrix(1,0,0,1,49.8995,30.1005)">
                    <path d="M0,19.799C-1.562,21.361 -4.095,21.361 -5.657,19.799L-19.799,5.657C-21.361,4.095 -21.361,1.562 -19.799,0C-18.237,-1.562 -15.704,-1.562 -14.142,0L0,14.142C1.562,15.704 1.562,18.237 0,19.799" style="fill:rgb(245,207,135);fill-rule:nonzero;"/>
                </g>
                <g opacity="0.2">
                    <g transform="matrix(1,0,0,1,53.304,49.6469)">
                        <path d="M0,-31.294L-6.476,-24.818C-8.038,-23.256 -10.57,-23.256 -12.132,-24.818C-13.694,-26.381 -13.694,-28.913 -12.132,-30.475L-5.657,-36.951C-6.788,-37.395 -8.015,-37.647 -9.304,-37.647C-14.827,-37.647 -19.304,-33.17 -19.304,-27.647C-19.304,-26.358 -19.052,-25.131 -18.608,-24L-29.657,-12.951C-30.788,-13.395 -32.015,-13.647 -33.304,-13.647C-38.827,-13.647 -43.304,-9.17 -43.304,-3.647C-43.304,-2.358 -43.052,-1.131 -42.608,0L-36.132,-6.475C-34.57,-8.037 -32.038,-8.037 -30.476,-6.475C-28.913,-4.913 -28.913,-2.381 -30.476,-0.818L-36.951,5.657C-35.82,6.101 -34.592,6.353 -33.304,6.353C-27.781,6.353 -23.304,1.876 -23.304,-3.647C-23.304,-4.935 -23.556,-6.163 -24,-7.294L-12.951,-18.343C-11.82,-17.899 -10.592,-17.647 -9.304,-17.647C-3.781,-17.647 0.696,-22.124 0.696,-27.647C0.696,-28.935 0.444,-30.163 0,-31.294" style="fill:rgb(35,31,32);fill-rule:nonzero;"/>
                    </g>
                </g>
                <g transform="matrix(-0.707107,0.707107,0.707107,0.707107,27.9997,40.5701)">
                    <rect x="-17.459" y="-7.232" width="17.14" height="8" style="fill:white;"/>
                </g>
                <g transform="matrix(1,0,0,1,21.0046,12.1279)">
                    <path d="M0,11.822L-5.911,8.778L-8.954,2.868L-6.087,0L-0.176,3.044L2.867,8.955L0,11.822Z" style="fill:rgb(79,93,115);fill-rule:nonzero;"/>
                </g>
                <g transform="matrix(1,0,0,1,46.8284,17.1724)">
                    <path d="M0,5.656C-1.562,7.218 -4.095,7.218 -5.657,5.656C-7.219,4.094 -7.219,1.561 -5.657,-0.001L0.819,-6.476C-0.312,-6.92 -1.54,-7.172 -2.828,-7.172C-8.351,-7.172 -12.828,-2.695 -12.828,2.828C-12.828,8.35 -8.351,12.828 -2.828,12.828C2.694,12.828 7.172,8.35 7.172,2.828C7.172,1.539 6.919,0.312 6.476,-0.82L0,5.656Z" style="fill:white;fill-rule:nonzero;"/>
                </g>
                <g transform="matrix(1,0,0,1,17.1716,46.8276)">
                    <path d="M0,-5.656C1.562,-7.218 4.095,-7.218 5.657,-5.656C7.219,-4.094 7.219,-1.561 5.657,0.001L-0.819,6.476C0.312,6.92 1.54,7.172 2.828,7.172C8.351,7.172 12.828,2.695 12.828,-2.828C12.828,-8.35 8.351,-12.828 2.828,-12.828C-2.694,-12.828 -7.172,-8.35 -7.172,-2.828C-7.172,-1.539 -6.919,-0.312 -6.476,0.82L0,-5.656Z" style="fill:white;fill-rule:nonzero;"/>
                </g>
            </g>
        </g>
    </g>
</svg>
