<?xml version="1.0" encoding="UTF-8" standalone="no"?>
<!DOCTYPE svg PUBLIC "-//W3C//DTD SVG 1.1//EN" "http://www.w3.org/Graphics/SVG/1.1/DTD/svg11.dtd">
<svg width="100%" height="100%" viewBox="0 0 356 356" version="1.1" xmlns="http://www.w3.org/2000/svg" xmlns:xlink="http://www.w3.org/1999/xlink" xml:space="preserve" xmlns:serif="http://www.serif.com/" style="fill-rule:evenodd;clip-rule:evenodd;stroke-linejoin:round;stroke-miterlimit:2;">
    <g transform="matrix(5.55556,0,0,5.55556,-3200,-1600)">
        <g id="Page-61" serif:id="Page 61" transform="matrix(1,0,0,1,576,288)">
            <rect x="0" y="0" width="64" height="64" style="fill:none;"/>
            <g id="Layer-1" serif:id="Layer 1">
                <g transform="matrix(0,-1,-1,0,32,0)">
                    <path d="M-32,-32C-49.673,-32 -64,-17.673 -64,0C-64,17.673 -49.673,32 -32,32C-14.327,32 0,17.673 0,0C0,-17.673 -14.327,-32 -32,-32" style="fill:rgb(199,92,92);fill-rule:nonzero;"/>
                </g>
                <g opacity="0.2">
                    <g transform="matrix(1,0,0,1,28.125,10.0895)">
                        <path d="M0,47.973C0,47.973 -16.062,45.596 -16.062,31.911C-16.062,18.225 4.94,16.92 0.292,-0.058C0.292,-0.058 16.018,4.863 12.179,20.187C12.179,20.187 14.259,18.859 15.85,16.274C15.85,16.274 23.812,22.425 23.812,31.786C23.812,41.146 12.775,48.031 7.546,47.966C7.546,47.966 13.188,40.348 8.055,35.437C0.769,28.465 3.875,23.989 3.875,23.989C3.875,23.989 -13.879,32.673 0,47.973" style="fill:rgb(35,31,32);fill-rule:nonzero;"/>
                    </g>
                </g>
                <g transform="matrix(1,0,0,1,28.125,8.0895)">
                    <path d="M0,47.973C0,47.973 -16.062,45.596 -16.062,31.911C-16.062,18.225 4.94,16.92 0.292,-0.058C0.292,-0.058 16.018,4.863 12.179,20.187C12.179,20.187 14.259,18.859 15.85,16.274C15.85,16.274 23.812,22.425 23.812,31.786C23.812,41.146 12.775,48.031 7.546,47.966C7.546,47.966 13.188,40.348 8.055,35.437C0.769,28.465 3.875,23.989 3.875,23.989C3.875,23.989 -13.879,32.673 0,47.973" style="fill:rgb(245,207,135);fill-rule:nonzero;"/>
                </g>
            </g>
        </g>
    </g>
</svg>
