<?xml version="1.0" encoding="UTF-8" standalone="no"?>
<!DOCTYPE svg PUBLIC "-//W3C//DTD SVG 1.1//EN" "http://www.w3.org/Graphics/SVG/1.1/DTD/svg11.dtd">
<svg width="100%" height="100%" viewBox="0 0 356 356" version="1.1" xmlns="http://www.w3.org/2000/svg" xmlns:xlink="http://www.w3.org/1999/xlink" xml:space="preserve" xmlns:serif="http://www.serif.com/" style="fill-rule:evenodd;clip-rule:evenodd;stroke-linejoin:round;stroke-miterlimit:2;">
    <g transform="matrix(5.55556,0,0,5.55556,-1600,-1600)">
        <g id="Page-57" serif:id="Page 57" transform="matrix(1,0,0,1,288,288)">
            <rect x="0" y="0" width="64" height="64" style="fill:none;"/>
            <g id="Layer-1" serif:id="Layer 1">
                <g transform="matrix(0,-1,-1,0,32,0)">
                    <path d="M-32,-32C-49.673,-32 -64,-17.673 -64,0C-64,17.673 -49.673,32 -32,32C-14.327,32 0,17.673 0,0C0,-17.673 -14.327,-32 -32,-32" style="fill:rgb(224,224,209);fill-rule:nonzero;"/>
                </g>
                <g opacity="0.2">
                    <g transform="matrix(1,0,0,1,33.7522,30.4355)">
                        <path d="M0,23.129C-0.968,23.71 -2.537,23.71 -3.504,23.129L-21.026,12.616C-21.994,12.035 -21.994,11.094 -21.026,10.513L-3.504,0C-2.537,-0.581 -0.968,-0.581 0,0L17.522,10.513C18.49,11.094 18.49,12.035 17.522,12.616L0,23.129Z" style="fill:rgb(35,31,32);fill-rule:nonzero;"/>
                    </g>
                </g>
                <g transform="matrix(1,0,0,1,33.7522,28.4355)">
                    <path d="M0,23.129C-0.968,23.71 -2.537,23.71 -3.504,23.129L-21.026,12.616C-21.994,12.035 -21.994,11.094 -21.026,10.513L-3.504,0C-2.537,-0.581 -0.968,-0.581 0,0L17.522,10.513C18.49,11.094 18.49,12.035 17.522,12.616L0,23.129Z" style="fill:rgb(199,92,92);fill-rule:nonzero;"/>
                </g>
                <g opacity="0.2">
                    <g transform="matrix(1,0,0,1,33.7522,22.4355)">
                        <path d="M0,23.129C-0.968,23.71 -2.537,23.71 -3.504,23.129L-21.026,12.616C-21.994,12.035 -21.994,11.094 -21.026,10.513L-3.504,0C-2.537,-0.581 -0.968,-0.581 0,0L17.522,10.513C18.49,11.094 18.49,12.035 17.522,12.616L0,23.129Z" style="fill:rgb(35,31,32);fill-rule:nonzero;"/>
                    </g>
                </g>
                <g transform="matrix(1,0,0,1,33.7522,20.4355)">
                    <path d="M0,23.129C-0.968,23.71 -2.537,23.71 -3.504,23.129L-21.026,12.616C-21.994,12.035 -21.994,11.094 -21.026,10.513L-3.504,0C-2.537,-0.581 -0.968,-0.581 0,0L17.522,10.513C18.49,11.094 18.49,12.035 17.522,12.616L0,23.129Z" style="fill:rgb(118,194,175);fill-rule:nonzero;"/>
                </g>
                <g opacity="0.2">
                    <g transform="matrix(1,0,0,1,33.7522,14.4355)">
                        <path d="M0,23.129C-0.968,23.71 -2.537,23.71 -3.504,23.129L-21.026,12.616C-21.994,12.035 -21.994,11.094 -21.026,10.513L-3.504,0C-2.537,-0.581 -0.968,-0.581 0,0L17.522,10.513C18.49,11.094 18.49,12.035 17.522,12.616L0,23.129Z" style="fill:rgb(35,31,32);fill-rule:nonzero;"/>
                    </g>
                </g>
                <g transform="matrix(1,0,0,1,33.7522,12.4355)">
                    <path d="M0,23.129C-0.968,23.71 -2.537,23.71 -3.504,23.129L-21.026,12.616C-21.994,12.035 -21.994,11.094 -21.026,10.513L-3.504,0C-2.537,-0.581 -0.968,-0.581 0,0L17.522,10.513C18.49,11.094 18.49,12.035 17.522,12.616L0,23.129Z" style="fill:rgb(79,93,115);fill-rule:nonzero;"/>
                </g>
            </g>
        </g>
    </g>
</svg>
