<?xml version="1.0" encoding="UTF-8" standalone="no"?>
<!DOCTYPE svg PUBLIC "-//W3C//DTD SVG 1.1//EN" "http://www.w3.org/Graphics/SVG/1.1/DTD/svg11.dtd">
<svg width="100%" height="100%" viewBox="0 0 356 356" version="1.1" xmlns="http://www.w3.org/2000/svg" xmlns:xlink="http://www.w3.org/1999/xlink" xml:space="preserve" xmlns:serif="http://www.serif.com/" style="fill-rule:evenodd;clip-rule:evenodd;stroke-linejoin:round;stroke-miterlimit:2;">
    <g transform="matrix(5.55556,0,0,5.55556,-4400,-1600)">
        <g id="Page-64" serif:id="Page 64" transform="matrix(1,0,0,1,792,288)">
            <rect x="0" y="0" width="64" height="64" style="fill:none;"/>
            <g id="Layer-1" serif:id="Layer 1">
                <g transform="matrix(0,-1,-1,0,32,0)">
                    <path d="M-32,-32C-49.673,-32 -64,-17.673 -64,0C-64,17.673 -49.673,32 -32,32C-14.327,32 0,17.673 0,0C0,-17.673 -14.327,-32 -32,-32" style="fill:rgb(119,179,212);fill-rule:nonzero;"/>
                </g>
                <g opacity="0.2">
                    <g transform="matrix(0,-1,-1,0,37.077,15.9999)">
                        <path d="M-21.077,-10.923C-30.423,-10.923 -38,-3.76 -38,5.077C-38,13.914 -30.423,21.077 -21.077,21.077C-11.731,21.077 -4.154,11.477 6,5.077C-4.154,-1.323 -11.731,-10.923 -21.077,-10.923" style="fill:rgb(35,31,32);fill-rule:nonzero;"/>
                    </g>
                </g>
                <g transform="matrix(0,-1,-1,0,37.077,13.9999)">
                    <path d="M-21.077,-10.923C-30.423,-10.923 -38,-3.76 -38,5.077C-38,13.914 -30.423,21.077 -21.077,21.077C-11.731,21.077 -4.154,11.477 6,5.077C-4.154,-1.323 -11.731,-10.923 -21.077,-10.923" style="fill:white;fill-rule:nonzero;"/>
                </g>
            </g>
        </g>
    </g>
</svg>
