<?xml version="1.0" encoding="UTF-8" standalone="no"?>
<!DOCTYPE svg PUBLIC "-//W3C//DTD SVG 1.1//EN" "http://www.w3.org/Graphics/SVG/1.1/DTD/svg11.dtd">
<svg width="100%" height="100%" viewBox="0 0 356 356" version="1.1" xmlns="http://www.w3.org/2000/svg" xmlns:xlink="http://www.w3.org/1999/xlink" xml:space="preserve" xmlns:serif="http://www.serif.com/" style="fill-rule:evenodd;clip-rule:evenodd;stroke-linejoin:round;stroke-miterlimit:2;">
    <g transform="matrix(5.55556,0,0,5.55556,-2000,0)">
        <g id="Page-6" serif:id="Page 6" transform="matrix(1,0,0,1,360,0)">
            <rect x="0" y="0" width="64" height="64" style="fill:none;"/>
            <g id="Layer-1" serif:id="Layer 1">
                <g transform="matrix(0,-1,-1,0,32,0)">
                    <path d="M-32,-32C-49.673,-32 -64,-17.673 -64,0C-64,17.673 -49.673,32 -32,32C-14.327,32 0,17.673 0,0C0,-17.673 -14.327,-32 -32,-32" style="fill:rgb(199,92,92);fill-rule:nonzero;"/>
                </g>
                <g opacity="0.2">
                    <g transform="matrix(1,0,0,1,46,20.333)">
                        <path d="M0,29.667L-2,29.667L-2,25.667C-2,21.125 -5,18.278 -5,18.278C-5,18.278 -7.975,15.431 -8.89,14.556C-9.805,13.681 -8.89,12.778 -8.89,12.778C-8.89,12.778 -7.55,11.496 -4.717,8.785C-1.884,6.074 -2,2.125 -2,2.125L-1.999,-3L-14,-4L-26.001,-3L-26,2.125C-26,2.125 -26.116,6.074 -23.283,8.785C-20.45,11.496 -19.11,12.778 -19.11,12.778C-19.11,12.778 -18.195,13.681 -19.11,14.556C-20.025,15.431 -23,18.278 -23,18.278C-23,18.278 -26,21.125 -26,25.667L-26,29.667L-28,29.667C-29.105,29.667 -30,30.562 -30,31.667C-30,32.772 -29.105,33.667 -28,33.667L0,33.667C1.105,33.667 2,32.772 2,31.667C2,30.562 1.105,29.667 0,29.667" style="fill:rgb(35,31,32);fill-rule:nonzero;"/>
                    </g>
                </g>
                <g transform="matrix(1,0,0,1,41,26.805)">
                    <path d="M0,9.806C0,9.806 -2.975,6.959 -3.89,6.084C-4.805,5.209 -3.89,4.306 -3.89,4.306C-3.89,4.306 -2.55,3.024 0.283,0.313C3.116,-2.398 3,-6.347 3,-6.347L3.001,-11.472L-9,-12.472L-21.001,-11.472L-21,-6.347C-21,-6.347 -21.116,-2.398 -18.283,0.313C-15.45,3.024 -14.11,4.306 -14.11,4.306C-14.11,4.306 -13.195,5.209 -14.11,6.084C-15.025,6.959 -18,9.806 -18,9.806C-18,9.806 -21,12.653 -21,17.195C-21,21.737 -21.001,22.278 -21.001,22.278L3.001,22.278C3.001,22.278 3,21.737 3,17.195C3,12.653 0,9.806 0,9.806" style="fill:white;fill-rule:nonzero;"/>
                </g>
                <g transform="matrix(1,0,0,1,31,20.576)">
                    <path d="M0,22.424L0.031,11.424C0.047,9.363 -0.921,8.062 -1.3,7.688L-5.518,3.652C-6.95,2.281 -7.002,0.022 -7.002,0L9.002,0L9.001,0C9,0 8.978,2.255 7.518,3.652L3.345,7.644C2.921,8.062 1.984,9.363 2,11.424L2,22.424L0,22.424Z" style="fill:rgb(79,93,115);fill-rule:nonzero;"/>
                </g>
                <g opacity="0.3">
                    <g transform="matrix(1,0,0,1,48,16)">
                        <path d="M0,0C0,1.105 -0.895,2 -2,2L-30,2C-31.105,2 -32,1.105 -32,0C-32,-1.105 -31.105,-2 -30,-2L-2,-2C-0.895,-2 0,-1.105 0,0" style="fill:rgb(35,31,32);fill-rule:nonzero;"/>
                    </g>
                </g>
                <g transform="matrix(1,0,0,1,48,14)">
                    <path d="M0,0C0,1.105 -0.895,2 -2,2L-30,2C-31.105,2 -32,1.105 -32,0C-32,-1.105 -31.105,-2 -30,-2L-2,-2C-0.895,-2 0,-1.105 0,0" style="fill:rgb(245,207,135);fill-rule:nonzero;"/>
                </g>
                <g transform="matrix(1,0,0,1,48,50)">
                    <path d="M0,0C0,1.105 -0.895,2 -2,2L-30,2C-31.105,2 -32,1.105 -32,0C-32,-1.105 -31.105,-2 -30,-2L-2,-2C-0.895,-2 0,-1.105 0,0" style="fill:rgb(245,207,135);fill-rule:nonzero;"/>
                </g>
                <g transform="matrix(1,0,0,1,41,40)">
                    <path d="M0,8L-18,8L-9,0L0,8Z" style="fill:rgb(79,93,115);fill-rule:nonzero;"/>
                </g>
            </g>
        </g>
    </g>
</svg>
