<?xml version="1.0" encoding="UTF-8" standalone="no"?>
<!DOCTYPE svg PUBLIC "-//W3C//DTD SVG 1.1//EN" "http://www.w3.org/Graphics/SVG/1.1/DTD/svg11.dtd">
<svg width="100%" height="100%" viewBox="0 0 356 356" version="1.1" xmlns="http://www.w3.org/2000/svg" xmlns:xlink="http://www.w3.org/1999/xlink" xml:space="preserve" xmlns:serif="http://www.serif.com/" style="fill-rule:evenodd;clip-rule:evenodd;stroke-linejoin:round;stroke-miterlimit:2;">
    <g transform="matrix(5.55556,0,0,5.55556,0,-1200)">
        <g id="Page-40" serif:id="Page 40" transform="matrix(1,0,0,1,0,216)">
            <rect x="0" y="0" width="64" height="64" style="fill:none;"/>
            <g id="Layer-1" serif:id="Layer 1">
                <g transform="matrix(0,-1,-1,0,32,0)">
                    <path d="M-32,-32C-49.673,-32 -64,-17.673 -64,0C-64,17.673 -49.673,32 -32,32C-14.327,32 0,17.673 0,0C0,-17.673 -14.327,-32 -32,-32" style="fill:rgb(199,92,92);fill-rule:nonzero;"/>
                </g>
                <g opacity="0.2">
                    <g transform="matrix(1,0,0,1,49,19)">
                        <path d="M0,7C-1.105,7 -2,6.105 -2,5L-2,2C-2,0.895 -1.105,0 0,0C1.105,0 2,0.895 2,2L2,5C2,6.105 1.105,7 0,7" style="fill:rgb(35,31,32);fill-rule:nonzero;"/>
                    </g>
                </g>
                <g opacity="0.2">
                    <g transform="matrix(1,0,0,1,49,28)">
                        <path d="M0,7C-1.105,7 -2,6.105 -2,5L-2,2C-2,0.895 -1.105,0 0,0C1.105,0 2,0.895 2,2L2,5C2,6.105 1.105,7 0,7" style="fill:rgb(35,31,32);fill-rule:nonzero;"/>
                    </g>
                </g>
                <g opacity="0.2">
                    <g transform="matrix(1,0,0,1,49,37)">
                        <path d="M0,7C-1.105,7 -2,6.105 -2,5L-2,2C-2,0.895 -1.105,0 0,0C1.105,0 2,0.895 2,2L2,5C2,6.105 1.105,7 0,7" style="fill:rgb(35,31,32);fill-rule:nonzero;"/>
                    </g>
                </g>
                <g transform="matrix(1,0,0,1,49,17)">
                    <path d="M0,7C-1.105,7 -2,6.105 -2,5L-2,2C-2,0.895 -1.105,0 0,0C1.105,0 2,0.895 2,2L2,5C2,6.105 1.105,7 0,7" style="fill:rgb(119,179,212);fill-rule:nonzero;"/>
                </g>
                <g transform="matrix(1,0,0,1,49,26)">
                    <path d="M0,7C-1.105,7 -2,6.105 -2,5L-2,2C-2,0.895 -1.105,0 0,0C1.105,0 2,0.895 2,2L2,5C2,6.105 1.105,7 0,7" style="fill:white;fill-rule:nonzero;"/>
                </g>
                <g transform="matrix(1,0,0,1,49,35)">
                    <path d="M0,7C-1.105,7 -2,6.105 -2,5L-2,2C-2,0.895 -1.105,0 0,0C1.105,0 2,0.895 2,2L2,5C2,6.105 1.105,7 0,7" style="fill:rgb(118,194,175);fill-rule:nonzero;"/>
                </g>
                <g opacity="0.2">
                    <g transform="matrix(1,0,0,1,49,18)">
                        <path d="M0,32C0,34.209 -1.791,36 -4,36L-28,36C-30.209,36 -32,34.209 -32,32L-32,0C-32,-2.209 -30.209,-4 -28,-4L-4,-4C-1.791,-4 0,-2.209 0,0L0,32Z" style="fill:rgb(35,31,32);fill-rule:nonzero;"/>
                    </g>
                </g>
                <g transform="matrix(1,0,0,1,48,16)">
                    <path d="M0,32C0,34.209 -1.791,36 -4,36L-28,36C-30.209,36 -32,34.209 -32,32L-32,0C-32,-2.209 -30.209,-4 -28,-4L-4,-4C-1.791,-4 0,-2.209 0,0L0,32Z" style="fill:rgb(224,153,94);fill-rule:nonzero;"/>
                </g>
                <g transform="matrix(-1,0,0,1,47,0)">
                    <rect x="22" y="12" width="3" height="40" style="fill:rgb(79,93,115);"/>
                </g>
                <g opacity="0.2">
                    <g transform="matrix(1,0,0,1,20,22)">
                        <path d="M0,0C0,1.105 -0.895,2 -2,2L-5,2C-6.105,2 -7,1.105 -7,0C-7,-1.105 -6.105,-2 -5,-2L-2,-2C-0.895,-2 0,-1.105 0,0" style="fill:rgb(35,31,32);fill-rule:nonzero;"/>
                    </g>
                    <g transform="matrix(1,0,0,1,20,30)">
                        <path d="M0,0C0,1.105 -0.895,2 -2,2L-5,2C-6.105,2 -7,1.105 -7,0C-7,-1.105 -6.105,-2 -5,-2L-2,-2C-0.895,-2 0,-1.105 0,0" style="fill:rgb(35,31,32);fill-rule:nonzero;"/>
                    </g>
                    <g transform="matrix(1,0,0,1,20,38)">
                        <path d="M0,0C0,1.105 -0.895,2 -2,2L-5,2C-6.105,2 -7,1.105 -7,0C-7,-1.105 -6.105,-2 -5,-2L-2,-2C-0.895,-2 0,-1.105 0,0" style="fill:rgb(35,31,32);fill-rule:nonzero;"/>
                    </g>
                    <g transform="matrix(1,0,0,1,20,46)">
                        <path d="M0,0C0,1.105 -0.895,2 -2,2L-5,2C-6.105,2 -7,1.105 -7,0C-7,-1.105 -6.105,-2 -5,-2L-2,-2C-0.895,-2 0,-1.105 0,0" style="fill:rgb(35,31,32);fill-rule:nonzero;"/>
                    </g>
                </g>
                <g transform="matrix(1,0,0,1,20,20)">
                    <path d="M0,0C0,1.105 -0.895,2 -2,2L-5,2C-6.105,2 -7,1.105 -7,0C-7,-1.105 -6.105,-2 -5,-2L-2,-2C-0.895,-2 0,-1.105 0,0" style="fill:rgb(224,224,209);fill-rule:nonzero;"/>
                </g>
                <g transform="matrix(1,0,0,1,20,28)">
                    <path d="M0,0C0,1.105 -0.895,2 -2,2L-5,2C-6.105,2 -7,1.105 -7,0C-7,-1.105 -6.105,-2 -5,-2L-2,-2C-0.895,-2 0,-1.105 0,0" style="fill:rgb(224,224,209);fill-rule:nonzero;"/>
                </g>
                <g transform="matrix(1,0,0,1,20,36)">
                    <path d="M0,0C0,1.105 -0.895,2 -2,2L-5,2C-6.105,2 -7,1.105 -7,0C-7,-1.105 -6.105,-2 -5,-2L-2,-2C-0.895,-2 0,-1.105 0,0" style="fill:rgb(224,224,209);fill-rule:nonzero;"/>
                </g>
                <g transform="matrix(1,0,0,1,20,44)">
                    <path d="M0,0C0,1.105 -0.895,2 -2,2L-5,2C-6.105,2 -7,1.105 -7,0C-7,-1.105 -6.105,-2 -5,-2L-2,-2C-0.895,-2 0,-1.105 0,0" style="fill:rgb(224,224,209);fill-rule:nonzero;"/>
                </g>
                <g transform="matrix(0,-1,-1,0,36,23)">
                    <path d="M-4,-4C-6.209,-4 -8,-2.209 -8,0C-8,2.209 -6.209,4 -4,4C-1.791,4 0,2.209 0,0C0,-2.209 -1.791,-4 -4,-4" style="fill:rgb(245,207,135);fill-rule:nonzero;"/>
                </g>
                <g transform="matrix(0,-1,-1,0,38.1285,31.131)">
                    <path d="M-8.128,-3.872C-11.138,-3.872 -10.853,-1.186 -10.853,2.129C-10.853,5.443 -11.138,8.128 -8.128,8.128C-5.118,8.128 -0.861,5.443 -0.861,2.129C-0.861,-1.186 -5.118,-3.872 -8.128,-3.872" style="fill:rgb(245,207,135);fill-rule:nonzero;"/>
                </g>
            </g>
        </g>
    </g>
</svg>
