<?xml version="1.0" encoding="UTF-8" standalone="no"?>
<!DOCTYPE svg PUBLIC "-//W3C//DTD SVG 1.1//EN" "http://www.w3.org/Graphics/SVG/1.1/DTD/svg11.dtd">
<svg width="100%" height="100%" viewBox="0 0 356 356" version="1.1" xmlns="http://www.w3.org/2000/svg" xmlns:xlink="http://www.w3.org/1999/xlink" xml:space="preserve" xmlns:serif="http://www.serif.com/" style="fill-rule:evenodd;clip-rule:evenodd;stroke-linejoin:round;stroke-miterlimit:2;">
    <g transform="matrix(5.55556,0,0,5.55556,-800,-800)">
        <g id="Page-29" serif:id="Page 29" transform="matrix(1,0,0,1,144,144)">
            <rect x="0" y="0" width="64" height="64" style="fill:none;"/>
            <g id="Layer-1" serif:id="Layer 1">
                <g transform="matrix(0,-1,-1,0,32,0)">
                    <path d="M-32,-32C-49.673,-32 -64,-17.673 -64,0C-64,17.673 -49.673,32 -32,32C-14.327,32 0,17.673 0,0C0,-17.673 -14.327,-32 -32,-32" style="fill:rgb(118,194,175);fill-rule:nonzero;"/>
                </g>
                <g opacity="0.2">
                    <g transform="matrix(1,0,0,1,13.8513,18.8769)">
                        <path d="M0,30.543C1.596,32.614 4.892,32.749 7.362,30.846C8.367,30.072 10.149,27.967 10.149,23.654L10.149,10.317L29.149,6.688L29.149,15.106C29.149,18.076 26.743,18.758 25.939,18.91C25.869,18.919 25.8,18.936 25.73,18.948C25.694,18.953 25.64,18.959 25.64,18.959L25.653,18.963C24.702,19.136 23.744,19.535 22.884,20.196C20.414,22.099 19.703,25.321 21.299,27.392C22.895,29.464 26.191,29.6 28.661,27.697C29.911,26.733 31.149,24.873 31.149,21.967L31.149,-0.362C31.149,-1.54 30.193,-2.206 29.015,-1.845L9.815,1.784C8.638,2.142 8.149,3.39 8.149,4.568L8.149,17.561C8.149,20.534 5.404,21.912 4.602,22.061C4.561,22.067 4.521,22.08 4.478,22.086C4.373,22.104 4.305,22.11 4.305,22.11L4.329,22.121C3.386,22.298 2.436,22.692 1.585,23.347C-0.885,25.25 -1.594,28.472 0,30.543" style="fill:rgb(35,31,32);fill-rule:nonzero;"/>
                    </g>
                </g>
                <g transform="matrix(1,0,0,1,13.8513,16.8769)">
                    <path d="M0,30.543C1.596,32.614 4.892,32.749 7.362,30.846C8.367,30.072 10.149,27.967 10.149,23.654L10.149,10.317L29.149,6.688L29.149,15.106C29.149,18.076 26.743,18.758 25.939,18.91C25.869,18.919 25.8,18.936 25.73,18.948C25.694,18.953 25.64,18.959 25.64,18.959L25.653,18.963C24.702,19.136 23.744,19.535 22.884,20.196C20.414,22.099 19.703,25.321 21.299,27.392C22.895,29.464 26.191,29.6 28.661,27.697C29.911,26.733 31.149,24.873 31.149,21.967L31.149,-0.362C31.149,-1.54 30.193,-2.206 29.015,-1.845L9.815,1.784C8.638,2.142 8.149,3.39 8.149,4.568L8.149,17.561C8.149,20.534 5.404,21.912 4.602,22.061C4.561,22.067 4.521,22.08 4.478,22.086C4.373,22.104 4.305,22.11 4.305,22.11L4.329,22.121C3.386,22.298 2.436,22.692 1.585,23.347C-0.885,25.25 -1.594,28.472 0,30.543" style="fill:white;fill-rule:nonzero;"/>
                </g>
            </g>
        </g>
    </g>
</svg>
