<?xml version="1.0" encoding="UTF-8" standalone="no"?>
<!DOCTYPE svg PUBLIC "-//W3C//DTD SVG 1.1//EN" "http://www.w3.org/Graphics/SVG/1.1/DTD/svg11.dtd">
<svg width="100%" height="100%" viewBox="0 0 356 356" version="1.1" xmlns="http://www.w3.org/2000/svg" xmlns:xlink="http://www.w3.org/1999/xlink" xml:space="preserve" xmlns:serif="http://www.serif.com/" style="fill-rule:evenodd;clip-rule:evenodd;stroke-linejoin:round;stroke-miterlimit:2;">
    <g transform="matrix(5.55556,0,0,5.55556,-3600,-400)">
        <g id="Page-23" serif:id="Page 23" transform="matrix(1,0,0,1,648,72)">
            <rect x="0" y="0" width="64" height="64" style="fill:none;"/>
            <g id="Layer-1" serif:id="Layer 1">
                <g transform="matrix(0,-1,-1,0,32,0)">
                    <path d="M-32,-32C-49.673,-32 -64,-17.673 -64,0C-64,17.673 -49.673,32 -32,32C-14.327,32 0,17.673 0,0C0,-17.673 -14.327,-32 -32,-32" style="fill:rgb(224,153,94);fill-rule:nonzero;"/>
                </g>
                <g opacity="0.2">
                    <g transform="matrix(1,0,0,1,49.5,43.6673)">
                        <path d="M0,-21.334L-5,-21.334C-5,-21.334 -6.445,-21.334 -7.5,-24.001C-8.037,-25.358 -8.62,-26.667 -10,-26.667L-20,-26.667C-21.38,-26.667 -21.98,-25.366 -22.5,-24.001C-23.515,-21.334 -25,-21.334 -25,-21.334L-27.5,-21.334C-27.5,-22.806 -28.62,-24.001 -30,-24.001L-32.5,-24.001C-33.88,-24.001 -35,-22.806 -35,-21.334C-36.38,-21.334 -37.5,-20.139 -37.5,-18.667L-37.5,2.666C-37.5,4.138 -36.38,5.333 -35,5.333L0,5.333C1.38,5.333 2.5,4.138 2.5,2.666L2.5,-18.667C2.5,-20.139 1.38,-21.334 0,-21.334" style="fill:rgb(35,31,32);fill-rule:nonzero;"/>
                    </g>
                </g>
                <g transform="matrix(1,0,0,1,49.5,42)">
                    <path d="M0,-22L-5,-22C-5,-22 -6.445,-21.667 -7.5,-24.333C-8.037,-25.691 -8.62,-27 -10,-27L-20,-27C-21.38,-27 -21.98,-25.699 -22.5,-24.333C-23.515,-21.667 -25,-22 -25,-22L-27.5,-22C-27.5,-23.472 -28.62,-24 -30,-24L-32.5,-24C-33.88,-24 -35,-23.472 -35,-22C-36.38,-22 -37.5,-20.472 -37.5,-19L-37.5,2.333C-37.5,3.805 -36.38,5 -35,5L0,5C1.38,5 2.5,3.805 2.5,2.333L2.5,-19C2.5,-20.472 1.38,-22 0,-22" style="fill:rgb(79,93,115);fill-rule:nonzero;"/>
                </g>
                <g transform="matrix(0,-1,-1,0,34,24)">
                    <path d="M-9,-9C-13.971,-9 -18,-4.971 -18,0C-18,4.971 -13.971,9 -9,9C-4.029,9 0,4.971 0,0C0,-4.971 -4.029,-9 -9,-9" style="fill:rgb(119,179,212);fill-rule:nonzero;"/>
                </g>
                <g opacity="0.2">
                    <g transform="matrix(1,0,0,1,34,42)">
                        <path d="M0,-14C-3.859,-14 -7,-10.859 -7,-7C-7,-3.141 -3.859,0 0,0C3.859,0 7,-3.141 7,-7C7,-10.859 3.859,-14 0,-14M0,4C-6.065,4 -11,-0.935 -11,-7C-11,-13.065 -6.065,-18 0,-18C6.065,-18 11,-13.065 11,-7C11,-0.935 6.065,4 0,4" style="fill:rgb(35,31,32);fill-rule:nonzero;"/>
                    </g>
                </g>
                <g transform="matrix(1,0,0,1,34,40.5)">
                    <path d="M0,-15C-4.136,-15 -7.5,-11.636 -7.5,-7.5C-7.5,-3.364 -4.136,0 0,0C4.136,0 7.5,-3.364 7.5,-7.5C7.5,-11.636 4.136,-15 0,-15M0,3C-5.79,3 -10.5,-1.71 -10.5,-7.5C-10.5,-13.29 -5.79,-18 0,-18C5.79,-18 10.5,-13.29 10.5,-7.5C10.5,-1.71 5.79,3 0,3" style="fill:white;fill-rule:nonzero;"/>
                </g>
            </g>
        </g>
    </g>
</svg>
