<?xml version="1.0" encoding="UTF-8" standalone="no"?>
<!DOCTYPE svg PUBLIC "-//W3C//DTD SVG 1.1//EN" "http://www.w3.org/Graphics/SVG/1.1/DTD/svg11.dtd">
<svg width="100%" height="100%" viewBox="0 0 356 356" version="1.1" xmlns="http://www.w3.org/2000/svg" xmlns:xlink="http://www.w3.org/1999/xlink" xml:space="preserve" xmlns:serif="http://www.serif.com/" style="fill-rule:evenodd;clip-rule:evenodd;stroke-linejoin:round;stroke-miterlimit:2;">
    <g transform="matrix(5.55556,0,0,5.55556,-1600,-400)">
        <g id="Page-18" serif:id="Page 18" transform="matrix(1,0,0,1,288,72)">
            <rect x="0" y="0" width="64" height="64" style="fill:none;"/>
            <g id="Layer-1" serif:id="Layer 1">
                <g transform="matrix(0,-1,-1,0,32,0)">
                    <path d="M-32,-32C-49.673,-32 -64,-17.673 -64,0C-64,17.673 -49.673,32 -32,32C-14.327,32 0,17.673 0,0C0,-17.673 -14.327,-32 -32,-32" style="fill:rgb(119,179,212);fill-rule:nonzero;"/>
                </g>
                <g opacity="0.2">
                    <g transform="matrix(1,0,0,1,52,24)">
                        <path d="M0,20C0,22.209 -1.791,24 -4,24L-36,24C-38.209,24 -40,22.209 -40,20L-40,0C-40,-2.209 -38.209,-4 -36,-4L-4,-4C-1.791,-4 0,-2.209 0,0L0,20Z" style="fill:rgb(35,31,32);fill-rule:nonzero;"/>
                    </g>
                </g>
                <g transform="matrix(1,0,0,1,52,22)">
                    <path d="M0,20C0,22.209 -1.791,24 -4,24L-36,24C-38.209,24 -40,22.209 -40,20L-40,0C-40,-2.209 -38.209,-4 -36,-4L-4,-4C-1.791,-4 0,-2.209 0,0L0,20Z" style="fill:rgb(224,224,209);fill-rule:nonzero;"/>
                </g>
                <g opacity="0.2">
                    <g transform="matrix(1,0,0,1,35.5236,43.8537)">
                        <path d="M0,-13.669C-1.938,-15.815 -5.109,-15.815 -7.047,-13.669L-22.474,-0.626C-22.653,-0.427 -22.801,-0.232 -22.934,-0.041C-22.233,1.265 -20.975,2.146 -19.524,2.146L12.476,2.146C13.927,2.146 15.186,1.265 15.887,-0.041C15.754,-0.232 15.606,-0.427 15.426,-0.626L0,-13.669Z" style="fill:rgb(35,31,32);fill-rule:nonzero;"/>
                    </g>
                </g>
                <g transform="matrix(1,0,0,1,35.5236,44.1)">
                    <path d="M0,-12.1C-1.938,-14 -5.109,-14 -7.047,-12.1L-22.474,-0.554C-22.653,-0.378 -22.801,-0.206 -22.934,-0.036C-22.233,1.12 -20.975,1.9 -19.524,1.9L12.476,1.9C13.927,1.9 15.186,1.12 15.887,-0.036C15.754,-0.206 15.606,-0.378 15.426,-0.554L0,-12.1Z" style="fill:rgb(224,224,209);fill-rule:nonzero;"/>
                </g>
                <g opacity="0.2">
                    <g transform="matrix(1,0,0,1,12.5893,33.7745)">
                        <path d="M0,-13.587C0.701,-14.893 1.96,-15.774 3.411,-15.774L35.411,-15.774C36.862,-15.774 38.12,-14.893 38.821,-13.587C38.689,-13.396 38.541,-13.202 38.361,-13.002L22.934,0.041C20.996,2.187 17.825,2.187 15.887,0.041L0,-13.587Z" style="fill:rgb(35,31,32);fill-rule:nonzero;"/>
                    </g>
                </g>
                <g transform="matrix(1,0,0,1,28.4764,19.9)">
                    <path d="M0,12.1C1.938,14 5.109,14 7.047,12.1L22.474,0.554C22.653,0.378 22.801,0.206 22.934,0.036C22.233,-1.12 20.975,-1.9 19.524,-1.9L-12.476,-1.9C-13.927,-1.9 -15.186,-1.12 -15.887,0.036C-15.754,0.206 -15.606,0.378 -15.426,0.554L0,12.1Z" style="fill:white;fill-rule:nonzero;"/>
                </g>
            </g>
        </g>
    </g>
</svg>
