<?xml version="1.0" encoding="UTF-8" standalone="no"?>
<!DOCTYPE svg PUBLIC "-//W3C//DTD SVG 1.1//EN" "http://www.w3.org/Graphics/SVG/1.1/DTD/svg11.dtd">
<svg width="100%" height="100%" viewBox="0 0 356 356" version="1.1" xmlns="http://www.w3.org/2000/svg" xmlns:xlink="http://www.w3.org/1999/xlink" xml:space="preserve" xmlns:serif="http://www.serif.com/" style="fill-rule:evenodd;clip-rule:evenodd;stroke-linejoin:round;stroke-miterlimit:2;">
    <g transform="matrix(5.55556,0,0,5.55556,-4400,-400)">
        <g id="Page-25" serif:id="Page 25" transform="matrix(1,0,0,1,792,72)">
            <rect x="0" y="0" width="64" height="64" style="fill:none;"/>
            <g id="Layer-1" serif:id="Layer 1">
                <g transform="matrix(0,-1,-1,0,32,0)">
                    <path d="M-32,-32C-49.673,-32 -64,-17.673 -64,0C-64,17.673 -49.673,32 -32,32C-14.327,32 0,17.673 0,0C0,-17.673 -14.327,-32 -32,-32" style="fill:rgb(224,153,94);fill-rule:nonzero;"/>
                </g>
                <g opacity="0.2">
                    <g transform="matrix(1,0,0,1,23,28)">
                        <path d="M0,12C1.2,12 2.236,12.706 2.716,13.724C2.898,14.112 3,14.544 3,15C3,16.656 1.656,18 0,18C-1.656,18 -3,16.656 -3,15C-3,13.344 -1.656,12 0,12M24,-10L20,-10C19.758,-10 19.524,-9.912 19.34,-9.752L5.536,2.35C4.822,2.2 3.718,2 3,2C-2.514,2 -7,6.486 -7,12C-7,17.514 -2.514,22 3,22C8.514,22 13,17.514 13,12C13,10.362 12.688,9.264 12.334,8.352L15.738,7.196C16.152,7.056 16.426,6.662 16.416,6.226L16.332,2.43L20.152,2.164C20.664,2.128 21.066,1.71 21.082,1.198L21.224,-3.36L24.216,-4.024C24.674,-4.124 25,-4.532 25,-5L25,-9C25,-9.552 24.552,-10 24,-10" style="fill:rgb(35,31,32);fill-rule:nonzero;"/>
                    </g>
                </g>
                <g transform="matrix(1,0,0,1,23,26)">
                    <path d="M0,12C1.2,12 2.236,12.706 2.716,13.724C2.898,14.112 3,14.544 3,15C3,16.656 1.656,18 0,18C-1.656,18 -3,16.656 -3,15C-3,13.344 -1.656,12 0,12M24,-10L20,-10C19.758,-10 19.524,-9.912 19.34,-9.752L5.536,2.35C4.822,2.2 3.718,2 3,2C-2.514,2 -7,6.486 -7,12C-7,17.514 -2.514,22 3,22C8.514,22 13,17.514 13,12C13,10.362 12.688,9.264 12.334,8.352L15.738,7.196C16.152,7.056 16.426,6.662 16.416,6.226L16.332,2.43L20.152,2.164C20.664,2.128 21.066,1.71 21.082,1.198L21.224,-3.36L24.216,-4.024C24.674,-4.124 25,-4.532 25,-5L25,-9C25,-9.552 24.552,-10 24,-10" style="fill:white;fill-rule:nonzero;"/>
                </g>
            </g>
        </g>
    </g>
</svg>
