<?xml version="1.0" encoding="UTF-8" standalone="no"?>
<!DOCTYPE svg PUBLIC "-//W3C//DTD SVG 1.1//EN" "http://www.w3.org/Graphics/SVG/1.1/DTD/svg11.dtd">
<svg width="100%" height="100%" viewBox="0 0 356 356" version="1.1" xmlns="http://www.w3.org/2000/svg" xmlns:xlink="http://www.w3.org/1999/xlink" xml:space="preserve" xmlns:serif="http://www.serif.com/" style="fill-rule:evenodd;clip-rule:evenodd;stroke-linejoin:round;stroke-miterlimit:2;">
    <g transform="matrix(5.55556,0,0,5.55556,-3600,-800)">
        <g id="Page-36" serif:id="Page 36" transform="matrix(1,0,0,1,648,144)">
            <rect x="0" y="0" width="64" height="64" style="fill:none;"/>
            <g id="Layer-1" serif:id="Layer 1">
                <g transform="matrix(0,-1,-1,0,32,0)">
                    <path d="M-32,-32C-49.673,-32 -64,-17.673 -64,0C-64,17.673 -49.673,32 -32,32C-14.327,32 0,17.673 0,0C0,-17.673 -14.327,-32 -32,-32" style="fill:rgb(224,224,209);fill-rule:nonzero;"/>
                </g>
                <g opacity="0.2">
                    <g transform="matrix(1,0,0,1,39.5,34.8467)">
                        <path d="M0,2.307L0,-12C2.741,-12.917 4.5,-14.322 4.5,-15.9C4.5,-18.662 -0.873,-19.9 -7.5,-19.9C-14.127,-19.9 -19.5,-18.662 -19.5,-15.9C-19.5,-14.322 -17.741,-12.917 -15,-12L-15,2.307C-17.741,3.223 -19.5,4.629 -19.5,6.207C-19.5,8.684 -15.173,10.734 -9.5,11.132L-9.5,18.207L-7.5,22.207L-5.5,18.207L-5.5,11.132C0.173,10.734 4.5,8.684 4.5,6.207C4.5,4.629 2.741,3.223 0,2.307" style="fill:rgb(35,31,32);fill-rule:nonzero;"/>
                    </g>
                </g>
                <g transform="matrix(0,-1,-1,0,32,27.0535)">
                    <path d="M-12,-12C-14.761,-12 -17,-6.627 -17,0C-17,6.627 -14.761,12 -12,12C-9.239,12 -7,6.627 -7,0C-7,-6.627 -9.239,-12 -12,-12" style="fill:rgb(199,92,92);fill-rule:nonzero;"/>
                </g>
                <g transform="matrix(0,-1,-1,0,31.5,5.4465)">
                    <path d="M-11.5,-12.5C-14.261,-12.5 -16.5,-7.127 -16.5,-0.5C-16.5,6.127 -14.261,11.5 -11.5,11.5C-8.739,11.5 -7.5,6.127 -7.5,-0.5C-7.5,-7.127 -8.739,-12.5 -11.5,-12.5" style="fill:rgb(199,92,92);fill-rule:nonzero;"/>
                </g>
                <g transform="matrix(-1,0,0,1,64,-4)">
                    <rect x="25" y="24" width="14" height="20" style="fill:rgb(199,92,92);"/>
                </g>
                <g transform="matrix(1,0,0,1,30,45.0535)">
                    <path d="M0,6L2,10L4,6L4,-4L0,-4L0,6Z" style="fill:rgb(79,93,115);fill-rule:nonzero;"/>
                </g>
                <g transform="matrix(0,-1,-1,0,32,39.241)">
                    <path d="M-2,-2C-2.794,-2 -3.437,-1.105 -3.437,0C-3.437,1.105 -2.794,2 -2,2C-1.206,2 -0.563,1.105 -0.563,0C-0.563,-1.105 -1.206,-2 -2,-2" style="fill:rgb(79,93,115);fill-rule:nonzero;"/>
                </g>
            </g>
        </g>
    </g>
</svg>
