<?xml version="1.0" encoding="UTF-8" standalone="no"?>
<!DOCTYPE svg PUBLIC "-//W3C//DTD SVG 1.1//EN" "http://www.w3.org/Graphics/SVG/1.1/DTD/svg11.dtd">
<svg width="100%" height="100%" viewBox="0 0 356 356" version="1.1" xmlns="http://www.w3.org/2000/svg" xmlns:xlink="http://www.w3.org/1999/xlink" xml:space="preserve" xmlns:serif="http://www.serif.com/" style="fill-rule:evenodd;clip-rule:evenodd;stroke-linejoin:round;stroke-miterlimit:2;">
    <g transform="matrix(5.55556,0,0,5.55556,-800,-2400)">
        <g id="Page-81" serif:id="Page 81" transform="matrix(1,0,0,1,144,432)">
            <rect x="0" y="0" width="64" height="64" style="fill:none;"/>
            <g id="Layer-1" serif:id="Layer 1">
                <g transform="matrix(0,-1,-1,0,32,0)">
                    <path d="M-32,-32C-49.673,-32 -64,-17.673 -64,0C-64,17.673 -49.673,32 -32,32C-14.327,32 0,17.673 0,0C0,-17.673 -14.327,-32 -32,-32" style="fill:rgb(118,194,175);fill-rule:nonzero;"/>
                </g>
                <g opacity="0.2">
                    <g transform="matrix(1,0,0,1,49.4253,48.0909)">
                        <path d="M0,-28.44L-13.711,-36.357C-15.704,-37.507 -19.147,-37.507 -21.139,-36.357L-34.851,-28.44C-36.898,-27.258 -38.565,-24.372 -38.565,-22.007L-38.565,-6.175C-38.565,-3.81 -36.898,-0.924 -34.851,0.258L-21.139,8.175C-20.143,8.75 -18.824,9.067 -17.425,9.067C-16.026,9.067 -14.708,8.75 -13.711,8.175L0,0.258C2.048,-0.924 3.714,-3.81 3.714,-6.175L3.714,-22.007C3.714,-24.372 2.048,-27.258 0,-28.44" style="fill:rgb(35,31,32);fill-rule:nonzero;"/>
                    </g>
                </g>
                <g transform="matrix(1,0,0,1,35.4641,53.8326)">
                    <path d="M0,-43.665C-1.905,-44.765 -5.023,-44.765 -6.928,-43.665L-20.639,-35.749C-22.545,-34.649 -24.104,-31.949 -24.104,-29.749L-24.104,-13.916C-24.104,-11.716 -22.545,-9.016 -20.639,-7.916L-6.928,0C-5.023,1.1 -1.905,1.1 0,0L13.711,-7.916C15.617,-9.016 17.175,-11.716 17.175,-13.916L17.175,-29.749C17.175,-31.949 15.617,-34.649 13.711,-35.749L0,-43.665Z" style="fill:rgb(224,224,209);fill-rule:nonzero;"/>
                </g>
                <g transform="matrix(1,0,0,1,32,53.8968)">
                    <path d="M0,-44.054C-1.226,-44.054 -2.367,-43.784 -3.214,-43.296L-16.925,-35.38C-18.667,-34.374 -20.14,-31.825 -20.14,-29.813L-20.14,-13.981C-20.14,-11.969 -18.667,-9.419 -16.925,-8.413L-3.214,-0.497C-1.521,0.479 1.521,0.479 3.214,-0.497L16.925,-8.413C18.667,-9.419 20.14,-11.969 20.14,-13.981L20.14,-29.813C20.14,-31.825 18.667,-34.374 16.925,-35.38L3.214,-43.296C2.367,-43.784 1.226,-44.054 0,-44.054M0,1.26C-1.399,1.26 -2.718,0.944 -3.714,0.368L-17.425,-7.548C-19.473,-8.73 -21.14,-11.616 -21.14,-13.981L-21.14,-29.813C-21.14,-32.178 -19.473,-35.064 -17.425,-36.245L-3.714,-44.161C-1.722,-45.314 1.722,-45.314 3.714,-44.161L17.425,-36.245C19.473,-35.064 21.14,-32.178 21.14,-29.813L21.14,-13.981C21.14,-11.616 19.473,-8.73 17.425,-7.548L3.714,0.368C2.718,0.944 1.399,1.26 0,1.26" style="fill:rgb(224,224,209);fill-rule:nonzero;"/>
                </g>
                <g transform="matrix(1,0,0,1,32,10.3422)">
                    <path d="M0,19.483C-1.123,19.483 -2.203,19.231 -2.964,18.792L-16.675,10.876C-17.266,10.535 -17.604,10.122 -17.604,9.741C-17.604,9.362 -17.266,8.948 -16.675,8.608L-2.964,0.691C-2.203,0.252 -1.123,0 0,0C1.123,0 2.203,0.252 2.964,0.691L16.675,8.608C17.266,8.948 17.604,9.362 17.604,9.741C17.604,10.122 17.266,10.535 16.675,10.876L2.964,18.792C2.203,19.231 1.123,19.483 0,19.483" style="fill:white;fill-rule:nonzero;"/>
                </g>
                <g transform="matrix(1,0,0,1,29.9085,22.6148)">
                    <path d="M0,30.687C-0.3,30.687 -0.659,30.571 -1.039,30.352L-14.75,22.435C-16.357,21.508 -17.715,19.157 -17.715,17.301L-17.715,1.469C-17.715,1.027 -17.625,0 -16.79,0C-16.49,0 -16.131,0.116 -15.75,0.335L-2.039,8.251C-0.433,9.179 0.925,11.53 0.925,13.385L0.925,29.218C0.925,29.735 0.813,30.159 0.609,30.413C0.459,30.6 0.265,30.687 0,30.687" style="fill:white;fill-rule:nonzero;"/>
                </g>
                <g transform="matrix(1,0,0,1,33.9253,22.6148)">
                    <path d="M0,30.687C-0.835,30.687 -0.925,29.66 -0.925,29.218L-0.925,13.385C-0.925,11.53 0.432,9.179 2.039,8.251L15.75,0.335C16.13,0.116 16.49,0 16.789,0C17.624,0 17.714,1.027 17.714,1.469L17.714,17.301C17.714,19.157 16.357,21.508 14.75,22.435L1.039,30.352C0.659,30.571 0.299,30.687 0,30.687" style="fill:white;fill-rule:nonzero;"/>
                </g>
                <g transform="matrix(1,0,0,1,32,18.667)">
                    <path d="M0,2.833C-1.265,2.833 -2.333,2.185 -2.333,1.417C-2.333,0.649 -1.265,0 0,0C1.265,0 2.333,0.649 2.333,1.417C2.333,2.185 1.265,2.833 0,2.833" style="fill:rgb(79,93,115);fill-rule:nonzero;"/>
                </g>
                <g transform="matrix(1,0,0,1,15.1458,38.2152)">
                    <path d="M0,4.153C-0.768,4.153 -1.416,3.202 -1.416,2.077C-1.416,0.951 -0.768,0 0,0C0.768,0 1.416,0.951 1.416,2.077C1.416,3.202 0.768,4.153 0,4.153" style="fill:rgb(79,93,115);fill-rule:nonzero;"/>
                </g>
                <g transform="matrix(1,0,0,1,48.3542,38.2152)">
                    <path d="M0,4.153C-0.768,4.153 -1.416,3.202 -1.416,2.077C-1.416,0.951 -0.768,0 0,0C0.768,0 1.416,0.951 1.416,2.077C1.416,3.202 0.768,4.153 0,4.153" style="fill:rgb(79,93,115);fill-rule:nonzero;"/>
                </g>
                <g transform="matrix(1,0,0,1,15.1458,26.2777)">
                    <path d="M0,4.153C-0.768,4.153 -1.416,3.202 -1.416,2.077C-1.416,0.951 -0.768,0 0,0C0.768,0 1.416,0.951 1.416,2.077C1.416,3.202 0.768,4.153 0,4.153" style="fill:rgb(79,93,115);fill-rule:nonzero;"/>
                </g>
                <g transform="matrix(1,0,0,1,26.917,33.9645)">
                    <path d="M0,4.154C-0.768,4.154 -1.416,3.203 -1.416,2.077C-1.416,0.952 -0.768,0 0,0C0.768,0 1.417,0.952 1.417,2.077C1.417,3.203 0.768,4.154 0,4.154" style="fill:rgb(79,93,115);fill-rule:nonzero;"/>
                </g>
                <g transform="matrix(1,0,0,1,36.9587,33.9645)">
                    <path d="M0,4.154C-0.768,4.154 -1.416,3.203 -1.416,2.077C-1.416,0.952 -0.768,0 0,0C0.768,0 1.417,0.952 1.417,2.077C1.417,3.203 0.768,4.154 0,4.154" style="fill:rgb(79,93,115);fill-rule:nonzero;"/>
                </g>
                <g transform="matrix(1,0,0,1,26.917,44.9853)">
                    <path d="M0,4.154C-0.768,4.154 -1.416,3.203 -1.416,2.077C-1.416,0.952 -0.768,0 0,0C0.768,0 1.417,0.952 1.417,2.077C1.417,3.203 0.768,4.154 0,4.154" style="fill:rgb(79,93,115);fill-rule:nonzero;"/>
                </g>
            </g>
        </g>
    </g>
</svg>
