<?xml version="1.0" encoding="UTF-8" standalone="no"?>
<!DOCTYPE svg PUBLIC "-//W3C//DTD SVG 1.1//EN" "http://www.w3.org/Graphics/SVG/1.1/DTD/svg11.dtd">
<svg width="100%" height="100%" viewBox="0 0 356 356" version="1.1" xmlns="http://www.w3.org/2000/svg" xmlns:xlink="http://www.w3.org/1999/xlink" xml:space="preserve" xmlns:serif="http://www.serif.com/" style="fill-rule:evenodd;clip-rule:evenodd;stroke-linejoin:round;stroke-miterlimit:2;">
    <g transform="matrix(5.55556,0,0,5.55556,-4000,-2000)">
        <g id="Page-76" serif:id="Page 76" transform="matrix(1,0,0,1,720,360)">
            <rect x="0" y="0" width="64" height="64" style="fill:none;"/>
            <clipPath id="_clip1">
                <rect x="0" y="0" width="64" height="64"/>
            </clipPath>
            <g clip-path="url(#_clip1)">
                <g id="Layer-1" serif:id="Layer 1">
                    <g transform="matrix(0,-1,-1,0,31.8333,0)">
                        <path d="M-32,-32C-49.673,-32 -64,-17.673 -64,0C-64,17.673 -49.673,32 -32,32C-14.327,32 0,17.673 0,0C0,-17.673 -14.327,-32 -32,-32" style="fill:rgb(224,224,209);fill-rule:nonzero;"/>
                    </g>
                    <g opacity="0.2">
                        <g transform="matrix(1,0,0,1,24,20.375)">
                            <path d="M0,27.625C-2.209,27.625 -4,25.834 -4,23.625C-4,21.416 -2.209,19.625 0,19.625C2.209,19.625 4,21.416 4,23.625C4,25.834 2.209,27.625 0,27.625M8,-8.375C-0.545,-8.375 -10,-3 -13.083,7.281C-14.641,12.475 -7.896,10.399 -7.437,16.437C-7.062,21.375 -8.551,23.037 -8.875,26C-9.313,30 0,36 8.365,35.621C20.64,35.064 30.045,25.913 30.045,13.625C30.045,1.337 20.288,-8.375 8,-8.375" style="fill:rgb(35,31,32);fill-rule:nonzero;"/>
                        </g>
                    </g>
                    <g transform="matrix(1,0,0,1,24,18.375)">
                        <path d="M0,27.625C-2.209,27.625 -4,25.834 -4,23.625C-4,21.416 -2.209,19.625 0,19.625C2.209,19.625 4,21.416 4,23.625C4,25.834 2.209,27.625 0,27.625M8,-8.375C-0.545,-8.375 -10,-3 -13.083,7.281C-14.641,12.475 -7.896,10.399 -7.437,16.437C-7.062,21.375 -8.551,23.037 -8.875,26C-9.313,30 0,36 8.365,35.621C20.64,35.064 30.045,25.913 30.045,13.625C30.045,1.337 20.288,-8.375 8,-8.375" style="fill:rgb(224,153,94);fill-rule:nonzero;"/>
                    </g>
                    <g opacity="0.2">
                        <g transform="matrix(0,-1,-1,0,20.7152,21)">
                            <path d="M-4,-4C-6.209,-4 -8,-2.209 -8,0C-8,2.209 -6.209,4 -4,4C-1.791,4 0,2.209 0,0C0,-2.209 -1.791,-4 -4,-4" style="fill:rgb(35,31,32);fill-rule:nonzero;"/>
                        </g>
                    </g>
                    <g opacity="0.2">
                        <g transform="matrix(0,-1,-1,0,32,15.6127)">
                            <path d="M-4,-4C-6.209,-4 -8,-2.209 -8,0C-8,2.209 -6.209,4 -4,4C-1.791,4 0,2.209 0,0C0,-2.209 -1.791,-4 -4,-4" style="fill:rgb(35,31,32);fill-rule:nonzero;"/>
                        </g>
                    </g>
                    <g opacity="0.2">
                        <g transform="matrix(0,-1,-1,0,43.211,20.728)">
                            <path d="M-4,-4C-6.209,-4 -8,-2.209 -8,0C-8,2.209 -6.209,4 -4,4C-1.791,4 0,2.209 0,0C0,-2.209 -1.791,-4 -4,-4" style="fill:rgb(35,31,32);fill-rule:nonzero;"/>
                        </g>
                    </g>
                    <g opacity="0.2">
                        <g transform="matrix(0,-1,-1,0,46.1875,33.2708)">
                            <path d="M-4,-4C-6.209,-4 -8,-2.209 -8,0C-8,2.209 -6.209,4 -4,4C-1.791,4 0,2.209 0,0C0,-2.209 -1.791,-4 -4,-4" style="fill:rgb(35,31,32);fill-rule:nonzero;"/>
                        </g>
                    </g>
                    <g opacity="0.2">
                        <g transform="matrix(0,-1,-1,0,37.1042,43.1042)">
                            <path d="M-4,-4C-6.209,-4 -8,-2.209 -8,0C-8,2.209 -6.209,4 -4,4C-1.791,4 0,2.209 0,0C0,-2.209 -1.791,-4 -4,-4" style="fill:rgb(35,31,32);fill-rule:nonzero;"/>
                        </g>
                    </g>
                    <g transform="matrix(0,-1,-1,0,20.7152,19)">
                        <path d="M-4,-4C-6.209,-4 -8,-2.209 -8,0C-8,2.209 -6.209,4 -4,4C-1.791,4 0,2.209 0,0C0,-2.209 -1.791,-4 -4,-4" style="fill:rgb(199,92,92);fill-rule:nonzero;"/>
                    </g>
                    <g transform="matrix(0,-1,-1,0,32,13.6127)">
                        <path d="M-4,-4C-6.209,-4 -8,-2.209 -8,0C-8,2.209 -6.209,4 -4,4C-1.791,4 0,2.209 0,0C0,-2.209 -1.791,-4 -4,-4" style="fill:rgb(245,207,135);fill-rule:nonzero;"/>
                    </g>
                    <g transform="matrix(0,-1,-1,0,43.211,18.728)">
                        <path d="M-4,-4C-6.209,-4 -8,-2.209 -8,0C-8,2.209 -6.209,4 -4,4C-1.791,4 0,2.209 0,0C0,-2.209 -1.791,-4 -4,-4" style="fill:rgb(118,194,175);fill-rule:nonzero;"/>
                    </g>
                    <g transform="matrix(0,-1,-1,0,46.1875,31.2708)">
                        <path d="M-4,-4C-6.209,-4 -8,-2.209 -8,0C-8,2.209 -6.209,4 -4,4C-1.791,4 0,2.209 0,0C0,-2.209 -1.791,-4 -4,-4" style="fill:white;fill-rule:nonzero;"/>
                    </g>
                    <g transform="matrix(0,-1,-1,0,37.1042,41.1042)">
                        <path d="M-4,-4C-6.209,-4 -8,-2.209 -8,0C-8,2.209 -6.209,4 -4,4C-1.791,4 0,2.209 0,0C0,-2.209 -1.791,-4 -4,-4" style="fill:rgb(79,93,115);fill-rule:nonzero;"/>
                    </g>
                </g>
            </g>
        </g>
    </g>
</svg>
