<?xml version="1.0" encoding="UTF-8" standalone="no"?>
<!DOCTYPE svg PUBLIC "-//W3C//DTD SVG 1.1//EN" "http://www.w3.org/Graphics/SVG/1.1/DTD/svg11.dtd">
<svg width="100%" height="100%" viewBox="0 0 356 356" version="1.1" xmlns="http://www.w3.org/2000/svg" xmlns:xlink="http://www.w3.org/1999/xlink" xml:space="preserve" xmlns:serif="http://www.serif.com/" style="fill-rule:evenodd;clip-rule:evenodd;stroke-linejoin:round;stroke-miterlimit:2;">
    <g transform="matrix(5.55556,0,0,5.55556,-2800,0)">
        <g id="Page-8" serif:id="Page 8" transform="matrix(1,0,0,1,504,0)">
            <rect x="0" y="0" width="64" height="64" style="fill:none;"/>
            <g id="Layer-1" serif:id="Layer 1">
                <g transform="matrix(0,-1,-1,0,32,0)">
                    <path d="M-32,-32C-49.673,-32 -64,-17.673 -64,0C-64,17.673 -49.673,32 -32,32C-14.327,32 0,17.673 0,0C0,-17.673 -14.327,-32 -32,-32" style="fill:rgb(119,179,212);fill-rule:nonzero;"/>
                </g>
                <g opacity="0.2">
                    <g transform="matrix(1,0,0,1,49.5287,33.5753)">
                        <path d="M0,0.28L-14.269,-17.866C-16.062,-20.145 -18.995,-20.145 -20.788,-17.866L-35.057,0.28C-36.85,2.56 -36.09,4.425 -33.367,4.425L-25.529,4.425L-25.529,16.425C-25.529,18.634 -23.738,20.425 -21.529,20.425L-13.529,20.425C-11.32,20.425 -9.529,18.634 -9.529,16.425L-9.529,4.425L-1.69,4.425C1.032,4.425 1.793,2.56 0,0.28" style="fill:rgb(35,31,32);fill-rule:nonzero;"/>
                    </g>
                </g>
                <g transform="matrix(1,0,0,1,40,24)">
                    <path d="M0,24C0,26.209 -1.791,28 -4,28L-12,28C-14.209,28 -16,26.209 -16,24L-16,0C-16,-2.209 -14.209,-4 -12,-4L-4,-4C-1.791,-4 0,-2.209 0,0L0,24Z" style="fill:white;fill-rule:nonzero;"/>
                </g>
                <g transform="matrix(1,0,0,1,16.1615,11.43)">
                    <path d="M0,24.57C-2.722,24.57 -3.483,22.705 -1.69,20.425L12.579,2.28C14.372,0 17.305,0 19.098,2.28L33.367,20.425C35.16,22.705 34.399,24.57 31.677,24.57L0,24.57Z" style="fill:white;fill-rule:nonzero;"/>
                </g>
            </g>
        </g>
    </g>
</svg>
