<?xml version="1.0" encoding="UTF-8" standalone="no"?>
<!DOCTYPE svg PUBLIC "-//W3C//DTD SVG 1.1//EN" "http://www.w3.org/Graphics/SVG/1.1/DTD/svg11.dtd">
<svg width="100%" height="100%" viewBox="0 0 356 356" version="1.1" xmlns="http://www.w3.org/2000/svg" xmlns:xlink="http://www.w3.org/1999/xlink" xml:space="preserve" xmlns:serif="http://www.serif.com/" style="fill-rule:evenodd;clip-rule:evenodd;stroke-linejoin:round;stroke-miterlimit:2;">
    <g transform="matrix(5.55556,0,0,5.55556,-1600,-800)">
        <g id="Page-31" serif:id="Page 31" transform="matrix(1,0,0,1,288,144)">
            <rect x="0" y="0" width="64" height="64" style="fill:none;"/>
            <g id="Layer-1" serif:id="Layer 1">
                <g transform="matrix(0,-1,-1,0,32,0)">
                    <path d="M-32,-32C-49.673,-32 -64,-17.673 -64,0C-64,17.673 -49.673,32 -32,32C-14.327,32 0,17.673 0,0C0,-17.673 -14.327,-32 -32,-32" style="fill:rgb(224,224,209);fill-rule:nonzero;"/>
                </g>
                <g opacity="0.2">
                    <g transform="matrix(1,0,0,1,23.1646,36.5389)">
                        <path d="M0,-2.984C-2.838,-2.984 -5.136,-5.336 -5.136,-8.238C-5.136,-11.14 -2.834,-13.492 0,-13.492C0.642,-13.492 1.231,-13.327 1.792,-13.104L1.775,-13.145C1.775,-13.145 2.022,-13.056 2.367,-12.867C2.385,-12.857 2.402,-12.853 2.42,-12.846C2.43,-12.839 2.437,-12.833 2.447,-12.826C2.685,-12.692 2.956,-12.513 3.26,-12.259C3.389,-12.149 3.497,-12.022 3.615,-11.902C4.881,-10.662 6.272,-8.296 5.903,-3.788C5.686,-0.264 4.072,5.01 -2.388,10.144C-2.699,10.388 -3.061,10.508 -3.424,10.508C-3.929,10.508 -4.428,10.278 -4.759,9.838C-5.331,9.083 -5.198,7.998 -4.459,7.414C0.802,3.235 2.242,-0.858 2.496,-3.667C1.75,-3.248 0.91,-2.984 0,-2.984M22.805,-3.791C22.589,-0.268 20.974,5.007 14.514,10.141C14.204,10.384 13.841,10.505 13.479,10.505C12.973,10.505 12.474,10.275 12.143,9.835C11.572,9.08 11.704,7.994 12.443,7.411C17.704,3.231 19.144,-0.862 19.399,-3.671C18.656,-3.245 17.816,-2.984 16.906,-2.984C14.068,-2.984 11.77,-5.336 11.77,-8.238C11.77,-11.14 14.068,-13.492 16.906,-13.492C17.547,-13.492 18.136,-13.327 18.698,-13.104L18.677,-13.145C18.677,-13.145 18.924,-13.056 19.27,-12.867C19.287,-12.857 19.304,-12.853 19.322,-12.846C19.332,-12.839 19.339,-12.833 19.35,-12.826C19.587,-12.692 19.859,-12.513 20.162,-12.259C20.291,-12.149 20.399,-12.022 20.518,-11.902C21.783,-10.662 23.171,-8.296 22.805,-3.791" style="fill:rgb(35,31,32);fill-rule:nonzero;"/>
                    </g>
                </g>
                <g transform="matrix(1,0,0,1,23.1646,34.5389)">
                    <path d="M0,-2.984C-2.838,-2.984 -5.136,-5.336 -5.136,-8.238C-5.136,-11.14 -2.834,-13.492 0,-13.492C0.642,-13.492 1.231,-13.327 1.792,-13.104L1.775,-13.145C1.775,-13.145 2.022,-13.056 2.367,-12.867C2.385,-12.857 2.402,-12.853 2.42,-12.846C2.43,-12.839 2.437,-12.833 2.447,-12.826C2.685,-12.692 2.956,-12.513 3.26,-12.259C3.389,-12.149 3.497,-12.022 3.615,-11.902C4.881,-10.662 6.272,-8.296 5.903,-3.788C5.686,-0.264 4.072,5.01 -2.388,10.144C-2.699,10.388 -3.061,10.508 -3.424,10.508C-3.929,10.508 -4.428,10.278 -4.759,9.838C-5.331,9.083 -5.198,7.998 -4.459,7.414C0.802,3.235 2.242,-0.858 2.496,-3.667C1.75,-3.248 0.91,-2.984 0,-2.984M22.805,-3.791C22.589,-0.268 20.974,5.007 14.514,10.141C14.204,10.384 13.841,10.505 13.479,10.505C12.973,10.505 12.474,10.275 12.143,9.835C11.572,9.08 11.704,7.994 12.443,7.411C17.704,3.231 19.144,-0.862 19.399,-3.671C18.656,-3.245 17.816,-2.984 16.906,-2.984C14.068,-2.984 11.77,-5.336 11.77,-8.238C11.77,-11.14 14.068,-13.492 16.906,-13.492C17.547,-13.492 18.136,-13.327 18.698,-13.104L18.677,-13.145C18.677,-13.145 18.924,-13.056 19.27,-12.867C19.287,-12.857 19.304,-12.853 19.322,-12.846C19.332,-12.839 19.339,-12.833 19.35,-12.826C19.587,-12.692 19.859,-12.513 20.162,-12.259C20.291,-12.149 20.399,-12.022 20.518,-11.902C21.783,-10.662 23.171,-8.296 22.805,-3.791" style="fill:rgb(79,93,115);fill-rule:nonzero;"/>
                </g>
            </g>
        </g>
    </g>
</svg>
