<?xml version="1.0" encoding="UTF-8" standalone="no"?>
<!DOCTYPE svg PUBLIC "-//W3C//DTD SVG 1.1//EN" "http://www.w3.org/Graphics/SVG/1.1/DTD/svg11.dtd">
<svg width="100%" height="100%" viewBox="0 0 356 356" version="1.1" xmlns="http://www.w3.org/2000/svg" xmlns:xlink="http://www.w3.org/1999/xlink" xml:space="preserve" xmlns:serif="http://www.serif.com/" style="fill-rule:evenodd;clip-rule:evenodd;stroke-linejoin:round;stroke-miterlimit:2;">
    <g transform="matrix(5.55556,0,0,5.55556,-3200,-1200)">
        <g id="Page-48" serif:id="Page 48" transform="matrix(1,0,0,1,576,216)">
            <rect x="0" y="0" width="64" height="64" style="fill:none;"/>
            <g id="Layer-1" serif:id="Layer 1">
                <g transform="matrix(0,-1,-1,0,32,0)">
                    <path d="M-32,-32C-49.673,-32 -64,-17.673 -64,0C-64,17.673 -49.673,32 -32,32C-14.327,32 0,17.673 0,0C0,-17.673 -14.327,-32 -32,-32" style="fill:rgb(118,194,175);fill-rule:nonzero;"/>
                </g>
                <g opacity="0.2">
                    <g transform="matrix(1,0,0,1,46,25)">
                        <path d="M0,20C0,22.209 -1.791,24 -4,24L-24,24C-26.209,24 -28,22.209 -28,20L-28,0C-28,-2.209 -26.209,-4 -24,-4L-4,-4C-1.791,-4 0,-2.209 0,0L0,20Z" style="fill:rgb(35,31,32);fill-rule:nonzero;"/>
                    </g>
                </g>
                <g transform="matrix(1,0,0,1,22,21)">
                    <path d="M0,24C-1.103,24 -2,23.103 -2,22L-2,2C-2,0.897 -1.103,0 0,0L20,0C21.103,0 22,0.897 22,2L22,22C22,23.103 21.103,24 20,24L0,24Z" style="fill:white;fill-rule:nonzero;"/>
                </g>
                <g transform="matrix(1,0,0,1,42,47)">
                    <path d="M0,-28L-20,-28C-22.209,-28 -24,-26.209 -24,-24L-24,-4C-24,-1.791 -22.209,0 -20,0L0,0C2.209,0 4,-1.791 4,-4L4,-24C4,-26.209 2.209,-28 0,-28M0,-4L-20,-4L-20,-24L0,-24L0,-4Z" style="fill:rgb(79,93,115);fill-rule:nonzero;"/>
                </g>
                <g opacity="0.2">
                    <g transform="matrix(1,0,0,1,32.4517,17.72)">
                        <path d="M0,23.28C-0.618,23.28 -1.207,22.993 -1.588,22.495L-7.707,14.495C-8.378,13.618 -8.21,12.363 -7.333,11.692C-6.456,11.022 -5.201,11.188 -4.53,12.065L-0.343,17.539C1.967,13.384 6.983,5.756 14.963,0.6C15.89,0 17.129,0.267 17.728,1.195C18.328,2.122 18.062,3.361 17.134,3.96C6.926,10.555 1.885,21.963 1.835,22.077C1.552,22.727 0.947,23.179 0.243,23.265C0.162,23.275 0.081,23.28 0,23.28" style="fill:rgb(35,31,32);fill-rule:nonzero;"/>
                    </g>
                </g>
                <g transform="matrix(1,0,0,1,32.4521,15.722)">
                    <path d="M0,23.278C-0.618,23.278 -1.207,22.991 -1.589,22.493L-7.708,14.493C-8.379,13.616 -8.212,12.36 -7.334,11.689C-6.457,11.019 -5.2,11.186 -4.53,12.063L-0.343,17.538C1.966,13.382 6.982,5.755 14.962,0.598C15.891,0 17.128,0.265 17.728,1.192C18.327,2.12 18.062,3.358 17.134,3.958C6.926,10.553 1.884,21.961 1.834,22.075C1.552,22.725 0.946,23.177 0.242,23.263C0.161,23.273 0.08,23.278 0,23.278" style="fill:rgb(199,92,92);fill-rule:nonzero;"/>
                </g>
            </g>
        </g>
    </g>
</svg>
