<?xml version="1.0" encoding="UTF-8" standalone="no"?>
<!DOCTYPE svg PUBLIC "-//W3C//DTD SVG 1.1//EN" "http://www.w3.org/Graphics/SVG/1.1/DTD/svg11.dtd">
<svg width="100%" height="100%" viewBox="0 0 356 356" version="1.1" xmlns="http://www.w3.org/2000/svg" xmlns:xlink="http://www.w3.org/1999/xlink" xml:space="preserve" xmlns:serif="http://www.serif.com/" style="fill-rule:evenodd;clip-rule:evenodd;stroke-linejoin:round;stroke-miterlimit:2;">
    <g transform="matrix(5.55556,0,0,5.55556,-1200,-1600)">
        <g id="Page-56" serif:id="Page 56" transform="matrix(1,0,0,1,216,288)">
            <rect x="0" y="0" width="64" height="64" style="fill:none;"/>
            <g id="Layer-1" serif:id="Layer 1">
                <g transform="matrix(0,-1,-1,0,32,0)">
                    <path d="M-32,-32C-49.673,-32 -64,-17.673 -64,0C-64,17.673 -49.673,32 -32,32C-14.327,32 0,17.673 0,0C0,-17.673 -14.327,-32 -32,-32" style="fill:rgb(79,93,115);fill-rule:nonzero;"/>
                </g>
                <g opacity="0.2">
                    <g transform="matrix(1,0,0,1,16,55)">
                        <path d="M0,-34L0,-2.615C0,-1.559 0.651,-0.604 1.645,-0.199C1.976,-0.065 2.323,0 2.667,0C3.36,0 4.043,-0.267 4.552,-0.766L16,-11.994L27.448,-0.766C27.957,-0.267 28.64,0 29.333,0C29.677,0 30.024,-0.065 30.352,-0.199C31.349,-0.604 32,-1.559 32,-2.615L32,-34L0,-34Z" style="fill:rgb(35,31,32);fill-rule:nonzero;"/>
                    </g>
                </g>
                <g transform="matrix(1,0,0,1,16,53)">
                    <path d="M0,-34L0,-2.615C0,-1.559 0.651,-0.604 1.645,-0.199C1.976,-0.065 2.323,0 2.667,0C3.36,0 4.043,-0.267 4.552,-0.766L16,-11.994L27.448,-0.766C27.957,-0.267 28.64,0 29.333,0C29.677,0 30.024,-0.065 30.352,-0.199C31.349,-0.604 32,-1.559 32,-2.615L32,-34L0,-34Z" style="fill:rgb(245,207,135);fill-rule:nonzero;"/>
                </g>
                <g opacity="0.2">
                    <g transform="matrix(1,0,0,1,48,17)">
                        <path d="M0,4L0,2C0,0.896 -1.195,0 -2.667,0L-29.333,0C-30.805,0 -32,0.896 -32,2L-32,4L0,4Z" style="fill:rgb(35,31,32);fill-rule:nonzero;"/>
                    </g>
                </g>
                <g transform="matrix(1,0,0,1,48,12)">
                    <path d="M0,7L0,2C0,0.896 -1.195,0 -2.667,0L-29.333,0C-30.805,0 -32,0.896 -32,2L-32,7L0,7Z" style="fill:rgb(224,153,94);fill-rule:nonzero;"/>
                </g>
            </g>
        </g>
    </g>
</svg>
