<?xml version="1.0" encoding="UTF-8" standalone="no"?>
<!DOCTYPE svg PUBLIC "-//W3C//DTD SVG 1.1//EN" "http://www.w3.org/Graphics/SVG/1.1/DTD/svg11.dtd">
<svg width="100%" height="100%" viewBox="0 0 356 356" version="1.1" xmlns="http://www.w3.org/2000/svg" xmlns:xlink="http://www.w3.org/1999/xlink" xml:space="preserve" xmlns:serif="http://www.serif.com/" style="fill-rule:evenodd;clip-rule:evenodd;stroke-linejoin:round;stroke-miterlimit:2;">
    <g transform="matrix(5.55556,0,0,5.55556,-400,-1600)">
        <g id="Page-54" serif:id="Page 54" transform="matrix(1,0,0,1,72,288)">
            <rect x="0" y="0" width="64" height="64" style="fill:none;"/>
            <g id="Layer-1" serif:id="Layer 1">
                <g transform="matrix(0,-1,-1,0,32,0)">
                    <path d="M-32,-32C-49.673,-32 -64,-17.673 -64,0C-64,17.673 -49.673,32 -32,32C-14.327,32 0,17.673 0,0C0,-17.673 -14.327,-32 -32,-32" style="fill:rgb(199,92,92);fill-rule:nonzero;"/>
                </g>
                <g opacity="0.2">
                    <g transform="matrix(0.889907,-0.456142,-0.456142,-0.889907,40.5881,49.5828)">
                        <path d="M-10.57,-1.793C-10.57,-1.793 -23.481,12.478 -16.783,25.546L-10.57,37.668C-10.57,37.668 -2.26,41.143 8.588,35.583L-10.57,-1.793Z" style="fill:rgb(35,31,32);fill-rule:nonzero;"/>
                    </g>
                </g>
                <g opacity="0.2">
                    <g transform="matrix(0.889907,0.456142,0.456142,-0.889907,23.4119,49.5828)">
                        <path d="M10.57,-1.793C10.57,-1.793 23.481,12.478 16.783,25.546L10.57,37.668C10.57,37.668 2.26,41.143 -8.588,35.583L10.57,-1.793Z" style="fill:rgb(35,31,32);fill-rule:nonzero;"/>
                    </g>
                </g>
                <g transform="matrix(0.889907,-0.456142,-0.456142,-0.889907,40.5881,47.5828)">
                    <path d="M-10.57,-1.793C-10.57,-1.793 -23.481,12.478 -16.783,25.546L-10.57,37.668C-10.57,37.668 -2.26,41.143 8.588,35.583L-10.57,-1.793Z" style="fill:rgb(245,207,135);fill-rule:nonzero;"/>
                </g>
                <g transform="matrix(0.889907,0.456142,0.456142,-0.889907,23.4119,47.5828)">
                    <path d="M10.57,-1.793C10.57,-1.793 23.481,12.478 16.783,25.546L10.57,37.668C10.57,37.668 2.26,41.143 -8.588,35.583L10.57,-1.793Z" style="fill:rgb(224,153,94);fill-rule:nonzero;"/>
                </g>
            </g>
        </g>
    </g>
</svg>
