<?xml version="1.0" encoding="UTF-8" standalone="no"?>
<!DOCTYPE svg PUBLIC "-//W3C//DTD SVG 1.1//EN" "http://www.w3.org/Graphics/SVG/1.1/DTD/svg11.dtd">
<svg width="100%" height="100%" viewBox="0 0 356 356" version="1.1" xmlns="http://www.w3.org/2000/svg" xmlns:xlink="http://www.w3.org/1999/xlink" xml:space="preserve" xmlns:serif="http://www.serif.com/" style="fill-rule:evenodd;clip-rule:evenodd;stroke-linejoin:round;stroke-miterlimit:2;">
    <g transform="matrix(5.55556,0,0,5.55556,-1600,-2400)">
        <g id="Page-83" serif:id="Page 83" transform="matrix(1,0,0,1,288,432)">
            <rect x="0" y="0" width="64" height="64" style="fill:none;"/>
            <g id="Layer-1" serif:id="Layer 1">
                <g transform="matrix(0,-1,-1,0,32,0)">
                    <path d="M-32,-32C-49.673,-32 -64,-17.673 -64,0C-64,17.673 -49.673,32 -32,32C-14.327,32 0,17.673 0,0C0,-17.673 -14.327,-32 -32,-32" style="fill:rgb(79,93,115);fill-rule:nonzero;"/>
                </g>
                <g transform="matrix(1,0,0,1,16,34)">
                    <path d="M0,2C0,3.105 -0.895,4 -2,4C-3.105,4 -4,3.105 -4,2L-4,0C-4,-1.105 -3.105,-2 -2,-2C-0.895,-2 0,-1.105 0,0L0,2Z" style="fill:rgb(199,92,92);fill-rule:nonzero;"/>
                </g>
                <g transform="matrix(1,0,0,1,24,26)">
                    <path d="M0,2C0,3.105 -0.895,4 -2,4C-3.105,4 -4,3.105 -4,2L-4,0C-4,-1.105 -3.105,-2 -2,-2C-0.895,-2 0,-1.105 0,0L0,2Z" style="fill:rgb(245,207,135);fill-rule:nonzero;"/>
                </g>
                <g transform="matrix(1,0,0,1,44.0004,26)">
                    <path d="M0,2C0,3.105 -0.895,4 -2,4C-3.105,4 -4,3.105 -4,2L-4,0C-4,-1.105 -3.105,-2 -2,-2C-0.895,-2 0,-1.105 0,0L0,2Z" style="fill:rgb(245,207,135);fill-rule:nonzero;"/>
                </g>
                <g transform="matrix(1,0,0,1,48,34)">
                    <path d="M0,2C0,3.105 0.895,4 2,4C3.105,4 4,3.105 4,2L4,0C4,-1.105 3.105,-2 2,-2C0.895,-2 0,-1.105 0,0L0,2Z" style="fill:rgb(118,194,175);fill-rule:nonzero;"/>
                </g>
                <g opacity="0.2">
                    <g transform="matrix(1,0,0,1,32,28.6586)">
                        <path d="M0,3.936L17,8.733C19.891,9.595 20,8.322 20,6.335L20,7.534C20,5.547 20.094,4.18 18.25,3.055L0,-5.659L-18.25,3.055C-20.094,4.18 -20,5.547 -20,7.534L-20,6.335C-20,8.322 -19.891,9.595 -17,8.733L0,3.936Z" style="fill:rgb(35,31,32);fill-rule:nonzero;"/>
                    </g>
                </g>
                <g transform="matrix(1,0,0,1,32,26.6586)">
                    <path d="M0,3.936L17,8.733C19.891,9.595 20,8.322 20,6.335L20,7.534C20,5.547 20.094,4.18 18.25,3.055L0,-5.659L-18.25,3.055C-20.094,4.18 -20,5.547 -20,7.534L-20,6.335C-20,8.322 -19.891,9.595 -17,8.733L0,3.936Z" style="fill:rgb(224,224,209);fill-rule:nonzero;"/>
                </g>
                <g transform="matrix(1,0,0,1,51.9979,33.0871)">
                    <path d="M0,0.275C0,0.307 0.002,0.337 0.002,0.369L0.002,-0.094C0.002,0.032 0.002,0.155 0,0.275" style="fill:rgb(224,224,209);fill-rule:nonzero;"/>
                </g>
                <g transform="matrix(1,0,0,1,52,34.1924)">
                    <path d="M0,-0.736L0,0C0,-0.255 0.001,-0.5 0,-0.736" style="fill:rgb(224,224,209);fill-rule:nonzero;"/>
                </g>
                <g opacity="0.2">
                    <g transform="matrix(1,0,0,1,32,31.888)">
                        <path d="M0,-10.888L-5.02,-8.491L-4.583,0L0,-1.293L4.583,0L5.02,-8.491L0,-10.888Z" style="fill:rgb(35,31,32);fill-rule:nonzero;"/>
                    </g>
                </g>
                <g transform="matrix(1,0,0,1,35,12.8824)">
                    <path d="M0,30.736C0,32.327 -0.343,33.618 -2,33.618L-4,33.618C-5.657,33.618 -6,32.327 -6,30.736L-7,3.881C-7,2.289 -4.657,-2.882 -3,-2.882C-1.343,-2.882 1,2.289 1,3.881L0,30.736Z" style="fill:rgb(224,224,209);fill-rule:nonzero;"/>
                </g>
                <g opacity="0.2">
                    <g transform="matrix(1,0,0,1,42.9917,47.7356)">
                        <path d="M0,1.111L-10.992,-5.736L-21.983,1.111C-23.136,2.028 -22.992,3.401 -22.992,5.021C-22.992,5.021 -22.799,6.847 -20.992,6.145L-10.992,2.264L-0.991,6.145C0.815,6.847 1.008,5.021 1.008,5.021C1.008,3.401 1.152,2.028 0,1.111" style="fill:rgb(35,31,32);fill-rule:nonzero;"/>
                    </g>
                </g>
                <g transform="matrix(1,0,0,1,42.9917,45.7356)">
                    <path d="M0,1.111L-10.992,-5.736L-21.983,1.111C-23.136,2.028 -22.992,3.401 -22.992,5.021C-22.992,5.021 -22.799,6.847 -20.992,6.145L-10.992,2.264L-0.991,6.145C0.815,6.847 1.008,5.021 1.008,5.021C1.008,3.401 1.152,2.028 0,1.111" style="fill:rgb(224,224,209);fill-rule:nonzero;"/>
                </g>
                <g opacity="0.2">
                    <g transform="matrix(1,0,0,1,34,46)">
                        <path d="M0,5C0,6.105 -0.895,7 -2,7C-3.105,7 -4,6.105 -4,5L-4,0C-4,-1.105 -3.105,-2 -2,-2C-0.895,-2 0,-1.105 0,0L0,5Z" style="fill:rgb(35,31,32);fill-rule:nonzero;"/>
                    </g>
                </g>
                <g transform="matrix(1,0,0,1,34,44)">
                    <path d="M0,5C0,6.105 -0.895,7 -2,7C-3.105,7 -4,6.105 -4,5L-4,0C-4,-1.105 -3.105,-2 -2,-2C-0.895,-2 0,-1.105 0,0L0,5Z" style="fill:rgb(224,224,209);fill-rule:nonzero;"/>
                </g>
                <g transform="matrix(1,0,0,1,32,10)">
                    <path d="M0,6C1.163,6 2.176,4.777 2.714,2.967C1.907,1.401 0.862,0 0,0C-0.862,0 -1.907,1.401 -2.714,2.967C-2.176,4.777 -1.163,6 0,6" style="fill:rgb(119,179,212);fill-rule:nonzero;"/>
                </g>
            </g>
        </g>
    </g>
</svg>
