<?xml version="1.0" encoding="UTF-8" standalone="no"?>
<!DOCTYPE svg PUBLIC "-//W3C//DTD SVG 1.1//EN" "http://www.w3.org/Graphics/SVG/1.1/DTD/svg11.dtd">
<svg width="100%" height="100%" viewBox="0 0 356 356" version="1.1" xmlns="http://www.w3.org/2000/svg" xmlns:xlink="http://www.w3.org/1999/xlink" xml:space="preserve" xmlns:serif="http://www.serif.com/" style="fill-rule:evenodd;clip-rule:evenodd;stroke-linejoin:round;stroke-miterlimit:2;">
    <g transform="matrix(5.55556,0,0,5.55556,0,-800)">
        <g id="Page-27" serif:id="Page 27" transform="matrix(1,0,0,1,0,144)">
            <rect x="0" y="0" width="64" height="64" style="fill:none;"/>
            <g id="Layer-1" serif:id="Layer 1">
                <g transform="matrix(0,-1,-1,0,32,0)">
                    <path d="M-32,-32C-49.673,-32 -64,-17.673 -64,0C-64,17.673 -49.673,32 -32,32C-14.327,32 0,17.673 0,0C0,-17.673 -14.327,-32 -32,-32" style="fill:rgb(224,153,94);fill-rule:nonzero;"/>
                </g>
                <g opacity="0.2">
                    <g transform="matrix(1,0,0,1,45.5,12.333)">
                        <path d="M0,20.834L-5,20.834L-5,13.5C-5,8.813 -8.813,5 -13.5,5C-18.187,5 -22,8.813 -22,13.5L-22,20.834L-27,20.834L-27,13.5C-27,6.056 -20.944,0 -13.5,0C-6.056,0 0,6.056 0,13.5L0,20.834Z" style="fill:rgb(35,31,32);fill-rule:nonzero;"/>
                    </g>
                </g>
                <g transform="matrix(1,0,0,1,45.5,10.333)">
                    <path d="M0,20.834L-5,20.834L-5,13.5C-5,8.813 -8.813,5 -13.5,5C-18.187,5 -22,8.813 -22,13.5L-22,20.834L-27,20.834L-27,13.5C-27,6.056 -20.944,0 -13.5,0C-6.056,0 0,6.056 0,13.5L0,20.834Z" style="fill:rgb(79,93,115);fill-rule:nonzero;"/>
                </g>
                <g transform="matrix(1,0,0,1,32,44)">
                    <path d="M0,-12C-2.209,-12 -4,-10.209 -4,-8C-4,-6.523 -3.191,-5.248 -2,-4.555L-2,-2C-2,-0.895 -1.105,0 0,0C1.105,0 2,-0.895 2,-2L2,-4.555C3.191,-5.248 4,-6.523 4,-8C4,-10.209 2.209,-12 0,-12" style="fill:rgb(79,93,115);fill-rule:nonzero;"/>
                </g>
                <g opacity="0.2">
                    <g transform="matrix(1,0,0,1,34,37.5552)">
                        <path d="M0,3.89L0,6.445C0,7.549 -0.895,8.445 -2,8.445C-3.105,8.445 -4,7.549 -4,6.445L-4,3.89C-5.191,3.197 -6,1.922 -6,0.445C-6,-1.764 -4.209,-3.555 -2,-3.555C0.209,-3.555 2,-1.764 2,0.445C2,1.922 1.191,3.197 0,3.89M13,-10.555L-17,-10.555C-18.657,-10.555 -20,-9.212 -20,-7.555L-20,11.445C-20,13.102 -18.657,14.445 -17,14.445L13,14.445C14.657,14.445 16,13.102 16,11.445L16,-7.555C16,-9.212 14.657,-10.555 13,-10.555" style="fill:rgb(35,31,32);fill-rule:nonzero;"/>
                    </g>
                </g>
                <g transform="matrix(1,0,0,1,34,35.5552)">
                    <path d="M0,3.89L0,6.445C0,7.549 -0.895,8.445 -2,8.445C-3.105,8.445 -4,7.549 -4,6.445L-4,3.89C-5.191,3.197 -6,1.922 -6,0.445C-6,-1.764 -4.209,-3.555 -2,-3.555C0.209,-3.555 2,-1.764 2,0.445C2,1.922 1.191,3.197 0,3.89M13,-10.555L-17,-10.555C-18.657,-10.555 -20,-9.212 -20,-7.555L-20,11.445C-20,13.102 -18.657,14.445 -17,14.445L13,14.445C14.657,14.445 16,13.102 16,11.445L16,-7.555C16,-9.212 14.657,-10.555 13,-10.555" style="fill:white;fill-rule:nonzero;"/>
                </g>
            </g>
        </g>
    </g>
</svg>
