<?xml version="1.0" encoding="UTF-8" standalone="no"?>
<!DOCTYPE svg PUBLIC "-//W3C//DTD SVG 1.1//EN" "http://www.w3.org/Graphics/SVG/1.1/DTD/svg11.dtd">
<svg width="100%" height="100%" viewBox="0 0 356 356" version="1.1" xmlns="http://www.w3.org/2000/svg" xmlns:xlink="http://www.w3.org/1999/xlink" xml:space="preserve" xmlns:serif="http://www.serif.com/" style="fill-rule:evenodd;clip-rule:evenodd;stroke-linejoin:round;stroke-miterlimit:2;">
    <g transform="matrix(5.55556,0,0,5.55556,-3600,-2000)">
        <g id="Page-75" serif:id="Page 75" transform="matrix(1,0,0,1,648,360)">
            <rect x="0" y="0" width="64" height="64" style="fill:none;"/>
            <clipPath id="_clip1">
                <rect x="0" y="0" width="64" height="64"/>
            </clipPath>
            <g clip-path="url(#_clip1)">
                <g id="Layer-1" serif:id="Layer 1">
                    <g transform="matrix(0,-1,-1,0,31.8333,1)">
                        <path d="M-32,-32C-49.673,-32 -64,-17.673 -64,0C-64,17.673 -49.673,32 -32,32C-14.327,32 0,17.673 0,0C0,-17.673 -14.327,-32 -32,-32" style="fill:rgb(224,153,94);fill-rule:nonzero;"/>
                    </g>
                    <g opacity="0.2">
                        <g transform="matrix(1,0,0,1,37.5625,16.9835)">
                            <path d="M0,11.079C-0.247,11.079 -0.494,10.988 -0.687,10.805C-1.088,10.425 -1.106,9.792 -0.726,9.392C-0.448,9.098 6.124,2.181 9.922,0.25C10.414,0 11.017,0.196 11.267,0.688C11.517,1.181 11.32,1.783 10.828,2.033C7.337,3.808 0.792,10.697 0.726,10.767C0.529,10.974 0.265,11.079 0,11.079" style="fill:rgb(35,31,32);fill-rule:nonzero;"/>
                        </g>
                    </g>
                    <g transform="matrix(0.757625,-0.65269,-0.65269,-0.757625,41.7367,27.3652)">
                        <path d="M-1.66,4.469C-1.66,4.469 8.016,5.455 12.035,4.469" style="fill:rgb(224,224,209);fill-rule:nonzero;"/>
                    </g>
                    <g transform="matrix(1,0,0,1,37.5625,14.9855)">
                        <path d="M0,11.077C-0.247,11.077 -0.494,10.986 -0.687,10.804C-1.088,10.424 -1.106,9.791 -0.726,9.39C-0.448,9.096 6.124,2.18 9.922,0.248C10.416,0 11.016,0.193 11.267,0.686C11.517,1.179 11.32,1.78 10.828,2.031C7.337,3.806 0.792,10.695 0.726,10.765C0.529,10.973 0.265,11.077 0,11.077" style="fill:rgb(224,224,209);fill-rule:nonzero;"/>
                    </g>
                    <g opacity="0.2">
                        <g transform="matrix(0.673728,-0.738979,-0.738979,-0.673728,43.9321,36.5247)">
                            <path d="M-11.824,-5.22C-20.66,-5.221 -27.824,1.943 -27.824,10.779C-27.824,19.616 -20.661,26.78 -11.824,26.779C-2.988,26.779 4.176,19.616 4.176,10.779C4.176,1.943 -2.988,-5.22 -11.824,-5.22" style="fill:rgb(35,31,32);fill-rule:nonzero;"/>
                        </g>
                    </g>
                    <g opacity="0.2">
                        <g transform="matrix(1,0,0,1,38.8602,22.3408)">
                            <path d="M0,11.718C-1.116,12.942 -2.692,13.323 -3.519,12.569L-8.513,8.017C-9.34,7.262 -9.106,5.658 -7.99,4.434L-3.947,0C-2.831,-1.224 -1.255,-1.605 -0.428,-0.851L4.565,3.701C5.393,4.456 5.159,6.06 4.042,7.284L0,11.718Z" style="fill:rgb(35,31,32);fill-rule:nonzero;"/>
                        </g>
                    </g>
                    <g transform="matrix(0.673728,-0.738979,-0.738979,-0.673728,43.9321,34.5247)">
                        <path d="M-11.824,-5.22C-20.66,-5.221 -27.824,1.943 -27.824,10.779C-27.824,19.616 -20.661,26.78 -11.824,26.779C-2.988,26.779 4.176,19.616 4.176,10.779C4.176,1.943 -2.988,-5.22 -11.824,-5.22" style="fill:rgb(79,93,115);fill-rule:nonzero;"/>
                    </g>
                    <g transform="matrix(1,0,0,1,38.8602,20.3408)">
                        <path d="M0,11.718C-1.116,12.942 -2.692,13.323 -3.519,12.569L-8.513,8.017C-9.34,7.262 -9.106,5.658 -7.99,4.434L-3.947,0C-2.831,-1.224 -1.255,-1.605 -0.428,-0.851L4.565,3.701C5.393,4.456 5.159,6.06 4.042,7.284L0,11.718Z" style="fill:rgb(79,93,115);fill-rule:nonzero;"/>
                    </g>
                    <g opacity="0.2">
                        <g transform="matrix(0,-1,-1,0,47,14)">
                            <path d="M-4,-4C-6.209,-4 -8,-2.209 -8,0C-8,2.209 -6.209,4 -4,4C-1.791,4 0,2.209 0,0C0,-2.209 -1.791,-4 -4,-4" style="fill:rgb(35,31,32);fill-rule:nonzero;"/>
                        </g>
                    </g>
                    <g transform="matrix(0,-1,-1,0,47,13)">
                        <path d="M-4,-4C-6.209,-4 -8,-2.209 -8,0C-8,2.209 -6.209,4 -4,4C-1.791,4 0,2.209 0,0C0,-2.209 -1.791,-4 -4,-4" style="fill:rgb(199,92,92);fill-rule:nonzero;"/>
                    </g>
                    <g transform="matrix(0,-1,-1,0,47,15)">
                        <path d="M-2,-2C-3.105,-2 -4,-1.105 -4,0C-4,1.105 -3.105,2 -2,2C-0.895,2 0,1.105 0,0C0,-1.105 -0.895,-2 -2,-2" style="fill:rgb(245,207,135);fill-rule:nonzero;"/>
                    </g>
                </g>
            </g>
        </g>
    </g>
</svg>
