<?xml version="1.0" encoding="UTF-8" standalone="no"?>
<!DOCTYPE svg PUBLIC "-//W3C//DTD SVG 1.1//EN" "http://www.w3.org/Graphics/SVG/1.1/DTD/svg11.dtd">
<svg width="100%" height="100%" viewBox="0 0 356 356" version="1.1" xmlns="http://www.w3.org/2000/svg" xmlns:xlink="http://www.w3.org/1999/xlink" xml:space="preserve" xmlns:serif="http://www.serif.com/" style="fill-rule:evenodd;clip-rule:evenodd;stroke-linejoin:round;stroke-miterlimit:2;">
    <g transform="matrix(5.55556,0,0,5.55556,-3200,-800)">
        <g id="Page-35" serif:id="Page 35" transform="matrix(1,0,0,1,576,144)">
            <rect x="0" y="0" width="64" height="64" style="fill:none;"/>
            <g id="Layer-1" serif:id="Layer 1">
                <g transform="matrix(0,-1,-1,0,32,0)">
                    <path d="M-32,-32C-49.673,-32 -64,-17.673 -64,0C-64,17.673 -49.673,32 -32,32C-14.327,32 0,17.673 0,0C0,-17.673 -14.327,-32 -32,-32" style="fill:rgb(224,153,94);fill-rule:nonzero;"/>
                </g>
                <g opacity="0.2">
                    <g transform="matrix(1,0,0,1,32,50)">
                        <path d="M20,-27.077L-17.5,-27.077C-18.88,-27.077 -20,-26.014 -20,-24.655L-20,-2.462C-20,-1.103 -18.88,0 -17.5,0L17.5,0C18.88,0 20,-1.103 20,-2.462L20,-27.077Z" style="fill:rgb(35,31,32);fill-rule:nonzero;"/>
                    </g>
                </g>
                <g transform="matrix(1,0,0,1,32,48)">
                    <path d="M20,-27.077L-17.5,-27.077C-18.88,-27.077 -20,-26.014 -20,-24.655L-20,-2.462C-20,-1.103 -18.88,0 -17.5,0L17.5,0C18.88,0 20,-1.103 20,-2.462L20,-27.077Z" style="fill:white;fill-rule:nonzero;"/>
                </g>
                <g transform="matrix(1,0,0,1,52,18.4605)">
                    <path d="M0,0.001C0,-1.358 -1.12,-2.461 -2.5,-2.461L-15,-2.461C-16.38,-2.461 -17.5,-1.358 -17.5,0.001C-17.5,0.001 -17.825,2.258 -20,2.462L0,2.462L0,0.001Z" style="fill:rgb(224,224,209);fill-rule:nonzero;"/>
                </g>
            </g>
        </g>
    </g>
</svg>
