<?xml version="1.0" encoding="UTF-8" standalone="no"?>
<!DOCTYPE svg PUBLIC "-//W3C//DTD SVG 1.1//EN" "http://www.w3.org/Graphics/SVG/1.1/DTD/svg11.dtd">
<svg width="100%" height="100%" viewBox="0 0 356 356" version="1.1" xmlns="http://www.w3.org/2000/svg" xmlns:xlink="http://www.w3.org/1999/xlink" xml:space="preserve" xmlns:serif="http://www.serif.com/" style="fill-rule:evenodd;clip-rule:evenodd;stroke-linejoin:round;stroke-miterlimit:2;">
    <g transform="matrix(5.55556,0,0,5.55556,0,-400)">
        <g id="Page-14" serif:id="Page 14" transform="matrix(1,0,0,1,0,72)">
            <rect x="0" y="0" width="64" height="64" style="fill:none;"/>
            <g id="Layer-1" serif:id="Layer 1">
                <g transform="matrix(0,-1,-1,0,32,0)">
                    <path d="M-32,-32C-49.673,-32 -64,-17.673 -64,0C-64,17.673 -49.673,32 -32,32C-14.327,32 0,17.673 0,0C0,-17.673 -14.327,-32 -32,-32" style="fill:rgb(199,92,92);fill-rule:nonzero;"/>
                </g>
                <g opacity="0.2">
                    <g transform="matrix(1,0,0,1,52.8722,37.937)">
                        <path d="M0,-9.874C-0.31,-10.825 -1.133,-11.519 -2.121,-11.664L-13.448,-13.309L-18.515,-23.572C-18.959,-24.471 -19.871,-25.038 -20.873,-25.038C-21.874,-25.038 -22.786,-24.471 -23.23,-23.572L-28.295,-13.309L-39.622,-11.664C-40.613,-11.519 -41.435,-10.825 -41.743,-9.874C-42.053,-8.923 -41.795,-7.879 -41.078,-7.18L-32.881,0.809L-34.815,12.092C-34.983,13.078 -34.579,14.074 -33.769,14.662C-33.314,14.996 -32.773,15.164 -32.226,15.164C-31.808,15.164 -31.388,15.065 -31.004,14.862L-20.873,9.535L-10.741,14.862C-10.358,15.065 -9.937,15.164 -9.519,15.164C-8.975,15.164 -8.431,14.996 -7.974,14.662C-7.164,14.074 -6.76,13.078 -6.928,12.092L-8.862,0.809L-0.665,-7.18C0.05,-7.877 0.307,-8.923 0,-9.874" style="fill:rgb(35,31,32);fill-rule:nonzero;"/>
                    </g>
                </g>
                <g transform="matrix(1,0,0,1,52.8722,35.937)">
                    <path d="M0,-9.874C-0.31,-10.825 -1.133,-11.519 -2.121,-11.664L-13.448,-13.309L-18.515,-23.572C-18.959,-24.471 -19.871,-25.038 -20.873,-25.038C-21.874,-25.038 -22.786,-24.471 -23.23,-23.572L-28.295,-13.309L-39.622,-11.664C-40.613,-11.519 -41.435,-10.825 -41.743,-9.874C-42.053,-8.923 -41.795,-7.879 -41.078,-7.18L-32.881,0.809L-34.815,12.092C-34.983,13.078 -34.579,14.074 -33.769,14.662C-33.314,14.996 -32.773,15.164 -32.226,15.164C-31.808,15.164 -31.388,15.065 -31.004,14.862L-20.873,9.535L-10.741,14.862C-10.358,15.065 -9.937,15.164 -9.519,15.164C-8.975,15.164 -8.431,14.996 -7.974,14.662C-7.164,14.074 -6.76,13.078 -6.928,12.092L-8.862,0.809L-0.665,-7.18C0.05,-7.877 0.307,-8.923 0,-9.874" style="fill:rgb(245,207,135);fill-rule:nonzero;"/>
                </g>
            </g>
        </g>
    </g>
</svg>
