<?xml version="1.0" encoding="UTF-8" standalone="no"?>
<!DOCTYPE svg PUBLIC "-//W3C//DTD SVG 1.1//EN" "http://www.w3.org/Graphics/SVG/1.1/DTD/svg11.dtd">
<svg width="100%" height="100%" viewBox="0 0 356 356" version="1.1" xmlns="http://www.w3.org/2000/svg" xmlns:xlink="http://www.w3.org/1999/xlink" xml:space="preserve" xmlns:serif="http://www.serif.com/" style="fill-rule:evenodd;clip-rule:evenodd;stroke-linejoin:round;stroke-miterlimit:2;">
    <g transform="matrix(5.55556,0,0,5.55556,-4800,-800)">
        <g id="Page-39" serif:id="Page 39" transform="matrix(1,0,0,1,864,144)">
            <rect x="0" y="0" width="64" height="64" style="fill:none;"/>
            <g id="Layer-1" serif:id="Layer 1">
                <g transform="matrix(0,-1,-1,0,32,0)">
                    <path d="M-32,-32C-49.673,-32 -64,-17.673 -64,0C-64,17.673 -49.673,32 -32,32C-14.327,32 0,17.673 0,0C0,-17.673 -14.327,-32 -32,-32" style="fill:rgb(119,179,212);fill-rule:nonzero;"/>
                </g>
                <g opacity="0.2">
                    <g transform="matrix(1,0,0,1,48,18)">
                        <path d="M0,32C0,34.209 -1.791,36 -4,36L-28,36C-30.209,36 -32,34.209 -32,32L-32,0C-32,-2.209 -30.209,-4 -28,-4L-4,-4C-1.791,-4 0,-2.209 0,0L0,32Z" style="fill:rgb(35,31,32);fill-rule:nonzero;"/>
                    </g>
                </g>
                <g transform="matrix(1,0,0,1,48,16)">
                    <path d="M0,32C0,34.209 -1.791,36 -4,36L-28,36C-30.209,36 -32,34.209 -32,32L-32,0C-32,-2.209 -30.209,-4 -28,-4L-4,-4C-1.791,-4 0,-2.209 0,0L0,32Z" style="fill:rgb(79,93,115);fill-rule:nonzero;"/>
                </g>
                <g opacity="0.2">
                    <g transform="matrix(1,0,0,1,35,22.5)">
                        <path d="M0,-8.5L0,-0.654C0,-0.39 0.163,-0.151 0.411,-0.05C0.494,-0.016 0.581,0 0.667,0C0.84,0 1.011,-0.067 1.138,-0.192L4,-2.999L6.862,-0.192C6.989,-0.067 7.16,0 7.333,0C7.419,0 7.506,-0.016 7.588,-0.05C7.837,-0.151 8,-0.39 8,-0.654L8,-8.5L0,-8.5Z" style="fill:rgb(35,31,32);fill-rule:nonzero;"/>
                    </g>
                </g>
                <g transform="matrix(1,0,0,1,35,20.5)">
                    <path d="M0,-8.5L0,-0.654C0,-0.39 0.163,-0.151 0.411,-0.05C0.494,-0.016 0.581,0 0.667,0C0.84,0 1.011,-0.067 1.138,-0.192L4,-2.999L6.862,-0.192C6.989,-0.067 7.16,0 7.333,0C7.419,0 7.506,-0.016 7.588,-0.05C7.837,-0.151 8,-0.39 8,-0.654L8,-8.5L0,-8.5Z" style="fill:rgb(199,92,92);fill-rule:nonzero;"/>
                </g>
                <g transform="matrix(-1,0,0,1,43,0)">
                    <rect x="20" y="12" width="3" height="40" style="fill:rgb(224,224,209);"/>
                </g>
            </g>
        </g>
    </g>
</svg>
