<?xml version="1.0" encoding="UTF-8" standalone="no"?>
<!DOCTYPE svg PUBLIC "-//W3C//DTD SVG 1.1//EN" "http://www.w3.org/Graphics/SVG/1.1/DTD/svg11.dtd">
<svg width="100%" height="100%" viewBox="0 0 356 356" version="1.1" xmlns="http://www.w3.org/2000/svg" xmlns:xlink="http://www.w3.org/1999/xlink" xml:space="preserve" xmlns:serif="http://www.serif.com/" style="fill-rule:evenodd;clip-rule:evenodd;stroke-linejoin:round;stroke-miterlimit:2;">
    <g transform="matrix(5.55556,0,0,5.55556,-400,-2000)">
        <g id="Page-67" serif:id="Page 67" transform="matrix(1,0,0,1,72,360)">
            <rect x="0" y="0" width="64" height="64" style="fill:none;"/>
            <g id="Layer-1" serif:id="Layer 1">
                <g transform="matrix(0,-1,-1,0,32,0)">
                    <path d="M-32,-32C-49.673,-32 -64,-17.673 -64,0C-64,17.673 -49.673,32 -32,32C-14.327,32 0,17.673 0,0C0,-17.673 -14.327,-32 -32,-32" style="fill:rgb(119,179,212);fill-rule:nonzero;"/>
                </g>
                <g opacity="0.2">
                    <g transform="matrix(1,0,0,1,26,10)">
                        <path d="M0,46C-4.411,46 -8,42.411 -8,38C-8,36.896 -7.104,36 -6,36C-4.896,36 -4,36.896 -4,38C-4,40.206 -2.206,42 0,42C2.206,42 4,40.206 4,38L4,2C4,0.896 4.896,0 6,0C7.104,0 8,0.896 8,2L8,38C8,42.411 4.411,46 0,46" style="fill:rgb(35,31,32);fill-rule:nonzero;"/>
                    </g>
                </g>
                <g transform="matrix(1,0,0,1,26,8)">
                    <path d="M0,46C-4.411,46 -8,42.411 -8,38C-8,36.896 -7.104,36 -6,36C-4.896,36 -4,36.896 -4,38C-4,40.206 -2.206,42 0,42C2.206,42 4,40.206 4,38L4,2C4,0.896 4.896,0 6,0C7.104,0 8,0.896 8,2L8,38C8,42.411 4.411,46 0,46" style="fill:rgb(79,93,115);fill-rule:nonzero;"/>
                </g>
                <g opacity="0.2">
                    <g transform="matrix(1,0,0,1,32,36)">
                        <path d="M0,-24C-13.255,-24 -24,-13.255 -24,0C-18.955,-3.409 -13.091,0 -13.091,0C-13.091,-1.205 -7.23,-3.273 0,-3.273C7.23,-3.273 13.091,-1.205 13.091,0C13.091,0 18.886,-3.409 24,0C24,-13.255 13.255,-24 0,-24" style="fill:rgb(35,31,32);fill-rule:nonzero;"/>
                    </g>
                </g>
                <g transform="matrix(1,0,0,1,18.9091,10)">
                    <path d="M0,24C0,24 0.273,6.341 13.091,0C-0.164,0 -10.909,10.745 -10.909,24C-5.864,20.591 0,24 0,24" style="fill:rgb(199,92,92);fill-rule:nonzero;"/>
                </g>
                <g transform="matrix(1,0,0,1,45.0909,10)">
                    <path d="M0,24C0,24 5.795,20.591 10.909,24C10.909,10.745 0.164,0 -13.091,0C-0.273,6.341 0,24 0,24" style="fill:rgb(199,92,92);fill-rule:nonzero;"/>
                </g>
                <g transform="matrix(0,1,1,0,20.0001,8.909)">
                    <path d="M25.091,-1.091C23.886,-1.091 21.818,4.77 21.818,12C21.818,19.23 23.886,25.091 25.091,25.091C25.091,25.091 7.432,24.818 1.091,12C7.432,-0.818 25.091,-1.091 25.091,-1.091" style="fill:white;fill-rule:nonzero;"/>
                </g>
                <g transform="matrix(1,0,0,1,32,8)">
                    <path d="M0,5C-1.104,5 -2,4.104 -2,3L-2,2C-2,0.896 -1.104,0 0,0C1.104,0 2,0.896 2,2L2,3C2,4.104 1.104,5 0,5" style="fill:rgb(79,93,115);fill-rule:nonzero;"/>
                </g>
            </g>
        </g>
    </g>
</svg>
