<?xml version="1.0" encoding="UTF-8" standalone="no"?>
<!DOCTYPE svg PUBLIC "-//W3C//DTD SVG 1.1//EN" "http://www.w3.org/Graphics/SVG/1.1/DTD/svg11.dtd">
<svg width="100%" height="100%" viewBox="0 0 356 356" version="1.1" xmlns="http://www.w3.org/2000/svg" xmlns:xlink="http://www.w3.org/1999/xlink" xml:space="preserve" xmlns:serif="http://www.serif.com/" style="fill-rule:evenodd;clip-rule:evenodd;stroke-linejoin:round;stroke-miterlimit:2;">
    <g transform="matrix(5.55556,0,0,5.55556,-2000,-400)">
        <g id="Page-19" serif:id="Page 19" transform="matrix(1,0,0,1,360,72)">
            <rect x="0" y="0" width="64" height="64" style="fill:none;"/>
            <g id="Layer-1" serif:id="Layer 1">
                <g transform="matrix(0,-1,-1,0,32,0)">
                    <path d="M-32,-32C-49.673,-32 -64,-17.673 -64,0C-64,17.673 -49.673,32 -32,32C-14.327,32 0,17.673 0,0C0,-17.673 -14.327,-32 -32,-32" style="fill:rgb(119,179,212);fill-rule:nonzero;"/>
                </g>
                <g opacity="0.2">
                    <g transform="matrix(1,0,0,1,48,32)">
                        <path d="M0,0C0,-8.837 -7.163,-16 -16,-16C-23.498,-16 -29.773,-10.835 -31.508,-3.874C-36.313,-3.146 -40,0.991 -40,6C-40,11.523 -35.523,16 -30,16L0,16C4.418,16 8,12.418 8,8C8,3.582 4.418,0 0,0" style="fill:rgb(35,31,32);fill-rule:nonzero;"/>
                    </g>
                </g>
                <g transform="matrix(1,0,0,1,48,30)">
                    <path d="M0,0C0,-8.837 -7.163,-16 -16,-16C-23.498,-16 -29.773,-10.835 -31.508,-3.874C-36.313,-3.146 -40,0.991 -40,6C-40,11.523 -35.523,16 -30,16L0,16C4.418,16 8,12.418 8,8C8,3.582 4.418,0 0,0" style="fill:white;fill-rule:nonzero;"/>
                </g>
            </g>
        </g>
    </g>
</svg>
