<?xml version="1.0" encoding="UTF-8" standalone="no"?>
<!DOCTYPE svg PUBLIC "-//W3C//DTD SVG 1.1//EN" "http://www.w3.org/Graphics/SVG/1.1/DTD/svg11.dtd">
<svg width="100%" height="100%" viewBox="0 0 356 356" version="1.1" xmlns="http://www.w3.org/2000/svg" xmlns:xlink="http://www.w3.org/1999/xlink" xml:space="preserve" xmlns:serif="http://www.serif.com/" style="fill-rule:evenodd;clip-rule:evenodd;stroke-linejoin:round;stroke-miterlimit:2;">
    <g transform="matrix(5.55556,0,0,5.55556,0,-2400)">
        <g id="Page-79" serif:id="Page 79" transform="matrix(1,0,0,1,0,432)">
            <rect x="0" y="0" width="64" height="64" style="fill:none;"/>
            <clipPath id="_clip1">
                <rect x="0" y="0" width="64" height="64"/>
            </clipPath>
            <g clip-path="url(#_clip1)">
                <g id="Layer-1" serif:id="Layer 1">
                    <g transform="matrix(0,-1,-1,0,31.8333,0)">
                        <path d="M-32,-32C-49.673,-32 -64,-17.673 -64,0C-64,17.673 -49.673,32 -32,32C-14.327,32 0,17.673 0,0C0,-17.673 -14.327,-32 -32,-32" style="fill:rgb(119,179,212);fill-rule:nonzero;"/>
                    </g>
                    <g opacity="0.2">
                        <g transform="matrix(1,0,0,1,52,48)">
                            <path d="M0,0C0,1.105 -0.895,2 -2,2L-38,2C-39.105,2 -40,1.105 -40,0C-40,-1.105 -39.105,-2 -38,-2L-2,-2C-0.895,-2 0,-1.105 0,0" style="fill:rgb(35,31,32);fill-rule:nonzero;"/>
                        </g>
                    </g>
                    <g transform="matrix(1,0,0,1,52,46)">
                        <path d="M0,0C0,1.105 -0.895,2 -2,2L-38,2C-39.105,2 -40,1.105 -40,0C-40,-1.105 -39.105,-2 -38,-2L-2,-2C-0.895,-2 0,-1.105 0,0" style="fill:rgb(224,153,94);fill-rule:nonzero;"/>
                    </g>
                    <g transform="matrix(1,0,0,1,23,44)">
                        <path d="M0,-24L-4,-24C-5.657,-24 -7,-22.657 -7,-21L-7,0L3,0L3,-21C3,-22.657 1.657,-24 0,-24" style="fill:rgb(199,92,92);fill-rule:nonzero;"/>
                    </g>
                    <g transform="matrix(1,0,0,1,45,44)">
                        <path d="M0,-28L-4,-28C-5.657,-28 -7,-26.657 -7,-25L-7,0L3,0L3,-25C3,-26.657 1.657,-28 0,-28" style="fill:rgb(224,224,209);fill-rule:nonzero;"/>
                    </g>
                    <g transform="matrix(-1,0,0,1,42,-13)">
                        <rect x="16" y="37" width="10" height="3" style="fill:rgb(224,153,94);"/>
                    </g>
                    <g transform="matrix(-1,0,0,1,42,13)">
                        <rect x="16" y="24" width="10" height="3" style="fill:rgb(224,153,94);"/>
                    </g>
                    <g transform="matrix(-1,0,0,1,86,13)">
                        <rect x="38" y="24" width="10" height="3" style="fill:white;"/>
                    </g>
                    <g transform="matrix(-1,0,0,1,86,-21)">
                        <rect x="38" y="41" width="10" height="3" style="fill:white;"/>
                    </g>
                    <g opacity="0.2">
                        <g transform="matrix(1,0,0,1,40,20.184)">
                            <path d="M0,23.816L0,-4C-1.163,-3.587 -2,-2.488 -2,-1.184L-2,23.816L0,23.816Z" style="fill:rgb(35,31,32);fill-rule:nonzero;"/>
                        </g>
                    </g>
                    <g opacity="0.2">
                        <g transform="matrix(1,0,0,1,26,24.184)">
                            <path d="M0,19.816L0,-1.184C0,-2.488 -0.837,-3.587 -2,-4L-2,19.816L0,19.816Z" style="fill:rgb(35,31,32);fill-rule:nonzero;"/>
                        </g>
                    </g>
                    <g transform="matrix(1,0,0,1,35,44)">
                        <path d="M0,-32L-6,-32C-7.657,-32 -9,-30.657 -9,-29L-9,0L3,0L3,-29C3,-30.657 1.657,-32 0,-32" style="fill:rgb(79,93,115);fill-rule:nonzero;"/>
                    </g>
                    <g transform="matrix(-1,0,0,1,64,-29)">
                        <rect x="26" y="45" width="12" height="3" style="fill:rgb(118,194,175);"/>
                    </g>
                    <g transform="matrix(-1,0,0,1,64,13)">
                        <rect x="26" y="24" width="12" height="3" style="fill:rgb(118,194,175);"/>
                    </g>
                </g>
            </g>
        </g>
    </g>
</svg>
