<?xml version="1.0" encoding="UTF-8" standalone="no"?>
<!DOCTYPE svg PUBLIC "-//W3C//DTD SVG 1.1//EN" "http://www.w3.org/Graphics/SVG/1.1/DTD/svg11.dtd">
<svg width="100%" height="100%" viewBox="0 0 356 356" version="1.1" xmlns="http://www.w3.org/2000/svg" xmlns:xlink="http://www.w3.org/1999/xlink" xml:space="preserve" xmlns:serif="http://www.serif.com/" style="fill-rule:evenodd;clip-rule:evenodd;stroke-linejoin:round;stroke-miterlimit:2;">
    <g transform="matrix(5.55556,0,0,5.55556,-3200,-2000)">
        <g id="Page-74" serif:id="Page 74" transform="matrix(1,0,0,1,576,360)">
            <rect x="0" y="0" width="64" height="64" style="fill:none;"/>
            <g id="Layer-1" serif:id="Layer 1">
                <g transform="matrix(0,-1,-1,0,32,0)">
                    <path d="M-32,-32C-49.673,-32 -64,-17.673 -64,0C-64,17.673 -49.673,32 -32,32C-14.327,32 0,17.673 0,0C0,-17.673 -14.327,-32 -32,-32" style="fill:rgb(118,194,175);fill-rule:nonzero;"/>
                </g>
                <g transform="matrix(1,0,0,1,32,16)">
                    <path d="M0,36C-1.105,36 -2,35.105 -2,34L-2,2C-2,0.895 -1.105,0 0,0C1.105,0 2,0.895 2,2L2,34C2,35.105 1.105,36 0,36" style="fill:rgb(79,93,115);fill-rule:nonzero;"/>
                </g>
                <g transform="matrix(1,0,0,1,46,16)">
                    <path d="M0,36C-1.105,36 -2,35.105 -2,34L-2,2C-2,0.895 -1.105,0 0,0C1.105,0 2,0.895 2,2L2,34C2,35.105 1.105,36 0,36" style="fill:rgb(79,93,115);fill-rule:nonzero;"/>
                </g>
                <g transform="matrix(1,0,0,1,18,16)">
                    <path d="M0,36C-1.105,36 -2,35.105 -2,34L-2,2C-2,0.895 -1.105,0 0,0C1.105,0 2,0.895 2,2L2,34C2,35.105 1.105,36 0,36" style="fill:rgb(79,93,115);fill-rule:nonzero;"/>
                </g>
                <g opacity="0.2">
                    <g transform="matrix(0,-1,-1,0,45.8647,34)">
                        <path d="M-4,-4C-6.209,-4 -8,-2.209 -8,0C-8,2.209 -6.209,4 -4,4C-1.791,4 0,2.209 0,0C0,-2.209 -1.791,-4 -4,-4" style="fill:rgb(35,31,32);fill-rule:nonzero;"/>
                    </g>
                </g>
                <g opacity="0.2">
                    <g transform="matrix(0,-1,-1,0,32,23)">
                        <path d="M-4,-4C-6.209,-4 -8,-2.209 -8,0C-8,2.209 -6.209,4 -4,4C-1.791,4 0,2.209 0,0C0,-2.209 -1.791,-4 -4,-4" style="fill:rgb(35,31,32);fill-rule:nonzero;"/>
                    </g>
                </g>
                <g opacity="0.2">
                    <g transform="matrix(0,-1,-1,0,18,40)">
                        <path d="M-4,-4C-6.209,-4 -8,-2.209 -8,0C-8,2.209 -6.209,4 -4,4C-1.791,4 0,2.209 0,0C0,-2.209 -1.791,-4 -4,-4" style="fill:rgb(35,31,32);fill-rule:nonzero;"/>
                    </g>
                </g>
                <g transform="matrix(0,-1,-1,0,45.8647,32)">
                    <path d="M-4,-4C-6.209,-4 -8,-2.209 -8,0C-8,2.209 -6.209,4 -4,4C-1.791,4 0,2.209 0,0C0,-2.209 -1.791,-4 -4,-4" style="fill:white;fill-rule:nonzero;"/>
                </g>
                <g transform="matrix(0,-1,-1,0,32,21)">
                    <path d="M-4,-4C-6.209,-4 -8,-2.209 -8,0C-8,2.209 -6.209,4 -4,4C-1.791,4 0,2.209 0,0C0,-2.209 -1.791,-4 -4,-4" style="fill:white;fill-rule:nonzero;"/>
                </g>
                <g transform="matrix(0,-1,-1,0,18,38)">
                    <path d="M-4,-4C-6.209,-4 -8,-2.209 -8,0C-8,2.209 -6.209,4 -4,4C-1.791,4 0,2.209 0,0C0,-2.209 -1.791,-4 -4,-4" style="fill:white;fill-rule:nonzero;"/>
                </g>
            </g>
        </g>
    </g>
</svg>
