<?xml version="1.0" encoding="UTF-8" standalone="no"?>
<!DOCTYPE svg PUBLIC "-//W3C//DTD SVG 1.1//EN" "http://www.w3.org/Graphics/SVG/1.1/DTD/svg11.dtd">
<svg width="100%" height="100%" viewBox="0 0 356 356" version="1.1" xmlns="http://www.w3.org/2000/svg" xmlns:xlink="http://www.w3.org/1999/xlink" xml:space="preserve" xmlns:serif="http://www.serif.com/" style="fill-rule:evenodd;clip-rule:evenodd;stroke-linejoin:round;stroke-miterlimit:2;">
    <g transform="matrix(5.55556,0,0,5.55556,-4400,-2000)">
        <g id="Page-77" serif:id="Page 77" transform="matrix(1,0,0,1,792,360)">
            <rect x="0" y="0" width="64" height="64" style="fill:none;"/>
            <g id="Layer-1" serif:id="Layer 1">
                <g transform="matrix(0,-1,-1,0,32,0)">
                    <path d="M-32,-32C-49.673,-32 -64,-17.673 -64,0C-64,17.673 -49.673,32 -32,32C-14.327,32 0,17.673 0,0C0,-17.673 -14.327,-32 -32,-32" style="fill:rgb(119,179,212);fill-rule:nonzero;"/>
                </g>
                <g opacity="0.2">
                    <g transform="matrix(1,0,0,1,28.9623,42.636)">
                        <path d="M0,-17.293C-0.417,-22.087 -5.418,-24.439 -5.63,-24.535C-5.828,-24.629 -6.051,-24.657 -6.265,-24.62C-12.038,-23.662 -12.907,-20.302 -12.942,-20.162C-12.99,-19.966 -12.981,-19.763 -12.92,-19.573C-6.033,1.793 8.279,5.754 12.983,7.056C13.345,7.157 13.644,7.237 13.871,7.312C13.98,7.349 14.094,7.364 14.207,7.364C14.362,7.364 14.517,7.331 14.659,7.266C14.803,7.2 18.203,5.599 19.034,0.375C19.071,0.148 19.034,-0.088 18.929,-0.293C18.855,-0.437 17.077,-3.821 12.145,-5.017C11.8,-5.106 11.447,-5.015 11.181,-4.788C9.625,-3.459 7.476,-2.043 6.548,-1.897C0.332,-4.936 -3.14,-10.769 -3.271,-11.875C-3.347,-12.497 -1.922,-14.681 -0.284,-16.457C-0.076,-16.682 0.028,-16.988 0,-17.293" style="fill:rgb(35,31,32);fill-rule:nonzero;"/>
                    </g>
                </g>
                <g transform="matrix(1,0,0,1,28.9623,40.636)">
                    <path d="M0,-17.293C-0.417,-22.087 -5.418,-24.439 -5.63,-24.535C-5.828,-24.629 -6.051,-24.657 -6.265,-24.62C-12.038,-23.662 -12.907,-20.302 -12.942,-20.162C-12.99,-19.966 -12.981,-19.763 -12.92,-19.573C-6.033,1.793 8.279,5.754 12.983,7.056C13.345,7.157 13.644,7.237 13.871,7.312C13.98,7.349 14.094,7.364 14.207,7.364C14.362,7.364 14.517,7.331 14.659,7.266C14.803,7.2 18.203,5.599 19.034,0.375C19.071,0.148 19.034,-0.088 18.929,-0.293C18.855,-0.437 17.077,-3.821 12.145,-5.017C11.8,-5.106 11.447,-5.015 11.181,-4.788C9.625,-3.459 7.476,-2.043 6.548,-1.897C0.332,-4.936 -3.14,-10.769 -3.271,-11.875C-3.347,-12.497 -1.922,-14.681 -0.284,-16.457C-0.076,-16.682 0.028,-16.988 0,-17.293" style="fill:white;fill-rule:nonzero;"/>
                </g>
            </g>
        </g>
    </g>
</svg>
