<?xml version="1.0" encoding="UTF-8" standalone="no"?>
<!DOCTYPE svg PUBLIC "-//W3C//DTD SVG 1.1//EN" "http://www.w3.org/Graphics/SVG/1.1/DTD/svg11.dtd">
<svg width="100%" height="100%" viewBox="0 0 356 356" version="1.1" xmlns="http://www.w3.org/2000/svg" xmlns:xlink="http://www.w3.org/1999/xlink" xml:space="preserve" xmlns:serif="http://www.serif.com/" style="fill-rule:evenodd;clip-rule:evenodd;stroke-linejoin:round;stroke-miterlimit:2;">
    <g transform="matrix(5.55556,0,0,5.55556,-4000,-400)">
        <g id="Page-24" serif:id="Page 24" transform="matrix(1,0,0,1,720,72)">
            <rect x="0" y="0" width="64" height="64" style="fill:none;"/>
            <g id="Layer-1" serif:id="Layer 1">
                <g transform="matrix(0,-1,-1,0,32,0)">
                    <path d="M-32,-32C-49.673,-32 -64,-17.673 -64,0C-64,17.673 -49.673,32 -32,32C-14.327,32 0,17.673 0,0C0,-17.673 -14.327,-32 -32,-32" style="fill:rgb(199,92,92);fill-rule:nonzero;"/>
                </g>
                <g opacity="0.2">
                    <g transform="matrix(1,0,0,1,49.982,40.9977)">
                        <path d="M0,-9.995C-0.094,-15.516 -4.574,-20.437 -10.107,-20.437C-13.306,-20.437 -16.126,-18.763 -17.982,-16.306C-19.838,-18.763 -22.658,-20.437 -25.857,-20.437C-31.39,-20.437 -35.869,-15.516 -35.964,-9.995L-35.982,-9.995C-35.982,-9.961 -35.975,-9.93 -35.975,-9.896C-35.975,-9.871 -35.982,-9.847 -35.982,-9.819C-35.982,-9.664 -35.944,-9.547 -35.937,-9.399C-35.442,4.673 -18.124,10.442 -18.124,10.442C-18.124,10.442 -0.551,4.679 -0.031,-9.376C-0.022,-9.534 0.018,-9.658 0.018,-9.819C0.018,-9.847 0.011,-9.871 0.011,-9.896C0.011,-9.932 0.018,-9.961 0.018,-9.995L0,-9.995Z" style="fill:rgb(35,31,32);fill-rule:nonzero;"/>
                    </g>
                </g>
                <g transform="matrix(1,0,0,1,49.982,38.9977)">
                    <path d="M0,-9.995C-0.094,-15.516 -4.574,-20.437 -10.107,-20.437C-13.306,-20.437 -16.126,-18.763 -17.982,-16.306C-19.838,-18.763 -22.658,-20.437 -25.857,-20.437C-31.39,-20.437 -35.869,-15.516 -35.964,-9.995L-35.982,-9.995C-35.982,-9.961 -35.975,-9.93 -35.975,-9.896C-35.975,-9.871 -35.982,-9.847 -35.982,-9.819C-35.982,-9.664 -35.944,-9.547 -35.937,-9.399C-35.442,4.673 -18.124,10.442 -18.124,10.442C-18.124,10.442 -0.551,4.679 -0.031,-9.376C-0.022,-9.534 0.018,-9.658 0.018,-9.819C0.018,-9.847 0.011,-9.871 0.011,-9.896C0.011,-9.932 0.018,-9.961 0.018,-9.995L0,-9.995Z" style="fill:white;fill-rule:nonzero;"/>
                </g>
            </g>
        </g>
    </g>
</svg>
