<?xml version="1.0" encoding="UTF-8" standalone="no"?>
<!DOCTYPE svg PUBLIC "-//W3C//DTD SVG 1.1//EN" "http://www.w3.org/Graphics/SVG/1.1/DTD/svg11.dtd">
<svg width="100%" height="100%" viewBox="0 0 356 356" version="1.1" xmlns="http://www.w3.org/2000/svg" xmlns:xlink="http://www.w3.org/1999/xlink" xml:space="preserve" xmlns:serif="http://www.serif.com/" style="fill-rule:evenodd;clip-rule:evenodd;stroke-linejoin:round;stroke-miterlimit:2;">
    <g transform="matrix(5.55556,0,0,5.55556,-400,-1200)">
        <g id="Page-41" serif:id="Page 41" transform="matrix(1,0,0,1,72,216)">
            <rect x="0" y="0" width="64" height="64" style="fill:none;"/>
            <g id="Layer-1" serif:id="Layer 1">
                <g transform="matrix(0,-1,-1,0,32,0)">
                    <path d="M-32,-32C-49.673,-32 -64,-17.673 -64,0C-64,17.673 -49.673,32 -32,32C-14.327,32 0,17.673 0,0C0,-17.673 -14.327,-32 -32,-32" style="fill:rgb(224,224,209);fill-rule:nonzero;"/>
                </g>
                <g opacity="0.2">
                    <g transform="matrix(1,0,0,1,55,11)">
                        <path d="M0,20C0,8.954 -8.954,0 -20,0L-20,20L0,20Z" style="fill:rgb(35,31,32);fill-rule:nonzero;"/>
                    </g>
                </g>
                <g transform="matrix(1,0,0,1,55,9)">
                    <path d="M0,20C0,8.954 -8.954,0 -20,0L-20,20L0,20Z" style="fill:rgb(79,93,115);fill-rule:nonzero;"/>
                </g>
                <g opacity="0.2">
                    <g transform="matrix(1,0,0,1,31,57)">
                        <path d="M0,-44C-12.15,-44 -22,-34.15 -22,-22C-22,-9.85 -12.15,0 0,0C5.692,0 10.88,-2.162 14.786,-5.71L0,-22L0,-44Z" style="fill:rgb(35,31,32);fill-rule:nonzero;"/>
                    </g>
                </g>
                <g transform="matrix(1,0,0,1,31,55)">
                    <path d="M0,-44C-12.15,-44 -22,-34.15 -22,-22C-22,-9.85 -12.15,0 0,0C5.692,0 10.88,-2.162 14.786,-5.71L0,-22L0,-44Z" style="fill:rgb(118,194,175);fill-rule:nonzero;"/>
                </g>
                <g opacity="0.2">
                    <g transform="matrix(-1,0,0,1,31,51.29)">
                        <path d="M-22,-18.29L0,-18.29L0,-16.29L-14.786,0C-19.217,-4.024 -22,-11.832 -22,-18.29" style="fill:rgb(35,31,32);fill-rule:nonzero;"/>
                    </g>
                </g>
                <g transform="matrix(1,0,0,1,53,49.29)">
                    <path d="M0,-16.29L-22,-16.29L-7.214,0C-2.783,-4.024 0,-9.832 0,-16.29" style="fill:rgb(199,92,92);fill-rule:nonzero;"/>
                </g>
            </g>
        </g>
    </g>
</svg>
