<?xml version="1.0" encoding="UTF-8" standalone="no"?>
<!DOCTYPE svg PUBLIC "-//W3C//DTD SVG 1.1//EN" "http://www.w3.org/Graphics/SVG/1.1/DTD/svg11.dtd">
<svg width="100%" height="100%" viewBox="0 0 356 356" version="1.1" xmlns="http://www.w3.org/2000/svg" xmlns:xlink="http://www.w3.org/1999/xlink" xml:space="preserve" xmlns:serif="http://www.serif.com/" style="fill-rule:evenodd;clip-rule:evenodd;stroke-linejoin:round;stroke-miterlimit:2;">
    <g transform="matrix(5.55556,0,0,5.55556,-1200,-2400)">
        <g id="Page-82" serif:id="Page 82" transform="matrix(1,0,0,1,216,432)">
            <rect x="0" y="0" width="64" height="64" style="fill:none;"/>
            <g id="Layer-1" serif:id="Layer 1">
                <g transform="matrix(0,-1,-1,0,32,0)">
                    <path d="M-32,-32C-49.673,-32 -64,-17.673 -64,0C-64,17.673 -49.673,32 -32,32C-14.327,32 0,17.673 0,0C0,-17.673 -14.327,-32 -32,-32" style="fill:rgb(199,92,92);fill-rule:nonzero;"/>
                </g>
                <g opacity="0.2">
                    <g transform="matrix(1,0,0,1,16.9541,13.201)">
                        <path d="M0,36.799C-4.4,36.799 -6.2,33.681 -4,29.871L11.046,3.811C13.246,0 16.846,0 19.046,3.811L34.092,29.871C36.292,33.681 34.492,36.799 30.092,36.799L0,36.799Z" style="fill:rgb(35,31,32);fill-rule:nonzero;"/>
                    </g>
                </g>
                <g transform="matrix(1,0,0,1,16.9541,11.201)">
                    <path d="M0,36.799C-4.4,36.799 -6.2,33.681 -4,29.871L11.046,3.811C13.246,0 16.846,0 19.046,3.811L34.092,29.871C36.292,33.681 34.492,36.799 30.092,36.799L0,36.799Z" style="fill:rgb(245,207,135);fill-rule:nonzero;"/>
                </g>
                <g transform="matrix(1,0,0,1,34,24)">
                    <path d="M0,8C0,9.105 -0.895,10 -2,10C-3.105,10 -4,9.105 -4,8L-4,0C-4,-1.105 -3.105,-2 -2,-2C-0.895,-2 0,-1.105 0,0L0,8Z" style="fill:rgb(79,93,115);fill-rule:nonzero;"/>
                </g>
                <g transform="matrix(0,-1,-1,0,32,38)">
                    <path d="M-2,-2C-3.105,-2 -4,-1.105 -4,0C-4,1.105 -3.105,2 -2,2C-0.895,2 0,1.105 0,0C0,-1.105 -0.895,-2 -2,-2" style="fill:rgb(79,93,115);fill-rule:nonzero;"/>
                </g>
            </g>
        </g>
    </g>
</svg>
