<?xml version="1.0" encoding="UTF-8" standalone="no"?>
<!DOCTYPE svg PUBLIC "-//W3C//DTD SVG 1.1//EN" "http://www.w3.org/Graphics/SVG/1.1/DTD/svg11.dtd">
<svg width="100%" height="100%" viewBox="0 0 356 356" version="1.1" xmlns="http://www.w3.org/2000/svg" xmlns:xlink="http://www.w3.org/1999/xlink" xml:space="preserve" xmlns:serif="http://www.serif.com/" style="fill-rule:evenodd;clip-rule:evenodd;stroke-linejoin:round;stroke-miterlimit:2;">
    <g transform="matrix(5.55556,0,0,5.55556,-1200,-1200)">
        <g id="Page-43" serif:id="Page 43" transform="matrix(1,0,0,1,216,216)">
            <rect x="0" y="0" width="64" height="64" style="fill:none;"/>
            <g id="Layer-1" serif:id="Layer 1">
                <g transform="matrix(0,-1,-1,0,32,0)">
                    <path d="M-32,-32C-49.673,-32 -64,-17.673 -64,0C-64,17.673 -49.673,32 -32,32C-14.327,32 0,17.673 0,0C0,-17.673 -14.327,-32 -32,-32" style="fill:rgb(79,93,115);fill-rule:nonzero;"/>
                </g>
                <g opacity="0.2">
                    <g transform="matrix(1,0,0,1,18,49)">
                        <path d="M0,-21L-4,-21C-6.209,-21 -8,-19.209 -8,-17L-8,-4C-8,-1.791 -6.209,0 -4,0L4,0L4,-17C4,-19.209 2.209,-21 0,-21" style="fill:rgb(35,31,32);fill-rule:nonzero;"/>
                    </g>
                    <g transform="matrix(1,0,0,1,34,49)">
                        <path d="M0,-36L-4,-36C-6.209,-36 -8,-34.209 -8,-32L-8,0L4,0L4,-32C4,-34.209 2.209,-36 0,-36" style="fill:rgb(35,31,32);fill-rule:nonzero;"/>
                    </g>
                    <g transform="matrix(1,0,0,1,50,49)">
                        <path d="M0,-16L-4,-16C-6.209,-16 -8,-14.209 -8,-12L-8,0L0,0C2.209,0 4,-1.791 4,-4L4,-12C4,-14.209 2.209,-16 0,-16" style="fill:rgb(35,31,32);fill-rule:nonzero;"/>
                    </g>
                </g>
                <g transform="matrix(1,0,0,1,18,47)">
                    <path d="M0,-21L-4,-21C-6.209,-21 -8,-19.209 -8,-17L-8,-4C-8,-1.791 -6.209,0 -4,0L4,0L4,-17C4,-19.209 2.209,-21 0,-21" style="fill:rgb(224,224,209);fill-rule:nonzero;"/>
                </g>
                <g transform="matrix(1,0,0,1,34,47)">
                    <path d="M0,-36L-4,-36C-6.209,-36 -8,-34.209 -8,-32L-8,0L4,0L4,-32C4,-34.209 2.209,-36 0,-36" style="fill:rgb(118,194,175);fill-rule:nonzero;"/>
                </g>
                <g transform="matrix(1,0,0,1,50,47)">
                    <path d="M0,-16L-4,-16C-6.209,-16 -8,-14.209 -8,-12L-8,0L0,0C2.209,0 4,-1.791 4,-4L4,-12C4,-14.209 2.209,-16 0,-16" style="fill:white;fill-rule:nonzero;"/>
                </g>
            </g>
        </g>
    </g>
</svg>
