<?xml version="1.0" encoding="UTF-8" standalone="no"?>
<!DOCTYPE svg PUBLIC "-//W3C//DTD SVG 1.1//EN" "http://www.w3.org/Graphics/SVG/1.1/DTD/svg11.dtd">
<svg width="100%" height="100%" viewBox="0 0 356 356" version="1.1" xmlns="http://www.w3.org/2000/svg" xmlns:xlink="http://www.w3.org/1999/xlink" xml:space="preserve" xmlns:serif="http://www.serif.com/" style="fill-rule:evenodd;clip-rule:evenodd;stroke-linejoin:round;stroke-miterlimit:2;">
    <g transform="matrix(5.55556,0,0,5.55556,-800,-1600)">
        <g id="Page-55" serif:id="Page 55" transform="matrix(1,0,0,1,144,288)">
            <rect x="0" y="0" width="64" height="64" style="fill:none;"/>
            <g id="Layer-1" serif:id="Layer 1">
                <g transform="matrix(0,-1,-1,0,32,0)">
                    <path d="M-32,-32C-49.673,-32 -64,-17.673 -64,0C-64,17.673 -49.673,32 -32,32C-14.327,32 0,17.673 0,0C0,-17.673 -14.327,-32 -32,-32" style="fill:rgb(224,224,209);fill-rule:nonzero;"/>
                </g>
                <g opacity="0.2">
                    <g transform="matrix(1,0,0,1,44,31)">
                        <path d="M0,14C0,15.105 -0.895,16 -2,16C-3.105,16 -4,15.105 -4,14L-4,8C-4,6.895 -3.105,6 -2,6C-0.895,6 0,6.895 0,8L0,14ZM-10,14C-10,15.105 -10.895,16 -12,16C-13.105,16 -14,15.105 -14,14L-14,8C-14,6.895 -13.105,6 -12,6C-10.895,6 -10,6.895 -10,8L-10,14ZM-20,14C-20,15.105 -20.895,16 -22,16C-23.105,16 -24,15.105 -24,14L-24,8C-24,6.895 -23.105,6 -22,6C-20.895,6 -20,6.895 -20,8L-20,14ZM5,-5L-29,-5C-30.657,-5 -32,-3.657 -32,-2L-28,16C-28,17.657 -26.657,19 -25,19L1,19C2.657,19 4,17.657 4,16L8,-2C8,-3.657 6.657,-5 5,-5" style="fill:rgb(35,31,32);fill-rule:nonzero;"/>
                    </g>
                </g>
                <g transform="matrix(1,0,0,1,44,29)">
                    <path d="M0,14C0,15.105 -0.895,16 -2,16C-3.105,16 -4,15.105 -4,14L-4,8C-4,6.895 -3.105,6 -2,6C-0.895,6 0,6.895 0,8L0,14ZM-10,14C-10,15.105 -10.895,16 -12,16C-13.105,16 -14,15.105 -14,14L-14,8C-14,6.895 -13.105,6 -12,6C-10.895,6 -10,6.895 -10,8L-10,14ZM-20,14C-20,15.105 -20.895,16 -22,16C-23.105,16 -24,15.105 -24,14L-24,8C-24,6.895 -23.105,6 -22,6C-20.895,6 -20,6.895 -20,8L-20,14ZM5,-5L-29,-5C-30.657,-5 -32,-3.657 -32,-2L-28,16C-28,17.657 -26.657,19 -25,19L1,19C2.657,19 4,17.657 4,16L8,-2C8,-3.657 6.657,-5 5,-5" style="fill:rgb(224,153,94);fill-rule:nonzero;"/>
                </g>
                <g opacity="0.2">
                    <g transform="matrix(1,0,0,1,56,28)">
                        <path d="M0,0C0,1.105 -0.895,2 -2,2L-46,2C-47.105,2 -48,1.105 -48,0C-48,-1.105 -47.105,-2 -46,-2L-2,-2C-0.895,-2 0,-1.105 0,0" style="fill:rgb(35,31,32);fill-rule:nonzero;"/>
                    </g>
                </g>
                <g transform="matrix(1,0,0,1,56,26)">
                    <path d="M0,0C0,1.105 -0.895,2 -2,2L-46,2C-47.105,2 -48,1.105 -48,0C-48,-1.105 -47.105,-2 -46,-2L-2,-2C-0.895,-2 0,-1.105 0,0" style="fill:rgb(224,153,94);fill-rule:nonzero;"/>
                </g>
                <g opacity="0.2">
                    <g transform="matrix(1,0,0,1,42.8284,33.4146)">
                        <path d="M0,-18.243C0.781,-17.462 0.781,-16.196 0,-15.415L-11.414,-0C-12.195,0.781 -13.462,0.781 -14.243,-0C-15.024,-0.781 -15.024,-2.048 -14.243,-2.829L-2.828,-18.243C-2.047,-19.024 -0.781,-19.024 0,-18.243" style="fill:rgb(35,31,32);fill-rule:nonzero;"/>
                    </g>
                </g>
                <g transform="matrix(1,0,0,1,42.8284,31.4146)">
                    <path d="M0,-18.243C0.781,-17.462 0.781,-16.196 0,-15.415L-11.414,-0C-12.195,0.781 -13.462,0.781 -14.243,-0C-15.024,-0.781 -15.024,-2.048 -14.243,-2.829L-2.828,-18.243C-2.047,-19.024 -0.781,-19.024 0,-18.243" style="fill:rgb(79,93,115);fill-rule:nonzero;"/>
                </g>
            </g>
        </g>
    </g>
</svg>
