<?xml version="1.0" encoding="UTF-8" standalone="no"?>
<!DOCTYPE svg PUBLIC "-//W3C//DTD SVG 1.1//EN" "http://www.w3.org/Graphics/SVG/1.1/DTD/svg11.dtd">
<svg width="100%" height="100%" viewBox="0 0 356 356" version="1.1" xmlns="http://www.w3.org/2000/svg" xmlns:xlink="http://www.w3.org/1999/xlink" xml:space="preserve" xmlns:serif="http://www.serif.com/" style="fill-rule:evenodd;clip-rule:evenodd;stroke-linejoin:round;stroke-miterlimit:2;">
    <g transform="matrix(5.55556,0,0,5.55556,-1200,-800)">
        <g id="Page-30" serif:id="Page 30" transform="matrix(1,0,0,1,216,144)">
            <rect x="0" y="0" width="64" height="64" style="fill:none;"/>
            <clipPath id="_clip1">
                <rect x="0" y="0" width="64" height="64"/>
            </clipPath>
            <g clip-path="url(#_clip1)">
                <g id="Layer-1" serif:id="Layer 1">
                    <g transform="matrix(0,-1,-1,0,31.8333,0)">
                        <path d="M-32,-32C-49.673,-32 -64,-17.673 -64,0C-64,17.673 -49.673,32 -32,32C-14.327,32 0,17.673 0,0C0,-17.673 -14.327,-32 -32,-32" style="fill:rgb(79,93,115);fill-rule:nonzero;"/>
                    </g>
                    <g opacity="0.2">
                        <g transform="matrix(0,1,1,0,44,37)">
                            <path d="M2,-2C3.104,-2 4,-1.105 4,0C4,1.105 3.104,2 2,2C0.895,2 0,1.105 0,0C0,-1.105 0.895,-2 2,-2" style="fill:rgb(35,31,32);fill-rule:nonzero;"/>
                        </g>
                        <g transform="matrix(-1,0,0,1,44,53)">
                            <path d="M0,-4C1.105,-4 2,-3.105 2,-2C2,-0.896 1.105,0 0,0C-1.105,0 -2,-0.896 -2,-2C-2,-3.105 -1.105,-4 0,-4" style="fill:rgb(35,31,32);fill-rule:nonzero;"/>
                        </g>
                        <g transform="matrix(1,0,0,1,26,26)">
                            <path d="M0,-4L-4,-4L-4,-8C-4,-9.105 -4.895,-10 -6,-10C-7.105,-10 -8,-9.105 -8,-8L-8,-4L-12,-4C-13.105,-4 -14,-3.105 -14,-2C-14,-0.896 -13.105,0 -12,0L-8,0L-8,4C-8,5.104 -7.105,6 -6,6C-4.895,6 -4,5.104 -4,4L-4,0L0,0C1.105,0 2,-0.896 2,-2C2,-3.105 1.105,-4 0,-4" style="fill:rgb(35,31,32);fill-rule:nonzero;"/>
                        </g>
                        <g transform="matrix(1,0,0,1,38,22)">
                            <path d="M0,4L12,4C13.105,4 14,3.104 14,2C14,0.895 13.105,0 12,0L0,0C-1.105,0 -2,0.895 -2,2C-2,3.104 -1.105,4 0,4" style="fill:rgb(35,31,32);fill-rule:nonzero;"/>
                        </g>
                        <g transform="matrix(1,0,0,1,50,47)">
                            <path d="M0,-4L-12,-4C-13.105,-4 -14,-3.105 -14,-2C-14,-0.896 -13.105,0 -12,0L0,0C1.105,0 2,-0.896 2,-2C2,-3.105 1.105,-4 0,-4" style="fill:rgb(35,31,32);fill-rule:nonzero;"/>
                        </g>
                        <g transform="matrix(1,0,0,1,26.8284,52.8286)">
                            <path d="M0,-13.657C-0.781,-14.438 -2.047,-14.438 -2.828,-13.657L-6.828,-9.657L-10.828,-13.657C-11.609,-14.438 -12.876,-14.438 -13.657,-13.657C-14.438,-12.876 -14.438,-11.61 -13.657,-10.829L-9.657,-6.829L-13.657,-2.829C-14.438,-2.048 -14.438,-0.781 -13.657,0C-12.876,0.781 -11.609,0.781 -10.828,0L-6.828,-4L-2.828,0C-2.047,0.781 -0.781,0.781 0,0C0.781,-0.781 0.781,-2.048 0,-2.829L-4,-6.829L0,-10.829C0.781,-11.61 0.781,-12.876 0,-13.657" style="fill:rgb(35,31,32);fill-rule:nonzero;"/>
                        </g>
                    </g>
                    <g transform="matrix(0,-1,-1,0,44,35)">
                        <path d="M-2,-2C-0.895,-2 0,-1.105 0,0C0,1.105 -0.895,2 -2,2C-3.105,2 -4,1.105 -4,0C-4,-1.105 -3.105,-2 -2,-2" style="fill:rgb(224,224,209);fill-rule:nonzero;"/>
                    </g>
                    <g transform="matrix(0,-1,-1,0,44,47)">
                        <path d="M-2,-2C-0.895,-2 0,-1.105 0,0C0,1.105 -0.895,2 -2,2C-3.105,2 -4,1.105 -4,0C-4,-1.105 -3.105,-2 -2,-2" style="fill:rgb(224,224,209);fill-rule:nonzero;"/>
                    </g>
                    <g transform="matrix(1,0,0,1,28,22)">
                        <path d="M0,0C0,1.105 -0.895,2 -2,2L-14,2C-15.105,2 -16,1.105 -16,0C-16,-1.105 -15.105,-2 -14,-2L-2,-2C-0.895,-2 0,-1.105 0,0" style="fill:rgb(245,207,135);fill-rule:nonzero;"/>
                    </g>
                    <g transform="matrix(1,0,0,1,52,22)">
                        <path d="M0,0C0,1.105 -0.895,2 -2,2L-14,2C-15.105,2 -16,1.105 -16,0C-16,-1.105 -15.105,-2 -14,-2L-2,-2C-0.895,-2 0,-1.105 0,0" style="fill:rgb(224,153,94);fill-rule:nonzero;"/>
                    </g>
                    <g transform="matrix(1,0,0,1,20,14)">
                        <path d="M0,16C-1.105,16 -2,15.105 -2,14L-2,2C-2,0.895 -1.105,0 0,0C1.105,0 2,0.895 2,2L2,14C2,15.105 1.105,16 0,16" style="fill:rgb(245,207,135);fill-rule:nonzero;"/>
                    </g>
                    <g transform="matrix(1,0,0,1,52,43)">
                        <path d="M0,0C0,1.105 -0.895,2 -2,2L-14,2C-15.105,2 -16,1.105 -16,0C-16,-1.105 -15.105,-2 -14,-2L-2,-2C-0.895,-2 0,-1.105 0,0" style="fill:rgb(224,224,209);fill-rule:nonzero;"/>
                    </g>
                    <g transform="matrix(1,0,0,1,26.8284,37.1714)">
                        <path d="M0,13.657C-0.781,14.438 -2.047,14.438 -2.828,13.657L-13.657,2.829C-14.438,2.048 -14.438,0.781 -13.657,0C-12.876,-0.781 -11.609,-0.781 -10.828,0L0,10.829C0.781,11.61 0.781,12.876 0,13.657" style="fill:rgb(118,194,175);fill-rule:nonzero;"/>
                    </g>
                    <g transform="matrix(1,0,0,1,13.1716,37.1714)">
                        <path d="M0,13.657C-0.781,12.876 -0.781,11.61 0,10.829L10.828,0C11.609,-0.781 12.876,-0.781 13.657,0C14.438,0.781 14.438,2.048 13.657,2.829L2.828,13.657C2.047,14.438 0.781,14.438 0,13.657" style="fill:rgb(118,194,175);fill-rule:nonzero;"/>
                    </g>
                </g>
            </g>
        </g>
    </g>
</svg>
