<?xml version="1.0" encoding="UTF-8" standalone="no"?>
<!DOCTYPE svg PUBLIC "-//W3C//DTD SVG 1.1//EN" "http://www.w3.org/Graphics/SVG/1.1/DTD/svg11.dtd">
<svg width="100%" height="100%" viewBox="0 0 356 356" version="1.1" xmlns="http://www.w3.org/2000/svg" xmlns:xlink="http://www.w3.org/1999/xlink" xml:space="preserve" xmlns:serif="http://www.serif.com/" style="fill-rule:evenodd;clip-rule:evenodd;stroke-linejoin:round;stroke-miterlimit:2;">
    <g transform="matrix(5.55556,0,0,5.55556,-2800,-800)">
        <g id="Page-34" serif:id="Page 34" transform="matrix(1,0,0,1,504,144)">
            <rect x="0" y="0" width="64" height="64" style="fill:none;"/>
            <g id="Layer-1" serif:id="Layer 1">
                <g transform="matrix(0,-1,-1,0,32,0)">
                    <path d="M-32,-32C-49.673,-32 -64,-17.673 -64,0C-64,17.673 -49.673,32 -32,32C-14.327,32 0,17.673 0,0C0,-17.673 -14.327,-32 -32,-32" style="fill:rgb(118,194,175);fill-rule:nonzero;"/>
                </g>
                <g opacity="0.2">
                    <g transform="matrix(0,1,1,0,32,29.5)">
                        <path d="M4.5,-4.5C6.985,-4.5 9,-2.485 9,0C9,2.485 6.985,4.5 4.5,4.5C2.015,4.5 0,2.485 0,0C0,-2.485 2.015,-4.5 4.5,-4.5" style="fill:rgb(35,31,32);fill-rule:nonzero;"/>
                    </g>
                </g>
                <g opacity="0.2">
                    <g transform="matrix(1,0,0,1,32,24)">
                        <path d="M0,20C-5.523,20 -10,15.522 -10,10C-10,4.477 -5.523,0 0,0C5.523,0 10,4.477 10,10C10,15.522 5.523,20 0,20M21.947,8.573C21.899,8.026 21.436,7.426 20.918,7.242L16.79,5.773C16.272,5.589 15.701,5.013 15.52,4.493L14.868,2.913C14.63,2.417 14.628,1.605 14.864,1.108L16.739,-2.836C16.975,-3.333 16.868,-4.074 16.501,-4.484L14.484,-6.501C14.074,-6.868 13.333,-6.975 12.836,-6.739L8.892,-4.864C8.395,-4.628 7.583,-4.63 7.087,-4.868L5.507,-5.519C4.987,-5.7 4.411,-6.272 4.227,-6.79L2.758,-10.918C2.574,-11.436 1.974,-11.899 1.427,-11.947C1.427,-11.947 0.82,-12 0,-12C-0.82,-12 -1.427,-11.947 -1.427,-11.947C-1.974,-11.899 -2.574,-11.436 -2.758,-10.918L-4.227,-6.79C-4.411,-6.272 -4.987,-5.7 -5.507,-5.519L-7.085,-4.868C-7.58,-4.63 -8.392,-4.628 -8.889,-4.864L-12.836,-6.739C-13.333,-6.975 -14.074,-6.868 -14.484,-6.501L-16.501,-4.484C-16.868,-4.074 -16.975,-3.333 -16.739,-2.836L-14.864,1.108C-14.628,1.605 -14.63,2.417 -14.868,2.913L-15.519,4.493C-15.7,5.013 -16.272,5.589 -16.79,5.773L-20.918,7.242C-21.436,7.426 -21.899,8.026 -21.947,8.573C-21.947,8.573 -22,9.18 -22,10C-22,10.819 -21.947,11.427 -21.947,11.427C-21.899,11.974 -21.436,12.574 -20.918,12.758L-16.788,14.227C-16.269,14.411 -15.698,14.987 -15.517,15.507L-14.865,17.087C-14.627,17.583 -14.625,18.395 -14.861,18.892L-16.736,22.836C-16.972,23.333 -16.865,24.074 -16.498,24.484L-14.481,26.501C-14.071,26.868 -13.33,26.975 -12.833,26.739L-8.889,24.864C-8.392,24.628 -7.58,24.63 -7.085,24.868L-5.504,25.519C-4.984,25.7 -4.409,26.272 -4.224,26.79L-2.755,30.92C-2.571,31.439 -1.972,31.901 -1.424,31.948C-1.424,31.948 -0.82,32 0,32C0.82,32 1.427,31.947 1.427,31.947C1.974,31.899 2.574,31.436 2.758,30.918L4.227,26.788C4.411,26.269 4.987,25.698 5.507,25.517L7.087,24.865C7.583,24.627 8.395,24.625 8.892,24.861L12.836,26.736C13.333,26.972 14.074,26.865 14.484,26.498L16.501,24.481C16.868,24.071 16.975,23.33 16.739,22.833L14.864,18.889C14.628,18.392 14.63,17.58 14.868,17.085L15.519,15.504C15.7,14.984 16.272,14.409 16.79,14.224L20.92,12.755C21.439,12.571 21.901,11.972 21.948,11.424C21.948,11.424 22,10.819 22,10C22,9.18 21.947,8.573 21.947,8.573" style="fill:rgb(35,31,32);fill-rule:nonzero;"/>
                    </g>
                </g>
                <g transform="matrix(0,1,1,0,32,27.5)">
                    <path d="M4.5,-4.5C6.985,-4.5 9,-2.485 9,0C9,2.485 6.985,4.5 4.5,4.5C2.015,4.5 0,2.485 0,0C0,-2.485 2.015,-4.5 4.5,-4.5" style="fill:rgb(79,93,115);fill-rule:nonzero;"/>
                </g>
                <g transform="matrix(1,0,0,1,32,22)">
                    <path d="M0,20C-5.523,20 -10,15.522 -10,10C-10,4.477 -5.523,0 0,0C5.523,0 10,4.477 10,10C10,15.522 5.523,20 0,20M21.947,8.573C21.899,8.026 21.436,7.426 20.918,7.242L16.79,5.773C16.272,5.589 15.701,5.013 15.52,4.493L14.868,2.913C14.63,2.417 14.628,1.605 14.864,1.108L16.739,-2.836C16.975,-3.333 16.868,-4.074 16.501,-4.484L14.484,-6.501C14.074,-6.868 13.333,-6.975 12.836,-6.739L8.892,-4.864C8.395,-4.628 7.583,-4.63 7.087,-4.868L5.507,-5.519C4.987,-5.7 4.411,-6.272 4.227,-6.79L2.758,-10.918C2.574,-11.436 1.974,-11.899 1.427,-11.947C1.427,-11.947 0.82,-12 0,-12C-0.82,-12 -1.427,-11.947 -1.427,-11.947C-1.974,-11.899 -2.574,-11.436 -2.758,-10.918L-4.227,-6.79C-4.411,-6.272 -4.987,-5.7 -5.507,-5.519L-7.085,-4.868C-7.58,-4.63 -8.392,-4.628 -8.889,-4.864L-12.836,-6.739C-13.333,-6.975 -14.074,-6.868 -14.484,-6.501L-16.501,-4.484C-16.868,-4.074 -16.975,-3.333 -16.739,-2.836L-14.864,1.108C-14.628,1.605 -14.63,2.417 -14.868,2.913L-15.519,4.493C-15.7,5.013 -16.272,5.589 -16.79,5.773L-20.918,7.242C-21.436,7.426 -21.899,8.026 -21.947,8.573C-21.947,8.573 -22,9.18 -22,10C-22,10.819 -21.947,11.427 -21.947,11.427C-21.899,11.974 -21.436,12.574 -20.918,12.758L-16.788,14.227C-16.269,14.411 -15.698,14.987 -15.517,15.507L-14.865,17.087C-14.627,17.583 -14.625,18.395 -14.861,18.892L-16.736,22.836C-16.972,23.333 -16.865,24.074 -16.498,24.484L-14.481,26.501C-14.071,26.868 -13.33,26.975 -12.833,26.739L-8.889,24.864C-8.392,24.628 -7.58,24.63 -7.085,24.868L-5.504,25.519C-4.984,25.7 -4.409,26.272 -4.224,26.79L-2.755,30.92C-2.571,31.439 -1.972,31.901 -1.424,31.948C-1.424,31.948 -0.82,32 0,32C0.82,32 1.427,31.947 1.427,31.947C1.974,31.899 2.574,31.436 2.758,30.918L4.227,26.788C4.411,26.269 4.987,25.698 5.507,25.517L7.087,24.865C7.583,24.627 8.395,24.625 8.892,24.861L12.836,26.736C13.333,26.972 14.074,26.865 14.484,26.498L16.501,24.481C16.868,24.071 16.975,23.33 16.739,22.833L14.864,18.889C14.628,18.392 14.63,17.58 14.868,17.085L15.519,15.504C15.7,14.984 16.272,14.409 16.79,14.224L20.92,12.755C21.439,12.571 21.901,11.972 21.948,11.424C21.948,11.424 22,10.819 22,10C22,9.18 21.947,8.573 21.947,8.573" style="fill:white;fill-rule:nonzero;"/>
                </g>
            </g>
        </g>
    </g>
</svg>
