<?xml version="1.0" encoding="UTF-8" standalone="no"?>
<!DOCTYPE svg PUBLIC "-//W3C//DTD SVG 1.1//EN" "http://www.w3.org/Graphics/SVG/1.1/DTD/svg11.dtd">
<svg width="100%" height="100%" viewBox="0 0 356 356" version="1.1" xmlns="http://www.w3.org/2000/svg" xmlns:xlink="http://www.w3.org/1999/xlink" xml:space="preserve" xmlns:serif="http://www.serif.com/" style="fill-rule:evenodd;clip-rule:evenodd;stroke-linejoin:round;stroke-miterlimit:2;">
    <g transform="matrix(5.55556,0,0,5.55556,-400,-400)">
        <g id="Page-15" serif:id="Page 15" transform="matrix(1,0,0,1,72,72)">
            <rect x="0" y="0" width="64" height="64" style="fill:none;"/>
            <g id="Layer-1" serif:id="Layer 1">
                <g transform="matrix(0,-1,-1,0,32,0)">
                    <path d="M-32,-32C-49.673,-32 -64,-17.673 -64,0C-64,17.673 -49.673,32 -32,32C-14.327,32 0,17.673 0,0C0,-17.673 -14.327,-32 -32,-32" style="fill:rgb(79,93,115);fill-rule:nonzero;"/>
                </g>
                <g opacity="0.2">
                    <g transform="matrix(0,-1,-1,0,32,12)">
                        <path d="M-22,-22C-34.15,-22 -44,-12.15 -44,0C-44,12.15 -34.15,22 -22,22C-9.85,22 0,12.15 0,0C0,-12.15 -9.85,-22 -22,-22" style="fill:rgb(35,31,32);fill-rule:nonzero;"/>
                    </g>
                </g>
                <g transform="matrix(1,0,0,1,32,12)">
                    <path d="M0,40C-11.028,40 -20,31.028 -20,20C-20,8.972 -11.028,0 0,0C11.028,0 20,8.972 20,20C20,31.028 11.028,40 0,40" style="fill:rgb(199,92,92);fill-rule:nonzero;"/>
                </g>
                <g transform="matrix(1,0,0,1,32,54)">
                    <path d="M0,-44C-12.15,-44 -22,-34.15 -22,-22C-22,-9.85 -12.15,0 0,0C12.15,0 22,-9.85 22,-22C22,-34.15 12.15,-44 0,-44M0,-40C9.925,-40 18,-31.925 18,-22C18,-12.075 9.925,-4 0,-4C-9.925,-4 -18,-12.075 -18,-22C-18,-31.925 -9.925,-40 0,-40" style="fill:white;fill-rule:nonzero;"/>
                </g>
                <g transform="matrix(1,0,0,1,32,46)">
                    <path d="M0,-28C-7.732,-28 -14,-21.732 -14,-14C-14,-6.268 -7.732,0 0,0C7.732,0 14,-6.268 14,-14C14,-21.732 7.732,-28 0,-28M0,-24C5.514,-24 10,-19.514 10,-14C10,-8.486 5.514,-4 0,-4C-5.514,-4 -10,-8.486 -10,-14C-10,-19.514 -5.514,-24 0,-24" style="fill:white;fill-rule:nonzero;"/>
                </g>
                <g transform="matrix(0,-1,-1,0,32,27)">
                    <path d="M-5,-5C-7.761,-5 -10,-2.761 -10,0C-10,2.761 -7.761,5 -5,5C-2.239,5 0,2.761 0,0C0,-2.761 -2.239,-5 -5,-5" style="fill:white;fill-rule:nonzero;"/>
                </g>
            </g>
        </g>
    </g>
</svg>
