<?xml version="1.0" encoding="UTF-8" standalone="no"?>
<!DOCTYPE svg PUBLIC "-//W3C//DTD SVG 1.1//EN" "http://www.w3.org/Graphics/SVG/1.1/DTD/svg11.dtd">
<svg width="100%" height="100%" viewBox="0 0 356 356" version="1.1" xmlns="http://www.w3.org/2000/svg" xmlns:xlink="http://www.w3.org/1999/xlink" xml:space="preserve" xmlns:serif="http://www.serif.com/" style="fill-rule:evenodd;clip-rule:evenodd;stroke-linejoin:round;stroke-miterlimit:2;">
    <g transform="matrix(5.55556,0,0,5.55556,-3600,-2400)">
        <g id="Page-88" serif:id="Page 88" transform="matrix(1,0,0,1,648,432)">
            <rect x="0" y="0" width="64" height="64" style="fill:none;"/>
            <g id="Layer-1" serif:id="Layer 1">
                <g transform="matrix(0,-1,-1,0,32,0)">
                    <path d="M-32,-32C-49.673,-32 -64,-17.673 -64,0C-64,17.673 -49.673,32 -32,32C-14.327,32 0,17.673 0,0C0,-17.673 -14.327,-32 -32,-32" style="fill:rgb(79,93,115);fill-rule:nonzero;"/>
                </g>
                <g opacity="0.2">
                    <g transform="matrix(1,0,0,1,32.0962,47.0963)">
                        <path d="M0,-7.414C-1.556,-5.858 -6.087,5.126 -6.087,5.126C-6.751,6.335 -5.757,7.212 -3.494,6.063L4.638,1.628C9.019,-0.807 9.866,-1.443 9.808,-6.401L8.993,-12.254C8.714,-14.259 7.212,-14.626 5.657,-13.071L0,-7.414Z" style="fill:rgb(35,31,32);fill-rule:nonzero;"/>
                    </g>
                </g>
                <g opacity="0.2">
                    <g transform="matrix(1,0,0,1,27.0719,31.5441)">
                        <path d="M0,3.114C-1.556,4.67 -12.54,9.201 -12.54,9.201C-13.749,9.866 -14.626,8.871 -13.477,6.608L-9.042,-1.524C-6.607,-5.904 -5.971,-6.752 -1.013,-6.694L4.84,-5.879C6.845,-5.6 7.212,-4.098 5.657,-2.543L0,3.114Z" style="fill:rgb(35,31,32);fill-rule:nonzero;"/>
                    </g>
                </g>
                <g transform="matrix(1,0,0,1,32.0962,45.0963)">
                    <path d="M0,-7.414C-1.556,-5.858 -6.087,5.126 -6.087,5.126C-6.751,6.335 -5.757,7.212 -3.494,6.063L4.638,1.628C9.019,-0.807 9.866,-1.443 9.808,-6.401L8.993,-12.254C8.714,-14.259 7.212,-14.626 5.657,-13.071L0,-7.414Z" style="fill:rgb(199,92,92);fill-rule:nonzero;"/>
                </g>
                <g transform="matrix(1,0,0,1,27.0719,29.5441)">
                    <path d="M0,3.114C-1.556,4.67 -12.54,9.201 -12.54,9.201C-13.749,9.866 -14.626,8.871 -13.477,6.608L-9.042,-1.524C-6.607,-5.904 -5.971,-6.752 -1.013,-6.694L4.84,-5.879C6.845,-5.6 7.212,-4.098 5.657,-2.543L0,3.114Z" style="fill:rgb(199,92,92);fill-rule:nonzero;"/>
                </g>
                <g opacity="0.2">
                    <g transform="matrix(-0.707107,0.707107,0.707107,0.707107,26.4359,46.8922)">
                        <path d="M-1.526,-8.865C-8.702,-8.865 -10.621,-4.756 -10.621,-4.756C-10.621,-4.756 -8.702,-0.646 -1.526,-0.646C5.65,-0.646 14.066,-3.85 14.066,-4.755C14.066,-5.633 5.65,-8.865 -1.526,-8.865" style="fill:rgb(35,31,32);fill-rule:nonzero;"/>
                    </g>
                </g>
                <g transform="matrix(-0.707107,0.707107,0.707107,0.707107,26.4359,44.8922)">
                    <path d="M-1.526,-8.865C-8.702,-8.865 -10.621,-4.756 -10.621,-4.756C-10.621,-4.756 -8.702,-0.646 -1.526,-0.646C5.65,-0.646 14.066,-3.85 14.066,-4.755C14.066,-5.633 5.65,-8.865 -1.526,-8.865" style="fill:rgb(224,153,94);fill-rule:nonzero;"/>
                </g>
                <g transform="matrix(-0.707107,0.707107,0.707107,0.707107,30.6786,40.6496)">
                    <path d="M-1.526,-8.865C-8.702,-8.865 -10.621,-4.756 -10.621,-4.756C-10.621,-4.756 -8.702,-0.646 -1.526,-0.646C5.65,-0.646 14.066,-3.85 14.066,-4.756C14.066,-5.633 5.65,-8.865 -1.526,-8.865" style="fill:rgb(245,207,135);fill-rule:nonzero;"/>
                </g>
                <g opacity="0.2">
                    <g transform="matrix(0.707107,-0.707107,-0.707107,-0.707107,46.965,30.1786)">
                        <path d="M-7.234,-2.523C-18.279,-2.523 -25.234,7.454 -25.234,7.454C-25.234,7.454 -18.28,17.43 -7.234,17.43C3.812,17.43 12.767,9.651 12.766,7.454C12.766,5.323 3.811,-2.523 -7.234,-2.523" style="fill:rgb(35,31,32);fill-rule:nonzero;"/>
                    </g>
                </g>
                <g transform="matrix(0.707107,-0.707107,-0.707107,-0.707107,46.965,28.1786)">
                    <path d="M-7.234,-2.523C-18.279,-2.523 -25.234,7.454 -25.234,7.454C-25.234,7.454 -18.28,17.43 -7.234,17.43C3.812,17.43 12.767,9.651 12.766,7.454C12.766,5.323 3.811,-2.523 -7.234,-2.523" style="fill:rgb(224,224,209);fill-rule:nonzero;"/>
                </g>
                <g opacity="0.2">
                    <g transform="matrix(1,0,0,1,21.023,32.852)">
                        <path d="M0,14.142C-0.781,14.923 -1.34,15.63 -2.121,14.849C-2.902,14.068 -2.195,13.509 -1.414,12.728L8.485,0C9.266,-0.781 12.654,-1.488 13.435,-0.707C14.216,0.074 13.509,3.461 12.728,4.243L0,14.142Z" style="fill:rgb(35,31,32);fill-rule:nonzero;"/>
                    </g>
                </g>
                <g transform="matrix(1,0,0,1,21.023,30.852)">
                    <path d="M0,14.142C-0.781,14.923 -1.34,15.63 -2.121,14.849C-2.902,14.068 -2.195,13.509 -1.414,12.728L8.485,0C9.266,-0.781 12.654,-1.488 13.435,-0.707C14.216,0.074 13.509,3.461 12.728,4.243L0,14.142Z" style="fill:rgb(199,92,92);fill-rule:nonzero;"/>
                </g>
                <g opacity="0.2">
                    <g transform="matrix(0.707107,-0.707107,-0.707107,-0.707107,43.6044,27.1498)">
                        <path d="M-2.829,-1.172C-5.038,-1.172 -6.829,0.619 -6.829,2.829C-6.829,5.038 -5.038,6.829 -2.829,6.829C-0.619,6.829 1.172,5.038 1.172,2.829C1.172,0.619 -0.619,-1.172 -2.829,-1.172" style="fill:rgb(35,31,32);fill-rule:nonzero;"/>
                    </g>
                </g>
                <g opacity="0.2">
                    <g transform="matrix(0.707107,-0.707107,-0.707107,-0.707107,47.2612,21.4932)">
                        <path d="M-1.414,-0.586C-2.519,-0.586 -3.414,0.309 -3.414,1.414C-3.414,2.519 -2.519,3.414 -1.414,3.414C-0.309,3.414 0.586,2.519 0.586,1.414C0.586,0.309 -0.309,-0.586 -1.414,-0.586" style="fill:rgb(35,31,32);fill-rule:nonzero;"/>
                    </g>
                </g>
                <g transform="matrix(0.707107,-0.707107,-0.707107,-0.707107,43.6044,25.1498)">
                    <path d="M-2.829,-1.172C-5.038,-1.172 -6.829,0.619 -6.829,2.829C-6.829,5.038 -5.038,6.829 -2.829,6.829C-0.619,6.829 1.172,5.038 1.172,2.829C1.172,0.619 -0.619,-1.172 -2.829,-1.172" style="fill:rgb(79,93,115);fill-rule:nonzero;"/>
                </g>
                <g transform="matrix(0.707107,-0.707107,-0.707107,-0.707107,47.2612,19.4932)">
                    <path d="M-1.414,-0.586C-2.519,-0.586 -3.414,0.309 -3.414,1.414C-3.414,2.519 -2.519,3.414 -1.414,3.414C-0.309,3.414 0.586,2.519 0.586,1.414C0.586,0.309 -0.309,-0.586 -1.414,-0.586" style="fill:rgb(79,93,115);fill-rule:nonzero;"/>
                </g>
            </g>
        </g>
    </g>
</svg>
