<?xml version="1.0" encoding="UTF-8" standalone="no"?>
<!DOCTYPE svg PUBLIC "-//W3C//DTD SVG 1.1//EN" "http://www.w3.org/Graphics/SVG/1.1/DTD/svg11.dtd">
<svg width="100%" height="100%" viewBox="0 0 356 356" version="1.1" xmlns="http://www.w3.org/2000/svg" xmlns:xlink="http://www.w3.org/1999/xlink" xml:space="preserve" xmlns:serif="http://www.serif.com/" style="fill-rule:evenodd;clip-rule:evenodd;stroke-linejoin:round;stroke-miterlimit:2;">
    <g transform="matrix(5.55556,0,0,5.55556,-2400,-800)">
        <g id="Page-33" serif:id="Page 33" transform="matrix(1,0,0,1,432,144)">
            <rect x="0" y="0" width="64" height="64" style="fill:none;"/>
            <g id="Layer-1" serif:id="Layer 1">
                <g transform="matrix(0,-1,-1,0,32,0)">
                    <path d="M-32,-32C-49.673,-32 -64,-17.673 -64,0C-64,17.673 -49.673,32 -32,32C-14.327,32 0,17.673 0,0C0,-17.673 -14.327,-32 -32,-32" style="fill:rgb(224,224,209);fill-rule:nonzero;"/>
                </g>
                <g opacity="0.2">
                    <g transform="matrix(1,0,0,1,44,46.999)">
                        <path d="M0,-22.999C-1.104,-22.999 -2,-23.895 -2,-24.999C-2,-26.103 -1.104,-26.999 0,-26.999C1.104,-26.999 2,-26.103 2,-24.999C2,-23.895 1.104,-22.999 0,-22.999M3.837,-29.998L3.77,-29.998C3.75,-29.998 3.733,-30 3.713,-29.998L-11.793,-29.998C-12.171,-29.981 -13.029,-29.391 -13.14,-29.28L-31.279,-11.135C-32.24,-10.172 -32.24,-8.613 -31.279,-7.651L-17.353,6.281C-16.869,6.762 -16.24,7.001 -15.611,7.001C-14.983,7.001 -14.351,6.762 -13.87,6.281L4.268,-11.865C4.379,-11.976 4.998,-12.738 4.998,-13.212L4.998,-28.774C5.033,-29.462 4.512,-29.998 3.837,-29.998" style="fill:rgb(35,31,32);fill-rule:nonzero;"/>
                    </g>
                </g>
                <g transform="matrix(1,0,0,1,44,44.999)">
                    <path d="M0,-22.999C-1.104,-22.999 -2,-23.895 -2,-24.999C-2,-26.103 -1.104,-26.999 0,-26.999C1.104,-26.999 2,-26.103 2,-24.999C2,-23.895 1.104,-22.999 0,-22.999M3.837,-29.998L3.77,-29.998C3.75,-29.998 3.733,-30 3.713,-29.998L-11.793,-29.998C-12.171,-29.981 -13.029,-29.391 -13.14,-29.28L-31.279,-11.135C-32.24,-10.172 -32.24,-8.613 -31.279,-7.651L-17.353,6.281C-16.869,6.762 -16.24,7.001 -15.611,7.001C-14.983,7.001 -14.351,6.762 -13.87,6.281L4.268,-11.865C4.379,-11.976 4.998,-12.738 4.998,-13.212L4.998,-28.774C5.033,-29.462 4.512,-29.998 3.837,-29.998" style="fill:rgb(199,92,92);fill-rule:nonzero;"/>
                </g>
            </g>
        </g>
    </g>
</svg>
