<?xml version="1.0" encoding="UTF-8" standalone="no"?>
<!DOCTYPE svg PUBLIC "-//W3C//DTD SVG 1.1//EN" "http://www.w3.org/Graphics/SVG/1.1/DTD/svg11.dtd">
<svg width="100%" height="100%" viewBox="0 0 356 356" version="1.1" xmlns="http://www.w3.org/2000/svg" xmlns:xlink="http://www.w3.org/1999/xlink" xml:space="preserve" xmlns:serif="http://www.serif.com/" style="fill-rule:evenodd;clip-rule:evenodd;stroke-linejoin:round;stroke-miterlimit:2;">
    <g transform="matrix(5.55556,0,0,5.55556,-1600,-2000)">
        <g id="Page-70" serif:id="Page 70" transform="matrix(1,0,0,1,288,360)">
            <rect x="0" y="0" width="64" height="64" style="fill:none;"/>
            <g id="Layer-1" serif:id="Layer 1">
                <g transform="matrix(0,-1,-1,0,32,0)">
                    <path d="M-32,-32C-49.673,-32 -64,-17.673 -64,0C-64,17.673 -49.673,32 -32,32C-14.327,32 0,17.673 0,0C0,-17.673 -14.327,-32 -32,-32" style="fill:rgb(118,194,175);fill-rule:nonzero;"/>
                </g>
                <g opacity="0.2">
                    <g transform="matrix(1,0,0,1,52,18)">
                        <path d="M0,32C0,34.209 -1.791,36 -4,36L-36,36C-38.209,36 -40,34.209 -40,32L-40,0C-40,-2.209 -38.209,-4 -36,-4L-4,-4C-1.791,-4 0,-2.209 0,0L0,32Z" style="fill:rgb(35,31,32);fill-rule:nonzero;"/>
                    </g>
                </g>
                <g transform="matrix(1,0,0,1,52,16)">
                    <path d="M0,32C0,34.209 -1.791,36 -4,36L-36,36C-38.209,36 -40,34.209 -40,32L-40,0C-40,-2.209 -38.209,-4 -36,-4L-4,-4C-1.791,-4 0,-2.209 0,0L0,32Z" style="fill:rgb(199,92,92);fill-rule:nonzero;"/>
                </g>
                <g opacity="0.2">
                    <g transform="matrix(1,0,0,-1,0,64)">
                        <rect x="24" y="10" width="4" height="40" style="fill:rgb(35,31,32);"/>
                    </g>
                </g>
                <g opacity="0.2">
                    <g transform="matrix(1,0,0,-1,0,64)">
                        <rect x="12" y="30" width="40" height="4" style="fill:rgb(35,31,32);"/>
                    </g>
                </g>
                <g transform="matrix(-1,0,0,1,52,0)">
                    <rect x="24" y="12" width="4" height="40" style="fill:rgb(245,207,135);"/>
                </g>
                <g transform="matrix(-1,0,0,1,64,-4)">
                    <rect x="12" y="32" width="40" height="4" style="fill:rgb(245,207,135);"/>
                </g>
                <g opacity="0.2">
                    <g transform="matrix(1,0,0,1,33.9113,35.0729)">
                        <path d="M0,-6.076C-0.762,-5.314 -2.111,-5.003 -4.657,-5.003C-5.065,-5.003 -5.48,-5.01 -5.9,-5.019C-5.957,-7.631 -5.921,-9.841 -4.843,-10.919C-4.196,-11.566 -3.336,-11.922 -2.422,-11.922C-1.507,-11.922 -0.647,-11.566 0,-10.919C1.335,-9.584 1.335,-7.411 0,-6.076M-11.065,4.843C-11.712,5.49 -12.572,5.846 -13.487,5.846C-14.401,5.846 -15.261,5.49 -15.908,4.843C-17.243,3.508 -17.243,1.335 -15.908,0C-15.146,-0.762 -13.797,-1.073 -11.252,-1.073C-10.843,-1.073 -10.428,-1.066 -10.008,-1.057C-9.951,1.554 -9.987,3.765 -11.065,4.843M2.121,-13.04C0.867,-14.295 -0.777,-14.922 -2.422,-14.922C-4.066,-14.922 -5.71,-14.295 -6.964,-13.04C-8.795,-11.21 -8.955,-8.492 -8.908,-5.493C-9.539,-5.784 -13.766,-7.873 -14.185,-11.679C-14.275,-12.503 -15.02,-13.094 -15.84,-13.007C-16.663,-12.916 -17.257,-12.175 -17.167,-11.351C-16.775,-7.787 -14.307,-5.402 -12.371,-4.051C-14.608,-3.964 -16.593,-3.558 -18.03,-2.122C-20.539,0.387 -20.539,4.455 -18.03,6.964C-16.775,8.219 -15.131,8.846 -13.487,8.846C-11.842,8.846 -10.198,8.219 -8.944,6.964C-7.223,5.244 -6.978,2.739 -6.993,-0.046C-6.891,0.062 -6.778,0.161 -6.642,0.237C-6.595,0.263 -1.995,2.892 -1.995,7.011C-1.995,7.839 -1.323,8.511 -0.495,8.511C0.334,8.511 1.005,7.839 1.005,7.011C1.005,2.16 -3.003,-0.967 -4.57,-2.005C-1.914,-2.011 0.467,-2.3 2.121,-3.955C4.63,-6.464 4.63,-10.531 2.121,-13.04" style="fill:rgb(35,31,32);fill-rule:nonzero;"/>
                    </g>
                </g>
                <g transform="matrix(1,0,0,1,31.4897,31.0698)">
                    <path d="M0,-12.919C-1.644,-12.919 -3.288,-12.292 -4.543,-11.037C-7.052,-8.528 -6.425,-4.353 -6.425,-0.07C-4.997,-0.07 -3.581,0 -2.235,0C0.457,0 2.87,-0.279 4.543,-1.952C7.052,-4.461 7.052,-8.528 4.543,-11.037C3.288,-12.292 1.644,-12.919 0,-12.919M0,-9.919C0.915,-9.919 1.775,-9.563 2.422,-8.916C3.757,-7.581 3.757,-5.408 2.422,-4.073C1.66,-3.311 0.31,-3 -2.235,-3C-2.643,-3 -3.058,-3.007 -3.478,-3.016C-3.536,-5.628 -3.499,-7.838 -2.422,-8.916C-1.775,-9.563 -0.915,-9.919 0,-9.919" style="fill:rgb(245,207,135);fill-rule:nonzero;"/>
                </g>
                <g transform="matrix(1,0,0,1,22.6596,41.919)">
                    <path d="M0,-12.919C-2.692,-12.919 -5.105,-12.64 -6.778,-10.968C-9.287,-8.459 -9.287,-4.391 -6.778,-1.882C-5.523,-0.627 -3.879,0 -2.235,0C-0.591,0 1.053,-0.627 2.308,-1.882C4.817,-4.391 4.19,-8.566 4.19,-12.849C2.762,-12.849 1.346,-12.919 0,-12.919M0,-9.919C0.408,-9.919 0.823,-9.912 1.243,-9.903C1.301,-7.291 1.264,-5.081 0.187,-4.003C-0.46,-3.356 -1.32,-3 -2.235,-3C-3.15,-3 -4.01,-3.356 -4.657,-4.003C-5.992,-5.338 -5.992,-7.511 -4.657,-8.846C-3.895,-9.608 -2.546,-9.919 0,-9.919" style="fill:rgb(245,207,135);fill-rule:nonzero;"/>
                </g>
                <g transform="matrix(1,0,0,1,33.417,30.287)">
                    <path d="M0,11.296C-0.828,11.296 -1.5,10.624 -1.5,9.796C-1.5,5.678 -6.101,3.049 -6.147,3.024C-6.868,2.618 -7.128,1.706 -6.726,0.983C-6.323,0.262 -5.414,0 -4.69,0.4C-4.437,0.541 1.5,3.897 1.5,9.796C1.5,10.624 0.828,11.296 0,11.296" style="fill:rgb(245,207,135);fill-rule:nonzero;"/>
                </g>
                <g transform="matrix(1,0,0,1,24.502,19.978)">
                    <path d="M0,10.522C-0.192,10.522 -0.389,10.485 -0.578,10.406C-0.845,10.294 -7.112,7.608 -7.758,1.744C-7.849,0.92 -7.254,0.179 -6.431,0.088C-5.609,0 -4.866,0.592 -4.775,1.416C-4.322,5.542 0.531,7.618 0.58,7.638C1.344,7.958 1.704,8.836 1.385,9.601C1.145,10.176 0.587,10.522 0,10.522" style="fill:rgb(245,207,135);fill-rule:nonzero;"/>
                </g>
            </g>
        </g>
    </g>
</svg>
