<?xml version="1.0" encoding="UTF-8" standalone="no"?>
<!DOCTYPE svg PUBLIC "-//W3C//DTD SVG 1.1//EN" "http://www.w3.org/Graphics/SVG/1.1/DTD/svg11.dtd">
<svg width="100%" height="100%" viewBox="0 0 356 356" version="1.1" xmlns="http://www.w3.org/2000/svg" xmlns:xlink="http://www.w3.org/1999/xlink" xml:space="preserve" xmlns:serif="http://www.serif.com/" style="fill-rule:evenodd;clip-rule:evenodd;stroke-linejoin:round;stroke-miterlimit:2;">
    <g transform="matrix(5.55556,0,0,5.55556,-1200,-2000)">
        <g id="Page-69" serif:id="Page 69" transform="matrix(1,0,0,1,216,360)">
            <rect x="0" y="0" width="64" height="64" style="fill:none;"/>
            <g id="Layer-1" serif:id="Layer 1">
                <g transform="matrix(0,-1,-1,0,32,0)">
                    <path d="M-32,-32C-49.673,-32 -64,-17.673 -64,0C-64,17.673 -49.673,32 -32,32C-14.327,32 0,17.673 0,0C0,-17.673 -14.327,-32 -32,-32" style="fill:rgb(224,224,209);fill-rule:nonzero;"/>
                </g>
                <g opacity="0.2">
                    <g transform="matrix(1,0,0,1,32,50.912)">
                        <path d="M0,-40.912C-13.255,-40.912 -24,-30.167 -24,-16.912C-24,-11.611 -22.278,-6.714 -19.368,-2.743C-19.124,-2.476 -16.817,-0.095 -14.142,-2.77L-5.657,-11.255C-5.657,-11.255 -4,-12.891 -4,-16.912C-4,-19.121 -2.209,-20.912 0,-20.912C2.209,-20.912 4,-19.121 4,-16.912C4,-16.912 3.741,-13.171 5.657,-11.255L14.142,-2.77C14.142,-2.77 16.937,0 19.372,-2.75C22.28,-6.72 24,-11.614 24,-16.912C24,-30.167 13.255,-40.912 0,-40.912" style="fill:rgb(35,31,32);fill-rule:nonzero;"/>
                    </g>
                </g>
                <g transform="matrix(1,0,0,1,17.8579,10.7701)">
                    <path d="M0,35.372C-3.619,31.753 -5.858,26.753 -5.858,21.23C-5.858,10.184 3.096,1.23 14.142,1.23C25.188,1.23 34.142,10.184 34.142,21.23C34.142,26.753 31.904,31.753 28.284,35.372C28.284,35.372 31.079,38.142 33.515,35.392C36.422,31.422 38.142,26.528 38.142,21.23C38.142,7.975 27.397,-2.77 14.142,-2.77C0.887,-2.77 -9.858,7.975 -9.858,21.23C-9.858,26.531 -8.136,31.428 -5.225,35.399C-4.982,35.666 -2.675,38.047 0,35.372" style="fill:rgb(199,92,92);fill-rule:nonzero;"/>
                </g>
                <g transform="matrix(1,0,0,1,32,46.142)">
                    <path d="M0,-34.142C-11.046,-34.142 -20,-25.188 -20,-14.142C-20,-8.619 -17.761,-3.619 -14.142,0L-11.314,-2.828C-14.209,-5.724 -16,-9.724 -16,-14.142C-16,-22.979 -8.837,-30.142 0,-30.142C8.837,-30.142 16,-22.979 16,-14.142C16,-9.724 14.209,-5.724 11.314,-2.828L14.142,0C17.761,-3.619 20,-8.619 20,-14.142C20,-25.188 11.046,-34.142 0,-34.142" style="fill:rgb(224,153,94);fill-rule:nonzero;"/>
                </g>
                <g transform="matrix(1,0,0,1,32,43.314)">
                    <path d="M0,-27.314C-8.837,-27.314 -16,-20.151 -16,-11.314C-16,-6.896 -14.209,-2.896 -11.314,0L-8.485,-2.829C-10.657,-5 -12,-8 -12,-11.314C-12,-17.941 -6.627,-23.314 0,-23.314C6.627,-23.314 12,-17.941 12,-11.314C12,-8 10.657,-5 8.485,-2.829L11.314,0C14.209,-2.896 16,-6.896 16,-11.314C16,-20.151 8.837,-27.314 0,-27.314" style="fill:rgb(245,207,135);fill-rule:nonzero;"/>
                </g>
                <g transform="matrix(1,0,0,1,32,40.485)">
                    <path d="M0,-20.485C-6.627,-20.485 -12,-15.112 -12,-8.485C-12,-5.171 -10.657,-2.171 -8.485,0L-5.657,-2.828C-7.105,-4.276 -8,-6.276 -8,-8.485C-8,-12.903 -4.418,-16.485 0,-16.485C4.418,-16.485 8,-12.903 8,-8.485C8,-6.276 7.105,-4.276 5.657,-2.828L8.485,0C10.657,-2.171 12,-5.171 12,-8.485C12,-15.112 6.627,-20.485 0,-20.485" style="fill:rgb(118,194,175);fill-rule:nonzero;"/>
                </g>
                <g transform="matrix(1,0,0,1,32,37.657)">
                    <path d="M0,-13.657C-4.418,-13.657 -8,-10.075 -8,-5.657C-8,-3.448 -7.105,-1.448 -5.657,0C-5.657,0 -4,-1.636 -4,-5.657C-4,-7.866 -2.209,-9.657 0,-9.657C2.209,-9.657 4,-7.866 4,-5.657C4,-5.657 3.741,-1.916 5.657,0C7.105,-1.448 8,-3.448 8,-5.657C8,-10.075 4.418,-13.657 0,-13.657" style="fill:rgb(79,93,115);fill-rule:nonzero;"/>
                </g>
            </g>
        </g>
    </g>
</svg>
