<?xml version="1.0" encoding="UTF-8" standalone="no"?>
<!DOCTYPE svg PUBLIC "-//W3C//DTD SVG 1.1//EN" "http://www.w3.org/Graphics/SVG/1.1/DTD/svg11.dtd">
<svg width="100%" height="100%" viewBox="0 0 356 356" version="1.1" xmlns="http://www.w3.org/2000/svg" xmlns:xlink="http://www.w3.org/1999/xlink" xml:space="preserve" xmlns:serif="http://www.serif.com/" style="fill-rule:evenodd;clip-rule:evenodd;stroke-linejoin:round;stroke-miterlimit:2;">
    <g transform="matrix(5.55556,0,0,5.55556,-4800,0)">
        <g id="Page-13" serif:id="Page 13" transform="matrix(1,0,0,1,864,0)">
            <rect x="0" y="0" width="64" height="64" style="fill:none;"/>
            <g id="Layer-1" serif:id="Layer 1">
                <g transform="matrix(0,-1,-1,0,32,0)">
                    <path d="M-32,-32C-49.673,-32 -64,-17.673 -64,0C-64,17.673 -49.673,32 -32,32C-14.327,32 0,17.673 0,0C0,-17.673 -14.327,-32 -32,-32" style="fill:rgb(224,153,94);fill-rule:nonzero;"/>
                </g>
                <g opacity="0.2">
                    <g transform="matrix(1,0,0,1,48,35.256)">
                        <path d="M0,17.244C-0.64,17.244 -1.28,17 -1.768,16.512L-13.768,4.512C-14.744,3.535 -14.744,1.953 -13.768,0.976C-12.792,0 -11.208,0 -10.232,0.976L1.768,12.976C2.744,13.953 2.744,15.535 1.768,16.512C1.28,17 0.64,17.244 0,17.244" style="fill:rgb(35,31,32);fill-rule:nonzero;"/>
                    </g>
                </g>
                <g transform="matrix(1,0,0,1,48,33.256)">
                    <path d="M0,17.244C-0.64,17.244 -1.28,17 -1.768,16.512L-13.768,4.512C-14.744,3.535 -14.744,1.953 -13.768,0.976C-12.792,0 -11.208,0 -10.232,0.976L1.768,12.976C2.744,13.953 2.744,15.535 1.768,16.512C1.28,17 0.64,17.244 0,17.244" style="fill:rgb(79,93,115);fill-rule:nonzero;"/>
                </g>
                <g transform="matrix(-0.707107,-0.707107,-0.707107,0.707107,17.819,28.386)">
                    <path d="M-7.472,-18.039C-13.308,-18.039 -18.039,-13.308 -18.039,-7.472C-18.039,-1.636 -13.308,3.095 -7.472,3.095C-1.636,3.095 3.095,-1.636 3.095,-7.472C3.095,-13.308 -1.636,-18.039 -7.472,-18.039" style="fill:rgb(119,179,212);fill-rule:nonzero;"/>
                </g>
                <g opacity="0.2">
                    <g transform="matrix(1,0,0,1,28.386,44.9529)">
                        <path d="M0,-29.134C-3.891,-29.134 -7.549,-27.619 -10.3,-24.867C-15.98,-19.188 -15.98,-9.946 -10.3,-4.267C-7.549,-1.515 -3.891,0 0,0C3.891,0 7.549,-1.515 10.3,-4.267C15.98,-9.946 15.98,-19.188 10.3,-24.867C7.549,-27.619 3.891,-29.134 0,-29.134M0,-25.134C2.704,-25.134 5.409,-24.102 7.472,-22.039C11.599,-17.912 11.599,-11.222 7.472,-7.095C5.409,-5.032 2.704,-4 0,-4C-2.704,-4 -5.409,-5.032 -7.472,-7.095C-11.599,-11.222 -11.599,-17.912 -7.472,-22.039C-5.409,-24.102 -2.704,-25.134 0,-25.134" style="fill:rgb(35,31,32);fill-rule:nonzero;"/>
                    </g>
                </g>
                <g transform="matrix(1,0,0,1,28.386,42.9529)">
                    <path d="M0,-29.134C-3.891,-29.134 -7.549,-27.619 -10.3,-24.867C-15.98,-19.188 -15.98,-9.946 -10.3,-4.267C-7.549,-1.515 -3.891,0 0,0C3.891,0 7.549,-1.515 10.3,-4.267C15.98,-9.946 15.98,-19.188 10.3,-24.867C7.549,-27.619 3.891,-29.134 0,-29.134M0,-25.134C2.704,-25.134 5.409,-24.102 7.472,-22.039C11.599,-17.912 11.599,-11.222 7.472,-7.095C5.409,-5.032 2.704,-4 0,-4C-2.704,-4 -5.409,-5.032 -7.472,-7.095C-11.599,-11.222 -11.599,-17.912 -7.472,-22.039C-5.409,-24.102 -2.704,-25.134 0,-25.134" style="fill:white;fill-rule:nonzero;"/>
                </g>
            </g>
        </g>
    </g>
</svg>
