<?xml version="1.0" encoding="UTF-8" standalone="no"?>
<!DOCTYPE svg PUBLIC "-//W3C//DTD SVG 1.1//EN" "http://www.w3.org/Graphics/SVG/1.1/DTD/svg11.dtd">
<svg width="100%" height="100%" viewBox="0 0 356 356" version="1.1" xmlns="http://www.w3.org/2000/svg" xmlns:xlink="http://www.w3.org/1999/xlink" xml:space="preserve" xmlns:serif="http://www.serif.com/" style="fill-rule:evenodd;clip-rule:evenodd;stroke-linejoin:round;stroke-miterlimit:2;">
    <g transform="matrix(5.55556,0,0,5.55556,0,0)">
        <rect id="Page-1" serif:id="Page 1" x="0" y="0" width="64" height="64" style="fill:none;"/>
        <g id="Page-11" serif:id="Page 1">
            <g id="Layer-1" serif:id="Layer 1">
                <g transform="matrix(0,-1,-1,0,32,0)">
                    <path d="M-32,-32C-49.673,-32 -64,-17.673 -64,0C-64,17.673 -49.673,32 -32,32C-14.327,32 0,17.673 0,0C0,-17.673 -14.327,-32 -32,-32" style="fill:rgb(119,179,212);fill-rule:nonzero;"/>
                </g>
                <g opacity="0.2">
                    <g transform="matrix(1,0,0,1,52,18)">
                        <path d="M0,30C0,32.209 -1.791,34 -4,34L-36,34C-38.209,34 -40,32.209 -40,30L-40,0C-40,-2.209 -38.209,-4 -36,-4L-4,-4C-1.791,-4 0,-2.209 0,0L0,30Z" style="fill:rgb(35,31,32);fill-rule:nonzero;"/>
                    </g>
                </g>
                <g transform="matrix(1,0,0,1,12,50)">
                    <path d="M0,-28.5L0,-4C0,-1.791 1.791,0 4,0L36,0C38.209,0 40,-1.791 40,-4L40,-28.5L0,-28.5Z" style="fill:white;fill-rule:nonzero;"/>
                </g>
                <g opacity="0.2">
                    <g transform="matrix(1,0,0,1,52,20)">
                        <path d="M0,-2C0,-4.209 -1.791,-6 -4,-6L-36,-6C-38.209,-6 -40,-4.209 -40,-2L-40,4L0,4L0,-2Z" style="fill:rgb(35,31,32);fill-rule:nonzero;"/>
                    </g>
                </g>
                <g transform="matrix(1,0,0,1,52,18)">
                    <path d="M0,-2C0,-4.209 -1.791,-6 -4,-6L-36,-6C-38.209,-6 -40,-4.209 -40,-2L-40,4L0,4L0,-2Z" style="fill:rgb(224,224,209);fill-rule:nonzero;"/>
                </g>
                <g transform="matrix(0,-1,-1,0,23,15)">
                    <path d="M-2,-2C-0.895,-2 0,-1.105 0,0C0,1.105 -0.895,2 -2,2C-3.105,2 -4,1.105 -4,0C-4,-1.105 -3.105,-2 -2,-2" style="fill:rgb(224,153,94);fill-rule:nonzero;"/>
                </g>
                <g transform="matrix(0,-1,-1,0,29,15)">
                    <path d="M-2,-2C-0.895,-2 0,-1.105 0,0C0,1.105 -0.895,2 -2,2C-3.105,2 -4,1.105 -4,0C-4,-1.105 -3.105,-2 -2,-2" style="fill:rgb(118,194,175);fill-rule:nonzero;"/>
                </g>
                <g transform="matrix(0,-1,-1,0,17,15)">
                    <path d="M-2,-2C-0.895,-2 0,-1.105 0,0C0,1.105 -0.895,2 -2,2C-3.105,2 -4,1.105 -4,0C-4,-1.105 -3.105,-2 -2,-2" style="fill:rgb(199,92,92);fill-rule:nonzero;"/>
                </g>
                <g transform="matrix(-1,0,0,1,44,10)">
                    <rect x="16" y="18" width="12" height="18" style="fill:rgb(79,93,115);"/>
                </g>
                <g transform="matrix(-1,0,0,1,80,-6)">
                    <rect x="32" y="34" width="16" height="2" style="fill:rgb(224,224,209);"/>
                </g>
                <g transform="matrix(-1,0,0,1,80,2)">
                    <rect x="32" y="30" width="16" height="2" style="fill:rgb(224,224,209);"/>
                </g>
                <g transform="matrix(-1,0,0,1,80,10)">
                    <rect x="32" y="26" width="16" height="2" style="fill:rgb(224,224,209);"/>
                </g>
                <g transform="matrix(-1,0,0,1,80,18)">
                    <rect x="32" y="22" width="16" height="2" style="fill:rgb(224,224,209);"/>
                </g>
                <g transform="matrix(-1,0,0,1,80,26)">
                    <rect x="32" y="18" width="16" height="2" style="fill:rgb(224,224,209);"/>
                </g>
            </g>
        </g>
    </g>
</svg>
