<?xml version="1.0" encoding="UTF-8" standalone="no"?>
<!DOCTYPE svg PUBLIC "-//W3C//DTD SVG 1.1//EN" "http://www.w3.org/Graphics/SVG/1.1/DTD/svg11.dtd">
<svg width="100%" height="100%" viewBox="0 0 356 356" version="1.1" xmlns="http://www.w3.org/2000/svg" xmlns:xlink="http://www.w3.org/1999/xlink" xml:space="preserve" xmlns:serif="http://www.serif.com/" style="fill-rule:evenodd;clip-rule:evenodd;stroke-linejoin:round;stroke-miterlimit:2;">
    <g transform="matrix(5.55556,0,0,5.55556,-800,0)">
        <g id="Page-3" serif:id="Page 3" transform="matrix(1,0,0,1,144,0)">
            <rect x="0" y="0" width="64" height="64" style="fill:none;"/>
            <g id="Layer-1" serif:id="Layer 1">
                <g transform="matrix(0,-1,-1,0,32,0)">
                    <path d="M-32,-32C-49.673,-32 -64,-17.673 -64,0C-64,17.673 -49.673,32 -32,32C-14.327,32 0,17.673 0,0C0,-17.673 -14.327,-32 -32,-32" style="fill:rgb(119,179,212);fill-rule:nonzero;"/>
                </g>
                <g opacity="0.2">
                    <g transform="matrix(1,0,0,1,52,38)">
                        <path d="M0,-6C0,-15.941 -8.954,-24 -20,-24C-31.046,-24 -40,-15.941 -40,-6C-40,3.569 -31.697,11.372 -21.225,11.944C-20.537,15.597 -20,18 -20,18C-20,18 -14.955,14.956 -10.361,9.77C-4.186,6.706 0,0.795 0,-6" style="fill:rgb(35,31,32);fill-rule:nonzero;"/>
                    </g>
                </g>
                <g transform="matrix(1,0,0,1,49,37.2)">
                    <path d="M0,-8.4C0,6.563 -17,16.8 -17,16.8C-17,16.8 -26.389,-25.2 -17,-25.2C-7.611,-25.2 0,-17.678 0,-8.4" style="fill:white;fill-rule:nonzero;"/>
                </g>
                <g transform="matrix(0,-1,-1,0,32,10)">
                    <path d="M-20,-20C-29.941,-20 -38,-11.046 -38,0C-38,11.046 -29.941,20 -20,20C-10.059,20 -2,11.046 -2,0C-2,-11.046 -10.059,-20 -20,-20" style="fill:white;fill-rule:nonzero;"/>
                </g>
                <g transform="matrix(0,-1,-1,0,32,28)">
                    <path d="M-2,-2C-0.895,-2 0,-1.105 0,0C0,1.105 -0.895,2 -2,2C-3.105,2 -4,1.105 -4,0C-4,-1.105 -3.105,-2 -2,-2" style="fill:rgb(79,93,115);fill-rule:nonzero;"/>
                </g>
                <g transform="matrix(0,-1,-1,0,40,28)">
                    <path d="M-2,-2C-0.895,-2 0,-1.105 0,0C0,1.105 -0.895,2 -2,2C-3.105,2 -4,1.105 -4,0C-4,-1.105 -3.105,-2 -2,-2" style="fill:rgb(79,93,115);fill-rule:nonzero;"/>
                </g>
                <g transform="matrix(0,-1,-1,0,24,28)">
                    <path d="M-2,-2C-0.895,-2 0,-1.105 0,0C0,1.105 -0.895,2 -2,2C-3.105,2 -4,1.105 -4,0C-4,-1.105 -3.105,-2 -2,-2" style="fill:rgb(79,93,115);fill-rule:nonzero;"/>
                </g>
            </g>
        </g>
    </g>
</svg>
