<?xml version="1.0" encoding="UTF-8" standalone="no"?>
<!DOCTYPE svg PUBLIC "-//W3C//DTD SVG 1.1//EN" "http://www.w3.org/Graphics/SVG/1.1/DTD/svg11.dtd">
<svg width="100%" height="100%" viewBox="0 0 356 356" version="1.1" xmlns="http://www.w3.org/2000/svg" xmlns:xlink="http://www.w3.org/1999/xlink" xml:space="preserve" xmlns:serif="http://www.serif.com/" style="fill-rule:evenodd;clip-rule:evenodd;stroke-linejoin:round;stroke-miterlimit:2;">
    <g transform="matrix(5.55556,0,0,5.55556,-4400,0)">
        <g id="Page-12" serif:id="Page 12" transform="matrix(1,0,0,1,792,0)">
            <rect x="0" y="0" width="64" height="64" style="fill:none;"/>
            <g id="Layer-1" serif:id="Layer 1">
                <g transform="matrix(0,-1,-1,0,32,0)">
                    <path d="M-32,-32C-49.673,-32 -64,-17.673 -64,0C-64,17.673 -49.673,32 -32,32C-14.327,32 0,17.673 0,0C0,-17.673 -14.327,-32 -32,-32" style="fill:rgb(79,93,115);fill-rule:nonzero;"/>
                </g>
                <g opacity="0.2">
                    <g transform="matrix(1,0,0,1,44,34)">
                        <path d="M0,0C0,6.627 -5.373,12 -12,12C-18.627,12 -24,6.627 -24,0C-24,-6.627 -18.627,-12 -12,-12C-5.373,-12 0,-6.627 0,0M-34,0C-34,12.15 -24.15,22 -12,22C0.15,22 10,12.15 10,0C10,-12.15 0.15,-22 -12,-22C-24.15,-22 -34,-12.15 -34,0" style="fill:rgb(35,31,32);fill-rule:nonzero;"/>
                    </g>
                </g>
                <g transform="matrix(1,0,0,1,44,32)">
                    <path d="M0,0C0,6.627 -5.373,12 -12,12C-18.627,12 -24,6.627 -24,0C-24,-6.627 -18.627,-12 -12,-12C-5.373,-12 0,-6.627 0,0M-34,0C-34,12.15 -24.15,22 -12,22C0.15,22 10,12.15 10,0C10,-12.15 0.15,-22 -12,-22C-24.15,-22 -34,-12.15 -34,0" style="fill:white;fill-rule:nonzero;"/>
                </g>
                <g opacity="0.2">
                    <g transform="matrix(1,0,0,1,27.9341,22.5101)">
                        <path d="M0,0.353C0.879,1.232 0.913,2.622 0.076,3.459L-3.965,7.5C-4.802,8.337 -6.192,8.303 -7.071,7.424L-14.496,-0.001C-15.374,-0.879 -15.408,-2.27 -14.571,-3.107L-10.531,-7.147C-9.694,-7.984 -8.303,-7.95 -7.425,-7.072L0,0.353Z" style="fill:rgb(35,31,32);fill-rule:nonzero;"/>
                    </g>
                </g>
                <g opacity="0.2">
                    <g transform="matrix(1,0,0,1,50.5616,45.1375)">
                        <path d="M0,0.353C0.879,1.232 0.913,2.622 0.076,3.459L-3.965,7.5C-4.802,8.337 -6.192,8.303 -7.071,7.424L-14.496,-0.001C-15.374,-0.879 -15.408,-2.27 -14.571,-3.107L-10.531,-7.147C-9.694,-7.984 -8.303,-7.95 -7.425,-7.072L0,0.353Z" style="fill:rgb(35,31,32);fill-rule:nonzero;"/>
                    </g>
                </g>
                <g opacity="0.2">
                    <g transform="matrix(1,0,0,1,43.1369,15.4391)">
                        <path d="M0,14.495C-0.879,15.374 -2.269,15.408 -3.106,14.571L-7.147,10.53C-7.984,9.693 -7.95,8.303 -7.071,7.424L0.354,-0.001C1.232,-0.879 2.623,-0.913 3.46,-0.076L7.5,3.964C8.337,4.801 8.303,6.192 7.425,7.07L0,14.495Z" style="fill:rgb(35,31,32);fill-rule:nonzero;"/>
                    </g>
                </g>
                <g opacity="0.2">
                    <g transform="matrix(1,0,0,1,20.5095,38.0666)">
                        <path d="M0,14.495C-0.879,15.374 -2.269,15.408 -3.106,14.571L-7.147,10.53C-7.984,9.693 -7.95,8.303 -7.071,7.424L0.354,-0.001C1.232,-0.879 2.623,-0.913 3.46,-0.076L7.5,3.964C8.337,4.801 8.303,6.192 7.425,7.07L0,14.495Z" style="fill:rgb(35,31,32);fill-rule:nonzero;"/>
                    </g>
                </g>
                <g transform="matrix(1,0,0,1,27.9341,20.5101)">
                    <path d="M0,0.353C0.879,1.232 0.913,2.622 0.076,3.459L-3.965,7.5C-4.802,8.337 -6.192,8.303 -7.071,7.424L-14.496,-0.001C-15.374,-0.879 -15.408,-2.27 -14.571,-3.107L-10.531,-7.147C-9.694,-7.984 -8.303,-7.95 -7.425,-7.072L0,0.353Z" style="fill:rgb(224,153,94);fill-rule:nonzero;"/>
                </g>
                <g transform="matrix(1,0,0,1,50.5616,43.1375)">
                    <path d="M0,0.353C0.879,1.232 0.913,2.622 0.076,3.459L-3.965,7.5C-4.802,8.337 -6.192,8.303 -7.071,7.424L-14.496,-0.001C-15.374,-0.879 -15.408,-2.27 -14.571,-3.107L-10.531,-7.147C-9.694,-7.984 -8.303,-7.95 -7.425,-7.072L0,0.353Z" style="fill:rgb(224,153,94);fill-rule:nonzero;"/>
                </g>
                <g transform="matrix(1,0,0,1,43.1369,13.4391)">
                    <path d="M0,14.495C-0.879,15.374 -2.269,15.408 -3.106,14.571L-7.147,10.53C-7.984,9.693 -7.95,8.303 -7.071,7.424L0.354,-0.001C1.232,-0.879 2.623,-0.913 3.46,-0.076L7.5,3.964C8.337,4.801 8.303,6.192 7.425,7.07L0,14.495Z" style="fill:rgb(224,153,94);fill-rule:nonzero;"/>
                </g>
                <g transform="matrix(1,0,0,1,20.5095,36.0666)">
                    <path d="M0,14.495C-0.879,15.374 -2.269,15.408 -3.106,14.571L-7.147,10.53C-7.984,9.693 -7.95,8.303 -7.071,7.424L0.354,-0.001C1.232,-0.879 2.623,-0.913 3.46,-0.076L7.5,3.964C8.337,4.801 8.303,6.192 7.425,7.07L0,14.495Z" style="fill:rgb(224,153,94);fill-rule:nonzero;"/>
                </g>
            </g>
        </g>
    </g>
</svg>
