<?xml version="1.0" encoding="UTF-8" standalone="no"?>
<!DOCTYPE svg PUBLIC "-//W3C//DTD SVG 1.1//EN" "http://www.w3.org/Graphics/SVG/1.1/DTD/svg11.dtd">
<svg width="100%" height="100%" viewBox="0 0 356 356" version="1.1" xmlns="http://www.w3.org/2000/svg" xmlns:xlink="http://www.w3.org/1999/xlink" xml:space="preserve" xmlns:serif="http://www.serif.com/" style="fill-rule:evenodd;clip-rule:evenodd;stroke-linejoin:round;stroke-miterlimit:2;">
    <g transform="matrix(5.55556,0,0,5.55556,-2800,-2400)">
        <g id="Page-86" serif:id="Page 86" transform="matrix(1,0,0,1,504,432)">
            <rect x="0" y="0" width="64" height="64" style="fill:none;"/>
            <g id="Layer-1" serif:id="Layer 1">
                <g transform="matrix(0,-1,-1,0,32,0)">
                    <path d="M-32,-32C-49.673,-32 -64,-17.673 -64,0C-64,17.673 -49.673,32 -32,32C-14.327,32 0,17.673 0,0C0,-17.673 -14.327,-32 -32,-32" style="fill:rgb(79,93,115);fill-rule:nonzero;"/>
                </g>
                <g opacity="0.2">
                    <g transform="matrix(1,0,0,1,44.5538,29.81)">
                        <path d="M0,8.19C-0.907,8.19 -1.161,7.568 -0.563,6.808L4.193,0.76C4.791,0 5.768,0 6.366,0.76L11.122,6.808C11.72,7.568 11.466,8.19 10.559,8.19L0,8.19Z" style="fill:rgb(35,31,32);fill-rule:nonzero;"/>
                    </g>
                </g>
                <g opacity="0.2">
                    <g transform="matrix(1,0,0,1,8.8872,29.81)">
                        <path d="M0,8.19C-0.907,8.19 -1.161,7.568 -0.563,6.808L4.193,0.76C4.791,0 5.768,0 6.366,0.76L11.122,6.808C11.72,7.568 11.466,8.19 10.559,8.19L0,8.19Z" style="fill:rgb(35,31,32);fill-rule:nonzero;"/>
                    </g>
                </g>
                <g transform="matrix(1,0,0,1,44.5538,27.81)">
                    <path d="M0,8.19C-0.907,8.19 -1.161,7.568 -0.563,6.808L4.193,0.76C4.791,0 5.768,0 6.366,0.76L11.122,6.808C11.72,7.568 11.466,8.19 10.559,8.19L0,8.19Z" style="fill:rgb(224,224,209);fill-rule:nonzero;"/>
                </g>
                <g transform="matrix(1,0,0,1,8.8872,27.81)">
                    <path d="M0,8.19C-0.907,8.19 -1.161,7.568 -0.563,6.808L4.193,0.76C4.791,0 5.768,0 6.366,0.76L11.122,6.808C11.72,7.568 11.466,8.19 10.559,8.19L0,8.19Z" style="fill:rgb(224,224,209);fill-rule:nonzero;"/>
                </g>
                <g opacity="0.2">
                    <g transform="matrix(1,0,0,1,32,34)">
                        <path d="M0,22C-11.028,22 -20,13.028 -20,2C-20,0.896 -19.104,0 -18,0C-16.896,0 -16,0.896 -16,2C-16,10.822 -8.822,18 0,18C8.822,18 16,10.822 16,2C16,0.896 16.896,0 18,0C19.104,0 20,0.896 20,2C20,13.028 11.028,22 0,22" style="fill:rgb(35,31,32);fill-rule:nonzero;"/>
                    </g>
                </g>
                <g transform="matrix(1,0,0,1,32,32)">
                    <path d="M0,22C-11.028,22 -20,13.028 -20,2C-20,0.896 -19.104,0 -18,0C-16.896,0 -16,0.896 -16,2C-16,10.822 -8.822,18 0,18C8.822,18 16,10.822 16,2C16,0.896 16.896,0 18,0C19.104,0 20,0.896 20,2C20,13.028 11.028,22 0,22" style="fill:rgb(224,224,209);fill-rule:nonzero;"/>
                </g>
                <g transform="matrix(-1,0,0,1,64,8)">
                    <rect x="30" y="12" width="4" height="32" style="fill:rgb(224,224,209);"/>
                </g>
                <g opacity="0.2">
                    <g transform="matrix(1,0,0,1,32,20)">
                        <path d="M0,-4C-1.103,-4 -2,-3.103 -2,-2C-2,-0.897 -1.103,0 0,0C1.103,0 2,-0.897 2,-2C2,-3.103 1.103,-4 0,-4M0,4C-3.309,4 -6,1.309 -6,-2C-6,-5.309 -3.309,-8 0,-8C3.309,-8 6,-5.309 6,-2C6,1.309 3.309,4 0,4" style="fill:rgb(35,31,32);fill-rule:nonzero;"/>
                    </g>
                </g>
                <g opacity="0.2">
                    <g transform="matrix(1,0,0,1,40,31)">
                        <path d="M0,0C0,1.105 -0.895,2 -2,2L-14,2C-15.105,2 -16,1.105 -16,0C-16,-1.105 -15.105,-2 -14,-2L-2,-2C-0.895,-2 0,-1.105 0,0" style="fill:rgb(35,31,32);fill-rule:nonzero;"/>
                    </g>
                </g>
                <g transform="matrix(1,0,0,1,32,18)">
                    <path d="M0,-4C-1.103,-4 -2,-3.103 -2,-2C-2,-0.897 -1.103,0 0,0C1.103,0 2,-0.897 2,-2C2,-3.103 1.103,-4 0,-4M0,4C-3.309,4 -6,1.309 -6,-2C-6,-5.309 -3.309,-8 0,-8C3.309,-8 6,-5.309 6,-2C6,1.309 3.309,4 0,4" style="fill:rgb(224,224,209);fill-rule:nonzero;"/>
                </g>
                <g transform="matrix(1,0,0,1,40,29)">
                    <path d="M0,0C0,1.105 -0.895,2 -2,2L-14,2C-15.105,2 -16,1.105 -16,0C-16,-1.105 -15.105,-2 -14,-2L-2,-2C-0.895,-2 0,-1.105 0,0" style="fill:rgb(224,224,209);fill-rule:nonzero;"/>
                </g>
            </g>
        </g>
    </g>
</svg>
