<?xml version="1.0" encoding="UTF-8" standalone="no"?>
<!DOCTYPE svg PUBLIC "-//W3C//DTD SVG 1.1//EN" "http://www.w3.org/Graphics/SVG/1.1/DTD/svg11.dtd">
<svg width="100%" height="100%" viewBox="0 0 356 356" version="1.1" xmlns="http://www.w3.org/2000/svg" xmlns:xlink="http://www.w3.org/1999/xlink" xml:space="preserve" xmlns:serif="http://www.serif.com/" style="fill-rule:evenodd;clip-rule:evenodd;stroke-linejoin:round;stroke-miterlimit:2;">
    <g transform="matrix(5.55556,0,0,5.55556,-2400,-1200)">
        <g id="Page-46" serif:id="Page 46" transform="matrix(1,0,0,1,432,216)">
            <rect x="0" y="0" width="64" height="64" style="fill:none;"/>
            <g id="Layer-1" serif:id="Layer 1">
                <g transform="matrix(0,1,1,0,32,0)">
                    <path d="M32,-32C49.673,-32 64,-17.673 64,0C64,17.673 49.673,32 32,32C14.327,32 0,17.673 0,0C0,-17.673 14.327,-32 32,-32" style="fill:rgb(79,93,115);fill-rule:nonzero;"/>
                </g>
                <g opacity="0.2">
                    <g transform="matrix(1,0,0,1,34,31)">
                        <path d="M0,12C-3.314,12 -6,9.314 -6,6C-6,2.686 -3.314,0 0,0C3.314,0 6,2.686 6,6C6,9.314 3.314,12 0,12M15.969,2.062C13.742,2.062 11.938,0.258 11.938,-1.969C11.938,-2.328 11.999,-2.669 12.087,-3L-12.119,-3C-12.031,-2.669 -11.969,-2.328 -11.969,-1.969C-11.969,0.258 -13.774,2.062 -16,2.062C-16.347,2.062 -16.678,2.005 -17,1.922L-17,10.109C-16.678,10.026 -16.347,9.969 -16,9.969C-13.774,9.969 -11.969,11.774 -11.969,14C-11.969,14.347 -12.026,14.678 -12.109,15L12.078,15C11.995,14.678 11.938,14.347 11.938,14C11.938,11.774 13.742,9.969 15.969,9.969C16.328,9.969 16.669,10.031 17,10.119L17,1.913C16.669,2.001 16.328,2.062 15.969,2.062" style="fill:rgb(35,31,32);fill-rule:nonzero;"/>
                    </g>
                    <g transform="matrix(1,0,0,1,49.9688,33.0627)">
                        <path d="M0,7.906C-2.226,7.906 -4.031,9.711 -4.031,11.937C-4.031,12.285 -3.974,12.616 -3.891,12.937L-28.078,12.937C-27.995,12.616 -27.937,12.285 -27.937,11.937C-27.937,9.711 -29.742,7.906 -31.969,7.906C-32.316,7.906 -32.647,7.964 -32.969,8.046L-32.969,-0.14C-32.647,-0.058 -32.316,0 -31.969,0C-29.742,0 -27.937,-1.805 -27.937,-4.032C-27.937,-4.39 -27.999,-4.732 -28.087,-5.063L-3.881,-5.063C-3.969,-4.732 -4.031,-4.39 -4.031,-4.032C-4.031,-1.805 -2.226,0 0,0C0.359,0 0.7,-0.062 1.031,-0.15L1.031,8.056C0.7,7.968 0.359,7.906 0,7.906M0.031,-8.063L-31.969,-8.063C-32.245,-8.063 -32.515,-8.035 -32.775,-7.981C-34.615,-7.608 -36,-5.982 -36,-4.032C-36,-3.925 -35.977,-3.826 -35.969,-3.722L-35.969,11.627C-35.977,11.731 -36,11.831 -36,11.937C-36,14.164 -34.195,15.969 -31.969,15.969C-31.863,15.969 -31.763,15.945 -31.659,15.937L-0.31,15.937C-0.206,15.945 -0.106,15.969 0,15.969C1.95,15.969 3.576,14.583 3.95,12.744C4.003,12.483 4.031,12.213 4.031,11.937L4.031,-4.063C4.031,-6.272 2.24,-8.063 0.031,-8.063" style="fill:rgb(35,31,32);fill-rule:nonzero;"/>
                    </g>
                    <g transform="matrix(-1,0,0,1,34,43)">
                        <path d="M0,-12C3.314,-12 6,-9.314 6,-6C6,-2.686 3.314,0 0,0C-3.314,0 -6,-2.686 -6,-6C-6,-9.314 -3.314,-12 0,-12" style="fill:rgb(35,31,32);fill-rule:nonzero;"/>
                    </g>
                </g>
                <g transform="matrix(1,0,0,1,18,24)">
                    <path d="M0,22C-1.654,22 -3,20.654 -3,19L-3,3C-3,1.346 -1.654,0 0,0L32,0C33.654,0 35,1.346 35,3L35,19C35,20.654 33.654,22 32,22L0,22Z" style="fill:rgb(118,194,175);fill-rule:nonzero;"/>
                </g>
                <g transform="matrix(1,0,0,1,50,47)">
                    <path d="M0,-24L-32,-24C-34.209,-24 -36,-22.209 -36,-20L-36,-4C-36,-1.791 -34.209,0 -32,0L0,0C2.209,0 4,-1.791 4,-4L4,-20C4,-22.209 2.209,-24 0,-24M0,-22C1.103,-22 2,-21.103 2,-20L2,-4C2,-2.897 1.103,-2 0,-2L-32,-2C-33.103,-2 -34,-2.897 -34,-4L-34,-20C-34,-21.103 -33.103,-22 -32,-22L0,-22" style="fill:rgb(224,224,209);fill-rule:nonzero;"/>
                </g>
                <g transform="matrix(0,-1,-1,0,34,29)">
                    <path d="M-6,-6C-9.314,-6 -12,-3.314 -12,0C-12,3.314 -9.314,6 -6,6C-2.686,6 0,3.314 0,0C0,-3.314 -2.686,-6 -6,-6" style="fill:rgb(79,93,115);fill-rule:nonzero;"/>
                </g>
                <g transform="matrix(0,1,1,0,49.969,22.9997)">
                    <path d="M4.032,-4.032C6.258,-4.032 8.063,-2.227 8.063,-0C8.063,2.226 6.258,4.032 4.032,4.032C1.806,4.032 0,2.226 0,-0C0,-2.227 1.806,-4.032 4.032,-4.032" style="fill:rgb(224,224,209);fill-rule:nonzero;"/>
                </g>
                <g transform="matrix(0,1,1,0,18.0002,22.9997)">
                    <path d="M4.032,-4.032C6.258,-4.032 8.063,-2.227 8.063,-0C8.063,2.226 6.258,4.032 4.032,4.032C1.806,4.032 0,2.226 0,-0C0,-2.227 1.806,-4.032 4.032,-4.032" style="fill:rgb(224,224,209);fill-rule:nonzero;"/>
                </g>
                <g transform="matrix(0,1,1,0,49.969,38.9685)">
                    <path d="M4.032,-4.032C6.258,-4.032 8.063,-2.227 8.063,-0C8.063,2.226 6.258,4.032 4.032,4.032C1.806,4.032 0,2.226 0,-0C0,-2.227 1.806,-4.032 4.032,-4.032" style="fill:rgb(224,224,209);fill-rule:nonzero;"/>
                </g>
                <g transform="matrix(0,1,1,0,18.0002,38.9685)">
                    <path d="M4.032,-4.032C6.258,-4.032 8.063,-2.227 8.063,-0C8.063,2.226 6.258,4.032 4.032,4.032C1.806,4.032 0,2.226 0,-0C0,-2.227 1.806,-4.032 4.032,-4.032" style="fill:rgb(224,224,209);fill-rule:nonzero;"/>
                </g>
                <g opacity="0.2">
                    <g transform="matrix(1,0,0,1,32,27)">
                        <path d="M0,12C-3.314,12 -6,9.314 -6,6C-6,2.686 -3.314,0 0,0C3.314,0 6,2.686 6,6C6,9.314 3.314,12 0,12M15.969,2.062C13.742,2.062 11.938,0.258 11.938,-1.969C11.938,-2.328 11.999,-2.669 12.087,-3L-12.119,-3C-12.031,-2.669 -11.969,-2.328 -11.969,-1.969C-11.969,0.258 -13.774,2.062 -16,2.062C-16.347,2.062 -16.678,2.005 -17,1.922L-17,10.109C-16.678,10.026 -16.347,9.969 -16,9.969C-13.774,9.969 -11.969,11.774 -11.969,14C-11.969,14.347 -12.026,14.678 -12.109,15L12.078,15C11.995,14.678 11.938,14.347 11.938,14C11.938,11.774 13.742,9.969 15.969,9.969C16.328,9.969 16.669,10.031 17,10.119L17,1.913C16.669,2.001 16.328,2.062 15.969,2.062" style="fill:rgb(35,31,32);fill-rule:nonzero;"/>
                    </g>
                    <g transform="matrix(1,0,0,1,47.9688,29.0627)">
                        <path d="M0,7.906C-2.226,7.906 -4.031,9.711 -4.031,11.937C-4.031,12.285 -3.974,12.616 -3.891,12.937L-28.078,12.937C-27.995,12.616 -27.937,12.285 -27.937,11.937C-27.937,9.711 -29.742,7.906 -31.969,7.906C-32.316,7.906 -32.647,7.964 -32.969,8.046L-32.969,-0.14C-32.647,-0.058 -32.316,0 -31.969,0C-29.742,0 -27.937,-1.805 -27.937,-4.032C-27.937,-4.39 -27.999,-4.732 -28.087,-5.063L-3.881,-5.063C-3.969,-4.732 -4.031,-4.39 -4.031,-4.032C-4.031,-1.805 -2.226,0 0,0C0.359,0 0.7,-0.062 1.031,-0.15L1.031,8.056C0.7,7.968 0.359,7.906 0,7.906M0.031,-8.063L-31.969,-8.063C-32.245,-8.063 -32.515,-8.035 -32.775,-7.981C-34.615,-7.608 -36,-5.982 -36,-4.032C-36,-3.925 -35.977,-3.826 -35.969,-3.722L-35.969,11.627C-35.977,11.731 -36,11.831 -36,11.937C-36,14.164 -34.195,15.969 -31.969,15.969C-31.863,15.969 -31.763,15.945 -31.659,15.937L-0.31,15.937C-0.206,15.945 -0.106,15.969 0,15.969C1.95,15.969 3.576,14.583 3.95,12.744C4.003,12.483 4.031,12.213 4.031,11.937L4.031,-4.063C4.031,-6.272 2.24,-8.063 0.031,-8.063" style="fill:rgb(35,31,32);fill-rule:nonzero;"/>
                    </g>
                    <g transform="matrix(-1,0,0,1,32,39)">
                        <path d="M0,-12C3.314,-12 6,-9.314 6,-6C6,-2.686 3.314,0 0,0C-3.314,0 -6,-2.686 -6,-6C-6,-9.314 -3.314,-12 0,-12" style="fill:rgb(35,31,32);fill-rule:nonzero;"/>
                    </g>
                </g>
                <g transform="matrix(1,0,0,1,14,20)">
                    <path d="M0,22C-1.654,22 -3,20.654 -3,19L-3,3C-3,1.346 -1.654,0 0,0L32,0C33.654,0 35,1.346 35,3L35,19C35,20.654 33.654,22 32,22L0,22Z" style="fill:rgb(118,194,175);fill-rule:nonzero;"/>
                </g>
                <g transform="matrix(1,0,0,1,46,43)">
                    <path d="M0,-24L-32,-24C-34.209,-24 -36,-22.209 -36,-20L-36,-4C-36,-1.791 -34.209,0 -32,0L0,0C2.209,0 4,-1.791 4,-4L4,-20C4,-22.209 2.209,-24 0,-24M0,-22C1.103,-22 2,-21.103 2,-20L2,-4C2,-2.897 1.103,-2 0,-2L-32,-2C-33.103,-2 -34,-2.897 -34,-4L-34,-20C-34,-21.103 -33.103,-22 -32,-22L0,-22" style="fill:rgb(224,224,209);fill-rule:nonzero;"/>
                </g>
                <g transform="matrix(0,-1,-1,0,30,25)">
                    <path d="M-6,-6C-9.314,-6 -12,-3.314 -12,0C-12,3.314 -9.314,6 -6,6C-2.686,6 0,3.314 0,0C0,-3.314 -2.686,-6 -6,-6" style="fill:rgb(79,93,115);fill-rule:nonzero;"/>
                </g>
                <g transform="matrix(0,1,1,0,45.969,18.9997)">
                    <path d="M4.032,-4.032C6.258,-4.032 8.063,-2.227 8.063,-0C8.063,2.226 6.258,4.032 4.032,4.032C1.806,4.032 0,2.226 0,-0C0,-2.227 1.806,-4.032 4.032,-4.032" style="fill:rgb(224,224,209);fill-rule:nonzero;"/>
                </g>
                <g transform="matrix(0,1,1,0,14.0002,18.9997)">
                    <path d="M4.032,-4.032C6.258,-4.032 8.063,-2.227 8.063,-0C8.063,2.226 6.258,4.032 4.032,4.032C1.806,4.032 0,2.226 0,-0C0,-2.227 1.806,-4.032 4.032,-4.032" style="fill:rgb(224,224,209);fill-rule:nonzero;"/>
                </g>
                <g transform="matrix(0,1,1,0,45.969,34.9685)">
                    <path d="M4.032,-4.032C6.258,-4.032 8.063,-2.227 8.063,-0C8.063,2.226 6.258,4.032 4.032,4.032C1.806,4.032 0,2.226 0,-0C0,-2.227 1.806,-4.032 4.032,-4.032" style="fill:rgb(224,224,209);fill-rule:nonzero;"/>
                </g>
                <g transform="matrix(0,1,1,0,14.0002,34.9685)">
                    <path d="M4.032,-4.032C6.258,-4.032 8.063,-2.227 8.063,-0C8.063,2.226 6.258,4.032 4.032,4.032C1.806,4.032 0,2.226 0,-0C0,-2.227 1.806,-4.032 4.032,-4.032" style="fill:rgb(224,224,209);fill-rule:nonzero;"/>
                </g>
            </g>
        </g>
    </g>
</svg>
