<?xml version="1.0" encoding="UTF-8" standalone="no"?>
<!DOCTYPE svg PUBLIC "-//W3C//DTD SVG 1.1//EN" "http://www.w3.org/Graphics/SVG/1.1/DTD/svg11.dtd">
<svg width="100%" height="100%" viewBox="0 0 356 356" version="1.1" xmlns="http://www.w3.org/2000/svg" xmlns:xlink="http://www.w3.org/1999/xlink" xml:space="preserve" xmlns:serif="http://www.serif.com/" style="fill-rule:evenodd;clip-rule:evenodd;stroke-linejoin:round;stroke-miterlimit:2;">
    <g transform="matrix(5.55556,0,0,5.55556,-2400,-2400)">
        <g id="Page-85" serif:id="Page 85" transform="matrix(1,0,0,1,432,432)">
            <rect x="0" y="0" width="64" height="64" style="fill:none;"/>
            <g id="Layer-1" serif:id="Layer 1">
                <g transform="matrix(0,-1,-1,0,32,0)">
                    <path d="M-32,-32C-49.673,-32 -64,-17.673 -64,0C-64,17.673 -49.673,32 -32,32C-14.327,32 0,17.673 0,0C0,-17.673 -14.327,-32 -32,-32" style="fill:rgb(224,153,94);fill-rule:nonzero;"/>
                </g>
                <g opacity="0.2">
                    <g transform="matrix(1,0,0,1,51.4858,22.75)">
                        <path d="M0,22.5C-0.689,23.693 -2.507,24.35 -5.119,24.35C-6.514,24.35 -8.077,24.149 -9.734,23.802C-9.274,21.852 -8.923,19.733 -8.695,17.48C-6.85,16.15 -5.185,14.781 -3.722,13.403C-0.297,17.219 1.072,20.643 0,22.5M-19.486,33.75C-21.635,33.75 -23.922,30.84 -25.516,25.945C-23.563,25.361 -21.534,24.604 -19.486,23.692C-17.437,24.604 -15.409,25.361 -13.456,25.945C-15.05,30.84 -17.337,33.75 -19.486,33.75M-33.853,24.35C-36.465,24.35 -38.283,23.693 -38.972,22.5C-40.044,20.643 -38.674,17.219 -35.25,13.403C-33.787,14.781 -32.122,16.15 -30.277,17.48C-30.048,19.733 -29.697,21.852 -29.238,23.802C-30.895,24.149 -32.458,24.35 -33.853,24.35M-38.972,0C-38.283,-1.193 -36.465,-1.85 -33.853,-1.85C-32.458,-1.85 -30.895,-1.649 -29.238,-1.302C-29.697,0.648 -30.048,2.767 -30.277,5.02C-32.122,6.35 -33.787,7.719 -35.25,9.097C-38.674,5.281 -40.044,1.857 -38.972,0M-19.486,-11.25C-17.337,-11.25 -15.05,-8.34 -13.456,-3.445C-15.409,-2.861 -17.437,-2.104 -19.486,-1.192C-21.534,-2.104 -23.563,-2.861 -25.516,-3.445C-23.922,-8.34 -21.635,-11.25 -19.486,-11.25M-8.427,9.011C-7.496,9.759 -6.636,10.507 -5.846,11.25C-6.636,11.993 -7.496,12.741 -8.427,13.489C-8.402,12.752 -8.386,12.007 -8.386,11.25C-8.386,10.493 -8.402,9.748 -8.427,9.011M-15.896,0.559C-14.795,0.132 -13.719,-0.227 -12.662,-0.546C-12.415,0.506 -12.199,1.619 -12.017,2.793C-12.643,2.403 -13.28,2.016 -13.936,1.638C-14.586,1.262 -15.241,0.906 -15.896,0.559M-26.954,2.793C-26.773,1.619 -26.557,0.506 -26.31,-0.546C-25.253,-0.227 -24.177,0.132 -23.075,0.559C-23.731,0.906 -24.385,1.262 -25.036,1.638C-25.692,2.016 -26.329,2.403 -26.954,2.793M-30.545,13.489C-31.475,12.741 -32.335,11.993 -33.126,11.25C-32.335,10.507 -31.475,9.759 -30.545,9.011C-30.57,9.748 -30.586,10.493 -30.586,11.25C-30.586,12.007 -30.57,12.752 -30.545,13.489M-23.075,21.941C-24.177,22.368 -25.253,22.727 -26.31,23.046C-26.557,21.994 -26.773,20.881 -26.954,19.707C-26.329,20.097 -25.692,20.484 -25.036,20.862C-24.385,21.238 -23.731,21.594 -23.075,21.941M-12.017,19.707C-12.199,20.881 -12.415,21.994 -12.662,23.046C-13.719,22.727 -14.795,22.368 -15.896,21.941C-15.241,21.594 -14.586,21.238 -13.936,20.862C-13.28,20.484 -12.643,20.097 -12.017,19.707M-15.436,18.265C-16.781,19.041 -18.136,19.736 -19.486,20.378C-20.836,19.736 -22.191,19.041 -23.536,18.265C-24.91,17.471 -26.198,16.653 -27.407,15.823C-27.521,14.361 -27.586,12.836 -27.586,11.25C-27.586,9.664 -27.521,8.139 -27.407,6.677C-26.198,5.847 -24.91,5.029 -23.536,4.235C-22.191,3.459 -20.836,2.764 -19.486,2.122C-18.136,2.764 -16.781,3.459 -15.436,4.235C-14.062,5.029 -12.774,5.847 -11.564,6.677C-11.45,8.139 -11.386,9.664 -11.386,11.25C-11.386,12.836 -11.45,14.361 -11.564,15.823C-12.774,16.653 -14.062,17.471 -15.436,18.265M-5.119,-1.85C-2.507,-1.85 -0.689,-1.193 0,0C1.072,1.857 -0.297,5.281 -3.722,9.097C-5.185,7.719 -6.85,6.35 -8.695,5.02C-8.923,2.767 -9.274,0.648 -9.734,-1.302C-8.077,-1.649 -6.514,-1.85 -5.119,-1.85M2.598,-1.5C1.716,-3.028 -0.339,-4.85 -5.119,-4.85C-6.762,-4.85 -8.59,-4.625 -10.533,-4.203C-12.52,-10.386 -15.729,-14.25 -19.486,-14.25C-23.243,-14.25 -26.451,-10.386 -28.438,-4.203C-30.381,-4.625 -32.21,-4.85 -33.853,-4.85C-38.632,-4.85 -40.688,-3.028 -41.569,-1.5C-43.444,1.748 -41.711,6.448 -37.368,11.25C-41.711,16.052 -43.444,20.752 -41.569,24C-40.688,25.528 -38.632,27.35 -33.853,27.35C-32.21,27.35 -30.381,27.125 -28.438,26.703C-26.451,32.886 -23.243,36.75 -19.486,36.75C-15.729,36.75 -12.52,32.886 -10.533,26.703C-8.59,27.125 -6.762,27.35 -5.119,27.35C-0.339,27.35 1.716,25.528 2.598,24C4.473,20.752 2.74,16.052 -1.603,11.25C2.74,6.448 4.473,1.748 2.598,-1.5" style="fill:rgb(35,31,32);fill-rule:nonzero;"/>
                    </g>
                    <g transform="matrix(-1,0,0,1,32,37)">
                        <path d="M0,-6C1.657,-6 3,-4.657 3,-3C3,-1.343 1.657,0 0,0C-1.657,0 -3,-1.343 -3,-3C-3,-4.657 -1.657,-6 0,-6" style="fill:rgb(35,31,32);fill-rule:nonzero;"/>
                    </g>
                </g>
                <g transform="matrix(1,0,0,1,32,54.5)">
                    <path d="M0,-45C-3.831,-45 -8.1,-35.76 -8.1,-22.5C-8.1,-9.24 -3.831,0 0,0C3.831,0 8.1,-9.24 8.1,-22.5C8.1,-35.76 3.831,-45 0,-45M0,3C-6.328,3 -11.1,-7.963 -11.1,-22.5C-11.1,-37.037 -6.328,-48 0,-48C6.328,-48 11.1,-37.037 11.1,-22.5C11.1,-7.963 6.328,3 0,3" style="fill:white;fill-rule:nonzero;"/>
                </g>
                <g transform="matrix(1,0,0,1,46.3667,45.0994)">
                    <path d="M0,-26.199C-4.932,-26.199 -11.817,-23.925 -18.417,-20.114C-29.9,-13.484 -35.768,-5.168 -33.853,-1.849C-33.164,-0.656 -31.346,-0 -28.733,-0C-23.801,-0 -16.917,-2.274 -10.317,-6.085C1.167,-12.715 7.035,-21.031 5.119,-24.349C4.43,-25.543 2.612,-26.199 0,-26.199M-28.733,3C-33.513,3 -35.568,1.179 -36.45,-0.349C-39.614,-5.83 -32.506,-15.444 -19.917,-22.712C-12.881,-26.774 -5.436,-29.199 0,-29.199C4.78,-29.199 6.835,-27.378 7.717,-25.849C10.881,-20.369 3.773,-10.755 -8.817,-3.487C-15.853,0.575 -23.298,3 -28.733,3" style="fill:white;fill-rule:nonzero;"/>
                </g>
                <g transform="matrix(1,0,0,1,46.3667,45.0994)">
                    <path d="M0,-26.199C-4.932,-26.199 -11.817,-23.925 -18.417,-20.114C-29.9,-13.484 -35.768,-5.168 -33.853,-1.849C-33.164,-0.656 -31.346,-0 -28.733,-0C-23.801,-0 -16.917,-2.274 -10.317,-6.085C1.167,-12.715 7.035,-21.031 5.119,-24.349C4.43,-25.543 2.612,-26.199 0,-26.199M-28.733,3C-33.513,3 -35.568,1.179 -36.45,-0.349C-39.614,-5.83 -32.506,-15.444 -19.917,-22.712C-12.881,-26.774 -5.436,-29.199 0,-29.199C4.78,-29.199 6.835,-27.378 7.717,-25.849C10.881,-20.369 3.773,-10.755 -8.817,-3.487C-15.853,0.575 -23.298,3 -28.733,3" style="fill:white;fill-rule:nonzero;"/>
                </g>
                <g transform="matrix(1,0,0,1,17.6333,45.0994)">
                    <path d="M0,-26.199C-2.612,-26.199 -4.43,-25.543 -5.119,-24.349C-7.035,-21.031 -1.167,-12.715 10.317,-6.085C16.917,-2.274 23.801,-0 28.733,-0C31.346,-0 33.164,-0.656 33.853,-1.849C35.768,-5.168 29.9,-13.484 18.417,-20.114C11.817,-23.925 4.932,-26.199 0,-26.199M28.733,3C23.298,3 15.853,0.575 8.817,-3.487C-3.773,-10.755 -10.881,-20.369 -7.717,-25.849C-6.835,-27.378 -4.78,-29.199 0,-29.199C5.436,-29.199 12.881,-26.774 19.917,-22.712C32.506,-15.444 39.614,-5.83 36.45,-0.349C35.568,1.179 33.513,3 28.733,3" style="fill:white;fill-rule:nonzero;"/>
                </g>
                <g transform="matrix(0,-1,-1,0,32,29)">
                    <path d="M-3,-3C-4.657,-3 -6,-1.657 -6,0C-6,1.657 -4.657,3 -3,3C-1.343,3 0,1.657 0,0C0,-1.657 -1.343,-3 -3,-3" style="fill:white;fill-rule:nonzero;"/>
                </g>
            </g>
        </g>
    </g>
</svg>
