<?xml version="1.0" encoding="UTF-8" standalone="no"?>
<!DOCTYPE svg PUBLIC "-//W3C//DTD SVG 1.1//EN" "http://www.w3.org/Graphics/SVG/1.1/DTD/svg11.dtd">
<svg width="100%" height="100%" viewBox="0 0 356 356" version="1.1" xmlns="http://www.w3.org/2000/svg" xmlns:xlink="http://www.w3.org/1999/xlink" xml:space="preserve" xmlns:serif="http://www.serif.com/" style="fill-rule:evenodd;clip-rule:evenodd;stroke-linejoin:round;stroke-miterlimit:2;">
    <g transform="matrix(5.55556,0,0,5.55556,-2800,-1600)">
        <g id="Page-60" serif:id="Page 60" transform="matrix(1,0,0,1,504,288)">
            <rect x="0" y="0" width="64" height="64" style="fill:none;"/>
            <g id="Layer-1" serif:id="Layer 1">
                <g transform="matrix(0,-1,-1,0,32,0)">
                    <path d="M-32,-32C-49.673,-32 -64,-17.673 -64,0C-64,17.673 -49.673,32 -32,32C-14.327,32 0,17.673 0,0C0,-17.673 -14.327,-32 -32,-32" style="fill:rgb(119,179,212);fill-rule:nonzero;"/>
                </g>
                <g opacity="0.2">
                    <g transform="matrix(1,0,0,1,24.0211,16.0219)">
                        <path d="M0,35.784C-0.103,35.338 0.103,32.935 2.986,31.975C5.869,31.014 5.388,29.744 6.246,28.508C7.104,27.273 7.276,26.346 5.628,25.969C3.981,25.591 2.265,25.317 0.789,22.983C-0.686,20.649 -2.746,20.58 -3.844,19.86C-4.942,19.139 -5.834,19.276 -7.173,19.105C-8.511,18.933 -8.065,15.192 -7.996,14.369C-7.928,13.545 -8.82,14.643 -9.472,14.072C-10.124,13.501 -8.854,10.834 -7.585,10.937C-6.315,11.04 -6.624,11.657 -6.383,13.064C-6.143,14.471 -5.697,14.128 -5.594,13.682C-5.491,13.236 -5.422,11.348 -4.976,10.765C-4.53,10.182 -4.427,8.603 -2.986,8.671C-1.544,8.74 -1.579,7.367 -0.515,7.813C0.549,8.26 1.304,7.916 0.618,7.333C-0.069,6.75 0.309,6.166 1.476,6.544C2.643,6.921 2.711,4.862 2.505,3.798C2.299,2.734 1.441,2.425 0.378,3.077C-0.686,3.729 -1.476,3.455 -0.927,2.357C-0.377,1.258 1.785,2.185 3.089,2.734C4.393,3.283 4.736,1.293 4.015,0.332C3.295,-0.629 3.26,-0.183 1.201,-0.046C0.381,0.009 0.465,-0.431 0.863,-0.981C3.077,-1.819 5.475,-2.281 7.979,-2.281C10.514,-2.281 12.939,-1.807 15.176,-0.949C15.457,-0.556 15.572,-0.245 15.375,-0.114C14.552,0.435 13.831,-0.055 14.071,1.477C14.311,3.009 15.444,4.829 16.336,4.228C17.229,3.626 18.773,4.382 17.434,5.205C16.096,6.029 15.718,5.96 15.101,6.509C14.483,7.058 14.757,6.784 15.375,7.47C15.993,8.157 15.924,8.294 15.066,8.637C14.208,8.98 13.694,9.735 14.517,10.593C15.341,11.451 15.89,12.172 16.817,10.593C17.743,9.015 17.915,7.642 18.704,8.054C19.494,8.466 20.386,9.735 20.969,9.015C21.553,8.294 21.45,7.813 22.239,8.363C23.029,8.912 25.946,8.946 23.989,10.387C22.033,11.829 22.376,12.447 21.45,12.275C20.523,12.103 16.336,11.211 15.375,13.545C14.414,15.879 10.914,17.732 12.733,19.997C14.552,22.262 14.14,23.909 16.748,24.253C19.356,24.596 20.695,23.429 21.347,24.63C21.999,25.831 21.484,25.969 21.518,27.788C21.535,28.689 22.016,30.389 22.497,31.877C18.825,35.687 13.676,38.065 7.979,38.065C5.11,38.065 2.382,37.459 -0.091,36.375C-0.018,36.091 0.021,35.875 0,35.784M-9.968,8.698C-9.758,9.542 -10.178,11.058 -10.502,13.236C-10.879,15.776 -8.854,15.227 -8.923,17.629C-8.992,20.031 -7.138,21.027 -7.379,21.267C-7.619,21.507 -8.58,21.85 -7.138,24.973C-5.697,28.096 -4.462,29.023 -4.29,30.705C-4.118,32.386 -2.265,34.857 -2.265,34.857L-2.162,35.319C-8.156,31.818 -12.194,25.32 -12.194,17.892C-12.194,14.581 -11.387,11.457 -9.968,8.698M7.979,-4.108C-4.171,-4.108 -14.021,5.741 -14.021,17.892C-14.021,30.042 -4.171,39.892 7.979,39.892C20.129,39.892 29.979,30.042 29.979,17.892C29.979,5.741 20.129,-4.108 7.979,-4.108" style="fill:rgb(35,31,32);fill-rule:nonzero;"/>
                    </g>
                    <g transform="matrix(1,0,0,1,32.0863,16.937)">
                        <path d="M0,1.27C0.632,0.89 0.686,1.407 1.235,-0.343C1.785,-2.093 -0.824,-2.334 -2.059,-2.128C-3.295,-1.922 -2.746,-1.407 -2.746,-1.407C-2.334,-0.755 -2.062,1.648 -2.799,2.54C-3.535,3.432 -2.196,3.604 -1.613,2.78C-1.03,1.956 -0.684,1.681 0,1.27" style="fill:rgb(35,31,32);fill-rule:nonzero;"/>
                    </g>
                </g>
                <g transform="matrix(1,0,0,1,24.0211,14.1949)">
                    <path d="M0,35.784C-0.103,35.338 0.103,32.935 2.986,31.975C5.869,31.014 5.388,29.744 6.246,28.508C7.104,27.273 7.276,26.346 5.628,25.969C3.981,25.591 2.265,25.317 0.789,22.983C-0.686,20.649 -2.746,20.58 -3.844,19.86C-4.942,19.139 -5.834,19.276 -7.173,19.105C-8.511,18.933 -8.065,15.192 -7.996,14.369C-7.928,13.545 -8.82,14.643 -9.472,14.072C-10.124,13.501 -8.854,10.834 -7.585,10.937C-6.315,11.04 -6.624,11.657 -6.383,13.064C-6.143,14.471 -5.697,14.128 -5.594,13.682C-5.491,13.236 -5.422,11.348 -4.976,10.765C-4.53,10.182 -4.427,8.603 -2.986,8.671C-1.544,8.74 -1.579,7.367 -0.515,7.813C0.549,8.26 1.304,7.916 0.618,7.333C-0.069,6.75 0.309,6.166 1.476,6.544C2.643,6.921 2.711,4.862 2.505,3.798C2.299,2.734 1.441,2.425 0.378,3.077C-0.686,3.729 -1.476,3.455 -0.927,2.357C-0.377,1.258 1.785,2.185 3.089,2.734C4.393,3.283 4.736,1.293 4.015,0.332C3.295,-0.629 3.26,-0.183 1.201,-0.046C0.381,0.009 0.465,-0.431 0.863,-0.981C3.077,-1.819 5.475,-2.281 7.979,-2.281C10.514,-2.281 12.939,-1.807 15.176,-0.949C15.457,-0.556 15.572,-0.245 15.375,-0.114C14.552,0.435 13.831,-0.055 14.071,1.477C14.311,3.009 15.444,4.829 16.336,4.228C17.229,3.626 18.773,4.382 17.434,5.205C16.096,6.029 15.718,5.96 15.101,6.509C14.483,7.058 14.757,6.784 15.375,7.47C15.993,8.157 15.924,8.294 15.066,8.637C14.208,8.98 13.694,9.735 14.517,10.593C15.341,11.451 15.89,12.172 16.817,10.593C17.743,9.015 17.915,7.642 18.704,8.054C19.494,8.466 20.386,9.735 20.969,9.015C21.553,8.294 21.45,7.813 22.239,8.363C23.029,8.912 25.946,8.946 23.989,10.387C22.033,11.829 22.376,12.447 21.45,12.275C20.523,12.103 16.336,11.211 15.375,13.545C14.414,15.879 10.914,17.732 12.733,19.997C14.552,22.262 14.14,23.909 16.748,24.253C19.356,24.596 20.695,23.429 21.347,24.63C21.999,25.831 21.484,25.969 21.518,27.788C21.535,28.689 22.016,30.389 22.497,31.877C18.825,35.687 13.676,38.065 7.979,38.065C5.11,38.065 2.382,37.459 -0.091,36.375C-0.018,36.091 0.021,35.875 0,35.784M-9.968,8.698C-9.758,9.542 -10.178,11.058 -10.502,13.236C-10.879,15.776 -8.854,15.227 -8.923,17.629C-8.992,20.031 -7.138,21.027 -7.379,21.267C-7.619,21.507 -8.58,21.85 -7.138,24.973C-5.697,28.096 -4.462,29.023 -4.29,30.705C-4.118,32.386 -2.265,34.857 -2.265,34.857L-2.162,35.319C-8.156,31.818 -12.194,25.32 -12.194,17.892C-12.194,14.581 -11.387,11.457 -9.968,8.698M7.979,-4.108C-4.171,-4.108 -14.021,5.741 -14.021,17.892C-14.021,30.042 -4.171,39.892 7.979,39.892C20.129,39.892 29.979,30.042 29.979,17.892C29.979,5.741 20.129,-4.108 7.979,-4.108" style="fill:white;fill-rule:nonzero;"/>
                </g>
                <g transform="matrix(1,0,0,1,32.0863,15.11)">
                    <path d="M0,1.27C0.632,0.89 0.686,1.407 1.235,-0.343C1.785,-2.093 -0.824,-2.334 -2.059,-2.128C-3.295,-1.922 -2.746,-1.407 -2.746,-1.407C-2.334,-0.755 -2.062,1.648 -2.799,2.54C-3.535,3.432 -2.196,3.604 -1.613,2.78C-1.03,1.956 -0.684,1.681 0,1.27" style="fill:white;fill-rule:nonzero;"/>
                </g>
            </g>
        </g>
    </g>
</svg>
