<?xml version="1.0" encoding="UTF-8" standalone="no"?>
<!DOCTYPE svg PUBLIC "-//W3C//DTD SVG 1.1//EN" "http://www.w3.org/Graphics/SVG/1.1/DTD/svg11.dtd">
<svg width="100%" height="100%" viewBox="0 0 356 356" version="1.1" xmlns="http://www.w3.org/2000/svg" xmlns:xlink="http://www.w3.org/1999/xlink" xml:space="preserve" xmlns:serif="http://www.serif.com/" style="fill-rule:evenodd;clip-rule:evenodd;stroke-linejoin:round;stroke-miterlimit:2;">
    <g transform="matrix(5.55556,0,0,5.55556,-4400,-2400)">
        <g id="Page-90" serif:id="Page 90" transform="matrix(1,0,0,1,792,432)">
            <rect x="0" y="0" width="64" height="64" style="fill:none;"/>
            <g id="Layer-1" serif:id="Layer 1">
                <g transform="matrix(0,-1,-1,0,32,0)">
                    <path d="M-32,-32C-49.673,-32 -64,-17.673 -64,0C-64,17.673 -49.673,32 -32,32C-14.327,32 0,17.673 0,0C0,-17.673 -14.327,-32 -32,-32" style="fill:rgb(119,179,212);fill-rule:nonzero;"/>
                </g>
                <g opacity="0.2">
                    <g transform="matrix(1,0,0,1,32,26.6169)">
                        <path d="M0,14.766C-4.071,14.766 -7.383,11.454 -7.383,7.383C-7.383,3.312 -4.071,0 0,0C4.071,0 7.383,3.312 7.383,7.383C7.383,11.454 4.071,14.766 0,14.766M0,-14.617C-12.131,-14.617 -22,-4.748 -22,7.383C-22,19.514 -12.131,29.383 0,29.383C3.5,29.383 6.982,28.541 10.072,26.947C11.054,26.44 11.439,25.234 10.933,24.252C10.426,23.27 9.219,22.885 8.238,23.392C5.677,24.713 2.905,25.383 0,25.383C-9.925,25.383 -18,17.308 -18,7.383C-18,-2.542 -9.925,-10.617 0,-10.617C9.925,-10.617 18,-2.542 18,7.383C18,10.424 17.248,13.365 15.811,15.995C14.058,14.608 11.417,11.8 11.417,7.467L11.417,-1.323C11.417,-2.428 10.521,-3.323 9.417,-3.323C8.312,-3.323 7.417,-2.428 7.417,-1.323L7.417,-1.241C5.424,-2.956 2.836,-4 0,-4C-6.287,-4 -11.383,1.096 -11.383,7.383C-11.383,13.67 -6.287,18.766 0,18.766C3.734,18.766 7.038,16.96 9.114,14.182C11.418,18.427 15.279,20.465 15.51,20.583C16.4,21.04 17.491,20.767 18.062,19.946C20.638,16.248 22,11.905 22,7.383C22,-4.748 12.131,-14.617 0,-14.617" style="fill:rgb(35,31,32);fill-rule:nonzero;"/>
                    </g>
                </g>
                <g transform="matrix(1,0,0,1,32,10)">
                    <path d="M0,44C-12.131,44 -22,34.131 -22,22C-22,9.869 -12.131,0 0,0C12.131,0 22,9.869 22,22C22,26.521 20.639,30.866 18.062,34.563C17.491,35.385 16.399,35.655 15.511,35.2C15.18,35.031 7.417,30.954 7.417,22.083L7.417,13.294C7.417,12.189 8.313,11.294 9.417,11.294C10.521,11.294 11.417,12.189 11.417,13.294L11.417,22.083C11.417,26.416 14.058,29.226 15.812,30.612C17.248,27.982 18,25.041 18,22C18,12.075 9.925,4 0,4C-9.925,4 -18,12.075 -18,22C-18,31.925 -9.925,40 0,40C2.905,40 5.677,39.33 8.238,38.009C9.218,37.501 10.426,37.887 10.933,38.869C11.439,39.851 11.054,41.058 10.072,41.563C6.982,43.157 3.499,44 0,44" style="fill:white;fill-rule:nonzero;"/>
                </g>
                <g transform="matrix(1,0,0,1,32,43.3831)">
                    <path d="M0,-22.766C-6.287,-22.766 -11.383,-17.67 -11.383,-11.383C-11.383,-5.096 -6.287,0 0,0C6.287,0 11.383,-5.096 11.383,-11.383C11.383,-17.67 6.287,-22.766 0,-22.766M0,-18.766C4.071,-18.766 7.383,-15.454 7.383,-11.383C7.383,-7.312 4.071,-4 0,-4C-4.071,-4 -7.383,-7.312 -7.383,-11.383C-7.383,-15.454 -4.071,-18.766 0,-18.766" style="fill:white;fill-rule:nonzero;"/>
                </g>
            </g>
        </g>
    </g>
</svg>
