<?xml version="1.0" encoding="UTF-8" standalone="no"?>
<!DOCTYPE svg PUBLIC "-//W3C//DTD SVG 1.1//EN" "http://www.w3.org/Graphics/SVG/1.1/DTD/svg11.dtd">
<svg width="100%" height="100%" viewBox="0 0 356 356" version="1.1" xmlns="http://www.w3.org/2000/svg" xmlns:xlink="http://www.w3.org/1999/xlink" xml:space="preserve" xmlns:serif="http://www.serif.com/" style="fill-rule:evenodd;clip-rule:evenodd;stroke-linejoin:round;stroke-miterlimit:2;">
    <g transform="matrix(5.55556,0,0,5.55556,-2000,-800)">
        <g id="Page-32" serif:id="Page 32" transform="matrix(1,0,0,1,360,144)">
            <rect x="0" y="0" width="64" height="64" style="fill:none;"/>
            <g id="Layer-1" serif:id="Layer 1">
                <g transform="matrix(0,-1,-1,0,32,0)">
                    <path d="M-32,-32C-49.673,-32 -64,-17.673 -64,0C-64,17.673 -49.673,32 -32,32C-14.327,32 0,17.673 0,0C0,-17.673 -14.327,-32 -32,-32" style="fill:rgb(79,93,115);fill-rule:nonzero;"/>
                </g>
                <g transform="matrix(1,0,0,1,47.7193,44.0935)">
                    <path d="M0,-3.508C0.23,-3.877 0.603,-4.122 1.015,-4.248C1.44,-4.366 1.944,-4.344 2.413,-4.13L4.958,-2.963C5.427,-2.749 5.757,-2.349 5.899,-1.854C6.057,-1.354 5.986,-0.782 5.677,-0.274C5.377,0.238 4.927,0.595 4.447,0.733C3.942,0.858 3.426,0.776 3.003,0.481L0.7,-1.112C0.277,-1.406 0.005,-1.826 -0.104,-2.247C-0.235,-2.685 -0.221,-3.135 0,-3.508" style="fill:rgb(224,224,209);fill-rule:nonzero;"/>
                </g>
                <g transform="matrix(1,0,0,1,16.4458,44.4151)">
                    <path d="M0,-3.627C0.461,-2.907 0.138,-1.813 -0.671,-1.218L-2.953,0.403C-3.806,1.029 -4.996,0.698 -5.634,-0.32C-6.245,-1.353 -5.872,-2.599 -4.948,-3.018L-2.419,-4.22C-1.467,-4.656 -0.437,-4.361 0,-3.627" style="fill:rgb(224,224,209);fill-rule:nonzero;"/>
                </g>
                <g transform="matrix(1,0,0,1,13.9702,31.8428)">
                    <path d="M0,-0.061C0.006,0.793 -0.735,1.572 -1.774,1.685L-4.562,1.944C-5.572,2.055 -6.524,1.174 -6.533,-0.026C-6.502,-1.225 -5.631,-2.116 -4.605,-2.017L-1.815,-1.791C-0.789,-1.691 0.032,-0.917 0,-0.061" style="fill:rgb(224,224,209);fill-rule:nonzero;"/>
                </g>
                <g transform="matrix(1,0,0,1,16.3355,19.2308)">
                    <path d="M0,3.508C-0.23,3.877 -0.603,4.122 -1.015,4.248C-1.44,4.366 -1.944,4.344 -2.413,4.13L-4.958,2.963C-5.427,2.749 -5.757,2.349 -5.899,1.854C-6.057,1.354 -5.986,0.782 -5.677,0.274C-5.377,-0.238 -4.927,-0.595 -4.447,-0.733C-3.942,-0.858 -3.426,-0.776 -3.003,-0.481L-0.7,1.112C-0.277,1.406 -0.005,1.826 0.104,2.247C0.235,2.685 0.221,3.135 0,3.508" style="fill:rgb(224,224,209);fill-rule:nonzero;"/>
                </g>
                <g transform="matrix(1,0,0,1,22.9015,10.2965)">
                    <path d="M0,5.784C-0.72,6.245 -1.814,5.922 -2.409,5.113L-4.03,2.831C-4.656,1.978 -4.325,0.788 -3.308,0.15C-2.274,-0.461 -1.028,-0.088 -0.609,0.836L0.593,3.365C1.029,4.317 0.734,5.347 0,5.784" style="fill:rgb(224,224,209);fill-rule:nonzero;"/>
                </g>
                <g transform="matrix(1,0,0,1,31.9077,7.104)">
                    <path d="M0,6.501C-0.854,6.507 -1.633,5.766 -1.746,4.727L-2.005,1.939C-2.116,0.929 -1.235,-0.023 -0.035,-0.032C1.164,-0.001 2.055,0.87 1.956,1.896L1.73,4.686C1.63,5.712 0.856,6.533 0,6.501" style="fill:rgb(224,224,209);fill-rule:nonzero;"/>
                </g>
                <g transform="matrix(1,0,0,1,40.9507,10.1483)">
                    <path d="M0,5.822C-0.369,5.592 -0.614,5.219 -0.74,4.807C-0.858,4.382 -0.836,3.878 -0.622,3.409L0.545,0.864C0.759,0.395 1.159,0.065 1.654,-0.077C2.154,-0.235 2.726,-0.164 3.234,0.145C3.746,0.445 4.103,0.895 4.241,1.375C4.366,1.88 4.284,2.396 3.989,2.819L2.396,5.122C2.102,5.545 1.682,5.817 1.261,5.926C0.823,6.057 0.373,6.043 0,5.822" style="fill:rgb(224,224,209);fill-rule:nonzero;"/>
                </g>
                <g transform="matrix(1,0,0,1,47.609,18.9092)">
                    <path d="M0,3.627C-0.461,2.907 -0.138,1.813 0.671,1.218L2.953,-0.403C3.806,-1.029 4.996,-0.698 5.634,0.32C6.245,1.353 5.872,2.599 4.948,3.018L2.419,4.22C1.467,4.656 0.437,4.361 0,3.627" style="fill:rgb(224,224,209);fill-rule:nonzero;"/>
                </g>
                <g transform="matrix(1,0,0,1,50.0846,31.4815)">
                    <path d="M0,0.061C-0.006,-0.793 0.735,-1.572 1.774,-1.685L4.562,-1.944C5.572,-2.055 6.524,-1.174 6.533,0.026C6.502,1.225 5.631,2.116 4.605,2.017L1.815,1.791C0.789,1.691 -0.032,0.917 0,0.061" style="fill:rgb(224,224,209);fill-rule:nonzero;"/>
                </g>
                <g opacity="0.2">
                    <g transform="matrix(1,0,0,1,41.6325,38.5155)">
                        <path d="M0,-14.148C-0.413,-14.561 -1.06,-14.633 -1.545,-14.325L-6.198,-11.421L-9.305,-9.483L-9.306,-9.483C-9.416,-9.49 -9.521,-9.515 -9.633,-9.515C-12.394,-9.515 -14.633,-7.277 -14.633,-4.515C-14.633,-4.403 -14.607,-4.297 -14.599,-4.186C-14.434,-1.692 -12.455,0.287 -9.959,0.452C-9.849,0.459 -9.745,0.485 -9.633,0.485C-6.871,0.485 -4.633,-1.754 -4.633,-4.515C-4.633,-4.627 -4.658,-4.732 -4.665,-4.842L-4.665,-4.843L-2.727,-7.948L0.177,-12.603C0.487,-13.098 0.415,-13.738 0,-14.148" style="fill:rgb(35,31,32);fill-rule:nonzero;"/>
                    </g>
                </g>
                <g transform="matrix(1,0,0,1,41.6325,36.5155)">
                    <path d="M0,-14.148C-0.413,-14.561 -1.06,-14.633 -1.545,-14.325L-6.198,-11.421L-9.305,-9.483L-9.306,-9.483C-9.416,-9.49 -9.521,-9.515 -9.633,-9.515C-12.394,-9.515 -14.633,-7.277 -14.633,-4.515C-14.633,-4.403 -14.607,-4.297 -14.599,-4.186C-14.434,-1.692 -12.455,0.287 -9.959,0.452C-9.849,0.459 -9.745,0.485 -9.633,0.485C-6.871,0.485 -4.633,-1.754 -4.633,-4.515C-4.633,-4.627 -4.658,-4.732 -4.665,-4.842L-4.665,-4.843L-2.727,-7.948L0.177,-12.603C0.487,-13.098 0.415,-13.738 0,-14.148" style="fill:rgb(199,92,92);fill-rule:nonzero;"/>
                </g>
                <g transform="matrix(0,-1,-1,0,32,27)">
                    <path d="M-5,-5C-7.761,-5 -10,-2.761 -10,0C-10,2.761 -7.761,5 -5,5C-2.239,5 0,2.761 0,0C0,-2.761 -2.239,-5 -5,-5" style="fill:white;fill-rule:nonzero;"/>
                </g>
                <g transform="matrix(1,0,0,1,40,47)">
                    <path d="M0,2C0,3.657 -1.343,5 -3,5L-13,5C-14.657,5 -16,3.657 -16,2L-16,0C-16,-1.657 -14.657,-3 -13,-3L-3,-3C-1.343,-3 0,-1.657 0,0L0,2Z" style="fill:rgb(245,207,135);fill-rule:nonzero;"/>
                </g>
            </g>
        </g>
    </g>
</svg>
