<?xml version="1.0" encoding="UTF-8" standalone="no"?>
<!DOCTYPE svg PUBLIC "-//W3C//DTD SVG 1.1//EN" "http://www.w3.org/Graphics/SVG/1.1/DTD/svg11.dtd">
<svg width="100%" height="100%" viewBox="0 0 356 356" version="1.1" xmlns="http://www.w3.org/2000/svg" xmlns:xlink="http://www.w3.org/1999/xlink" xml:space="preserve" xmlns:serif="http://www.serif.com/" style="fill-rule:evenodd;clip-rule:evenodd;stroke-linejoin:round;stroke-miterlimit:2;">
    <g transform="matrix(5.55556,0,0,5.55556,-2000,-1200)">
        <g id="Page-45" serif:id="Page 45" transform="matrix(1,0,0,1,360,216)">
            <rect x="0" y="0" width="64" height="64" style="fill:none;"/>
            <g id="Layer-1" serif:id="Layer 1">
                <g transform="matrix(0,-1,-1,0,32,0)">
                    <path d="M-32,-32C-49.673,-32 -64,-17.673 -64,0C-64,17.673 -49.673,32 -32,32C-14.327,32 0,17.673 0,0C0,-17.673 -14.327,-32 -32,-32" style="fill:rgb(224,153,94);fill-rule:nonzero;"/>
                </g>
                <g opacity="0.2">
                    <g transform="matrix(1,0,0,1,48,42)">
                        <path d="M0,8L0,-24L-32,-24L-32,8L0,8Z" style="fill:rgb(35,31,32);fill-rule:nonzero;"/>
                    </g>
                    <g transform="matrix(1,0,0,1,48,54)">
                        <path d="M0,-40L-32,-40C-34.209,-40 -36,-38.209 -36,-36L-36,-4C-36,-1.791 -34.209,0 -32,0L0,0C2.209,0 4,-1.791 4,-4L4,-36C4,-38.209 2.209,-40 0,-40" style="fill:rgb(35,31,32);fill-rule:nonzero;"/>
                    </g>
                </g>
                <g transform="matrix(1,0,0,1,16,14)">
                    <path d="M0,36C-1.103,36 -2,35.103 -2,34L-2,2C-2,0.897 -1.103,0 0,0L32,0C33.103,0 34,0.897 34,2L34,34C34,35.103 33.103,36 32,36L0,36Z" style="fill:rgb(119,179,212);fill-rule:nonzero;"/>
                </g>
                <g transform="matrix(1,0,0,1,48,52)">
                    <path d="M0,-40L-32,-40C-34.209,-40 -36,-38.209 -36,-36L-36,-4C-36,-1.791 -34.209,0 -32,0L0,0C2.209,0 4,-1.791 4,-4L4,-36C4,-38.209 2.209,-40 0,-40M0,-36L0,-4L-32,-4L-32,-36L0,-36" style="fill:white;fill-rule:nonzero;"/>
                </g>
                <g transform="matrix(-1,0,0,1,64,28)">
                    <rect x="16" y="16" width="32" height="4" style="fill:white;"/>
                </g>
                <g transform="matrix(1,0,0,1,13.9896,28.334)">
                    <path d="M0,15.666L34.896,15.666L34.896,12.745C34.896,12.745 33.19,9.768 31.609,7.902C30.433,6.515 28.678,6.122 27.146,7.826L24.393,10.47L18.394,2.841C16.16,0 12.504,0 10.27,2.841L0,15.666Z" style="fill:rgb(79,93,115);fill-rule:nonzero;"/>
                </g>
                <g transform="matrix(0,-1,-1,0,40,21)">
                    <path d="M-3,-3C-4.657,-3 -6,-1.657 -6,0C-6,1.657 -4.657,3 -3,3C-1.343,3 0,1.657 0,0C0,-1.657 -1.343,-3 -3,-3" style="fill:rgb(245,207,135);fill-rule:nonzero;"/>
                </g>
                <g transform="matrix(1,0,0,1,48,52)">
                    <path d="M0,-40L-32,-40C-34.209,-40 -36,-38.209 -36,-36L-36,-4C-36,-1.791 -34.209,0 -32,0L0,0C2.209,0 4,-1.791 4,-4L4,-36C4,-38.209 2.209,-40 0,-40M0,-36L0,-4L-32,-4L-32,-36L0,-36" style="fill:white;fill-rule:nonzero;"/>
                </g>
            </g>
        </g>
    </g>
</svg>
